<?xml version="1.0" encoding="UTF-8"?>
<svg id="Layer_1" xmlns="http://www.w3.org/2000/svg" version="1.1" viewBox="0 0 512 512">
  <!-- Generator: Adobe Illustrator 29.8.2, SVG Export Plug-In . SVG Version: 2.1.1 Build 3)  -->
  <defs>
    <style>
      .st0 {
        fill: #fd6909;
        fill-rule: evenodd;
      }
    </style>
  </defs>
  <path class="st0" d="M496,261.31v22.88c0,3.61-2.36,6.67-5.85,7.58l-27.53,7.22-8.84,32.99,20.27,20.05c2.57,2.54,3.08,6.37,1.27,9.5l-22.91,39.6c-1.81,3.13-5.37,4.59-8.86,3.64l-27.46-7.52-24.15,24.15,7.52,27.46c.95,3.48-.51,7.05-3.64,8.86l-39.6,22.91c-3.13,1.81-6.96,1.3-9.5-1.27l-20.05-20.27-32.99,8.84-7.22,27.53c-.92,3.49-3.97,5.85-7.58,5.85h-45.76c-3.61,0-6.67-2.36-7.58-5.85l-7.22-27.53-32.99-8.84-20.05,20.27c-2.54,2.57-6.37,3.08-9.5,1.27l-39.6-22.91c-3.12-1.81-4.59-5.37-3.64-8.86l7.52-27.46-24.15-24.15-27.46,7.52c-3.48.95-7.05-.51-8.86-3.64l-22.91-39.6c-1.81-3.13-1.3-6.96,1.27-9.5l20.27-20.05-8.84-32.99-27.53-7.22c-3.49-.92-5.85-3.97-5.85-7.58v-22.88h91.98c0,81.75,66.27,148.02,148.02,148.02s148.02-66.27,148.02-148.02h91.99ZM35.56,229.86h63.9c6.9,0,12.5-5.59,12.5-12.5s-5.6-12.5-12.5-12.5h-49.24c7.35-37.57,24.67-71.32,48.96-98.62l11.46,11.46c2.44,2.44,5.64,3.66,8.84,3.66s6.4-1.22,8.84-3.66c4.88-4.89,4.88-12.8,0-17.68l-11.44-11.44c34.3-30.39,78.49-49.65,126.62-52.51v16.24c0,6.9,5.6,12.5,12.5,12.5s12.5-5.6,12.5-12.5v-16.24c48.13,2.86,92.32,22.11,126.62,52.51l-11.44,11.44c-4.88,4.88-4.88,12.79,0,17.68,2.44,2.44,5.64,3.66,8.84,3.66s6.4-1.22,8.84-3.66l11.46-11.46c24.29,27.3,41.62,61.05,48.96,98.62h-45.88c-6.9,0-12.5,5.6-12.5,12.5s5.6,12.5,12.5,12.5h60.54c3.59,0,7-1.54,9.38-4.23,2.37-2.68,3.47-6.27,3.02-9.83-14.71-116.93-114.81-205.11-232.84-205.11S37.87,98.87,23.16,215.79c-.45,3.56.65,7.14,3.03,9.83,2.37,2.7,5.78,4.23,9.37,4.23h0ZM333.68,97.49l-29.98,76.42c30.9,16.9,51.86,49.7,51.86,87.4,0,54.98-44.57,99.55-99.55,99.55s-99.55-44.57-99.55-99.55,44.57-99.55,99.55-99.55c8.44,0,16.64,1.05,24.46,3.03l29.97-76.39c2.51-6.42,9.74-9.59,16.16-7.08s9.59,9.74,7.08,16.16h0ZM298.67,285.34c.4-11.51-5.82-22.17-16.63-28.52-7.86-4.62-15.91-6.53-23.69-8.39-2.53-.6-4.93-1.17-7.27-1.83-6.47-1.8-9.9-3.64-11.47-6.15-.4-.64-1.62-2.6.97-5.3,2.83-2.95,10.78-5.41,19.92-4.17,6.11.84,11.25,3.31,12.79,6.16,3.27,6.08,10.85,8.35,16.93,5.08,6.08-3.28,8.35-10.86,5.07-16.94-4.87-9.04-14.5-15.55-26.81-18.25v-6.66c0-6.9-5.6-12.5-12.5-12.5s-12.5,5.6-12.5,12.5v6.54c-7.74,1.64-15.28,5.04-20.93,10.93-9.62,10.02-11.28,24.43-4.14,35.86,6.53,10.46,17.3,14.57,25.96,16.99,2.8.78,5.55,1.43,8.2,2.06,6.54,1.56,12.18,2.9,16.82,5.63,2.81,1.65,4.38,3.87,4.3,6.09-.07,2.02-1.49,3.82-4,5.07-9.94,4.94-29,1.94-32.9-5.19-3.31-6.05-10.91-8.28-16.97-4.96-6.05,3.31-8.27,10.91-4.96,16.97,5.47,9.98,16.45,16.33,28.63,19.05v6.85c0,6.9,5.59,12.5,12.5,12.5s12.5-5.6,12.5-12.5v-6.33c4.43-.82,8.62-2.16,12.33-4.01,10.79-5.37,17.47-15.3,17.86-26.58h0Z"/>
</svg>