<?xml version="1.0" encoding="UTF-8"?>
<svg id="Layer_1" xmlns="http://www.w3.org/2000/svg" version="1.1" viewBox="0 0 512 512">
  <!-- Generator: Adobe Illustrator 29.8.2, SVG Export Plug-In . SVG Version: 2.1.1 Build 3)  -->
  <defs>
    <style>
      .st0 {
        fill: #fd6909;
      }
    </style>
  </defs>
  <path class="st0" d="M256,247.26c3.87,0,7.02,3.15,7.02,7.02s-3.15,7.02-7.02,7.02-7.02-3.15-7.02-7.02,3.15-7.02,7.02-7.02ZM308.49,312.49v35.75l24.53,18.25c5.19-4.08,11.72-6.52,18.81-6.52,16.81,0,30.49,13.68,30.49,30.49s-13.68,30.49-30.49,30.49-30.49-13.68-30.49-30.49c0-3.93.76-7.69,2.12-11.14l-27.74-20.64c-2.03-1.51-3.22-3.89-3.22-6.42v-39.77h-28.49v67.29c12.94,3.52,22.49,15.37,22.49,29.42,0,16.81-13.68,30.49-30.49,30.49s-30.49-13.68-30.49-30.49c0-14.04,9.55-25.89,22.49-29.42v-67.29h-28.49v39.77c0,2.53-1.2,4.91-3.22,6.42l-27.74,20.64c1.36,3.45,2.12,7.21,2.12,11.14,0,16.81-13.68,30.49-30.49,30.49s-30.49-13.68-30.49-30.49,13.68-30.49,30.49-30.49c7.09,0,13.62,2.44,18.81,6.52l24.53-18.25v-35.75h-38.98c-43.99,0-79.78-35.79-79.78-79.78,0-18.86,6.78-37.21,19.1-51.67,10.85-12.74,25.37-21.72,41.4-25.74,2.91-46.25,41.46-82.99,88.43-82.99,25.75,0,50.33,11.37,67.07,30.72,6.96-3.4,14.61-5.17,22.48-5.17,28.33,0,51.37,23.04,51.37,51.37,0,2.77-.22,5.52-.66,8.24,14,4.97,26.55,13.88,35.91,25.62,11.23,14.07,17.42,31.69,17.42,49.62,0,43.99-35.79,79.78-79.78,79.78h-38.98,0ZM174.66,390.46c0-7.99-6.5-14.49-14.49-14.49s-14.49,6.5-14.49,14.49,6.5,14.49,14.49,14.49,14.49-6.5,14.49-14.49ZM337.34,390.46c0,7.99,6.5,14.49,14.49,14.49s14.49-6.5,14.49-14.49-6.5-14.49-14.49-14.49-14.49,6.5-14.49,14.49ZM174.54,190.55c3.12,3.12,8.19,3.12,11.31,0,18.74-18.74,43.65-29.05,70.14-29.05s51.41,10.32,70.14,29.05c1.56,1.56,3.61,2.34,5.66,2.34s4.1-.78,5.66-2.34c3.12-3.12,3.12-8.19,0-11.31-21.76-21.76-50.69-33.74-81.46-33.74s-59.7,11.98-81.46,33.74c-3.12,3.12-3.12,8.19,0,11.31ZM285.72,230.98c3.12,3.12,8.19,3.12,11.31,0,3.12-3.12,3.12-8.19,0-11.31-22.62-22.62-59.44-22.62-82.06,0-3.12,3.12-3.12,8.19,0,11.31,1.56,1.56,3.61,2.34,5.66,2.34s4.1-.78,5.66-2.34c16.39-16.38,43.05-16.38,59.44,0ZM256,231.26c-12.69,0-23.02,10.33-23.02,23.02s10.33,23.02,23.02,23.02,23.02-10.33,23.02-23.02-10.33-23.02-23.02-23.02ZM305.93,210.77c1.56,1.56,3.61,2.34,5.66,2.34s4.1-.78,5.66-2.34c3.12-3.12,3.12-8.19,0-11.31-33.77-33.77-88.72-33.77-122.49,0-3.12,3.12-3.12,8.19,0,11.31,3.12,3.12,8.19,3.12,11.31,0,27.53-27.53,72.33-27.53,99.86,0ZM256,394.71c-7.99,0-14.49,6.5-14.49,14.49s6.5,14.49,14.49,14.49,14.49-6.5,14.49-14.49-6.5-14.49-14.49-14.49ZM435.27,423.95l13.02.86c4.41.28,8.22-3.05,8.51-7.45s-3.04-8.22-7.45-8.51l-34.26-2.27c-2.3-.15-4.56.7-6.19,2.33-1.63,1.63-2.48,3.89-2.33,6.19l2.27,34.26c.28,4.23,3.8,7.47,7.98,7.47.18,0,.36,0,.54-.02,4.41-.29,7.74-4.1,7.45-8.51l-.86-13.02,73.4,73.4c1.56,1.56,3.61,2.34,5.66,2.34s4.1-.78,5.66-2.34c3.12-3.12,3.12-8.19,0-11.31l-73.4-73.4ZM96.91,406.58l-34.26,2.27c-4.41.29-7.74,4.1-7.45,8.51s4.08,7.73,8.51,7.45l13.02-.86L3.34,497.35c-3.12,3.12-3.12,8.19,0,11.31,1.56,1.56,3.61,2.34,5.66,2.34s4.09-.78,5.66-2.34l73.4-73.4-.86,13.02c-.29,4.41,3.04,8.22,7.45,8.51.18.01.36.02.54.02,4.18,0,7.69-3.24,7.97-7.47l2.28-34.26c.15-2.3-.69-4.56-2.32-6.19-1.63-1.63-3.88-2.48-6.19-2.33h0ZM76.73,88.05l-13.02-.86c-4.43-.29-8.22,3.04-8.51,7.45-.29,4.41,3.04,8.22,7.45,8.51l34.26,2.28c.18.01.35.02.53.02,2.11,0,4.15-.84,5.66-2.34,1.63-1.63,2.48-3.89,2.32-6.19l-2.28-34.26c-.29-4.41-4.1-7.74-8.51-7.45-4.41.29-7.75,4.1-7.45,8.51l.86,13.02L14.65,3.34C11.53.21,6.46.21,3.34,3.34.21,6.46.21,11.53,3.34,14.65l73.4,73.4ZM414.56,105.44c.18,0,.35,0,.53-.02l34.26-2.28c4.41-.29,7.74-4.1,7.45-8.51-.29-4.41-4.1-7.74-8.51-7.45l-13.02.86L508.66,14.65c3.12-3.12,3.12-8.19,0-11.31-3.12-3.12-8.19-3.12-11.31,0l-73.4,73.4.86-13.02c.29-4.41-3.04-8.22-7.45-8.51-4.39-.28-8.22,3.04-8.51,7.45l-2.27,34.26c-.15,2.3.7,4.56,2.33,6.19,1.51,1.5,3.54,2.34,5.66,2.34h0Z"/>
</svg>