<?xml version="1.0" encoding="UTF-8"?>
<svg id="Layer_1" xmlns="http://www.w3.org/2000/svg" version="1.1" viewBox="0 0 512 512">
  <!-- Generator: Adobe Illustrator 29.8.2, SVG Export Plug-In . SVG Version: 2.1.1 Build 3)  -->
  <defs>
    <style>
      .st0 {
        fill: #fd6909;
        fill-rule: evenodd;
      }
    </style>
  </defs>
  <path class="st0" d="M309.01,202.6c0,58.67-47.73,106.41-106.41,106.41s-106.41-47.73-106.41-106.41,47.73-106.41,106.41-106.41,106.41,47.74,106.41,106.41ZM467,467h-83.46c.75-4.74-.15-9.68-2.7-13.91l36.09-36.09c1.95-1.95,1.95-5.12,0-7.07-1.96-1.95-5.12-1.95-7.07,0l-36.08,36.08c-3.2-1.93-6.85-2.98-10.68-2.98-5.54,0-10.74,2.16-14.65,6.07s-6.07,9.12-6.07,14.66c0,1.1.1,2.18.27,3.24h-83.45v-3.24c0-7.56.82-14.93,2.36-22.03l10.85,2.9c.43.12.87.17,1.29.17,2.21,0,4.23-1.47,4.83-3.7.72-2.67-.87-5.41-3.53-6.13l-10.85-2.9c4.59-14.3,12.19-27.26,22.07-38.13l7.9,7.91c.98.97,2.26,1.46,3.54,1.46s2.55-.49,3.53-1.46c1.95-1.96,1.95-5.12,0-7.07l-7.9-7.91c10.86-9.87,23.82-17.47,38.12-22.06l2.91,10.84c.6,2.23,2.62,3.71,4.82,3.71.43,0,.87-.06,1.3-.17,2.67-.72,4.25-3.46,3.54-6.13l-2.91-10.84c7.1-1.54,14.47-2.36,22.03-2.36s14.93.82,22.03,2.36l-2.9,10.84c-.72,2.67.86,5.41,3.53,6.13.44.11.87.17,1.3.17,2.21,0,4.23-1.48,4.83-3.71l2.9-10.84c14.3,4.59,27.26,12.19,38.12,22.06l-7.9,7.91c-1.95,1.95-1.95,5.11,0,7.07.98.97,2.26,1.46,3.54,1.46s2.56-.49,3.53-1.46l7.91-7.91c9.87,10.87,17.47,23.83,22.06,38.13l-10.84,2.9c-2.67.72-4.25,3.46-3.54,6.13.6,2.23,2.62,3.7,4.83,3.7.43,0,.86-.05,1.29-.17l10.85-2.9c1.54,7.1,2.36,14.47,2.36,22.03v3.24ZM370.69,471.34c4.18-4.18,4.18-10.99,0-15.17-2.03-2.02-4.72-3.14-7.59-3.14s-5.56,1.12-7.58,3.14c-2.03,2.03-3.14,4.72-3.14,7.59s1.11,5.56,3.14,7.58c2.02,2.03,4.72,3.14,7.58,3.14s5.56-1.11,7.59-3.14h0ZM276.74,326.27l20.03,16.62c11.14-6.14,23.21-10.78,35.95-13.65,4.15-4.27,8.14-8.78,11.85-13.43,4.61-5.76,4.5-13.73-.26-19.37l-17.45-20.69c-5.61-6.65-7.06-15.78-3.77-23.8,3.29-8.04,10.73-13.52,19.38-14.33l26.97-2.51c7.35-.68,13.01-6.29,13.78-13.63,1.35-13.01,1.3-26.2-.15-39.22-.82-7.34-6.53-12.9-13.89-13.52l-26.99-2.29c-8.68-.74-16.14-6.16-19.5-14.17-3.35-8-1.98-17.14,3.58-23.84l17.29-20.83c4.71-5.68,4.76-13.65.1-19.38-8.25-10.16-17.62-19.46-27.85-27.62-5.76-4.6-13.73-4.5-19.37.26l-20.69,17.46c-6.65,5.61-15.78,7.05-23.81,3.76s-13.52-10.72-14.32-19.38l-2.51-26.97c-.68-7.35-6.29-13.01-13.63-13.77-13-1.35-26.2-1.3-39.21.15-7.34.82-12.9,6.53-13.52,13.89l-2.29,27c-.74,8.67-6.17,16.14-14.17,19.49-8.01,3.35-17.14,1.98-23.84-3.57l-20.83-17.29c-5.68-4.72-13.66-4.76-19.38-.11-10.16,8.25-19.45,17.62-27.62,27.85-4.6,5.77-4.5,13.73.26,19.37l17.46,20.69c5.61,6.65,7.05,15.78,3.76,23.81s-10.71,13.52-19.38,14.32l-26.97,2.51c-7.35.69-13.01,6.29-13.77,13.63-1.35,13.01-1.3,26.2.15,39.22.81,7.34,6.52,12.9,13.88,13.52l27,2.29c8.67.74,16.14,6.16,19.49,14.17,3.35,8,1.98,17.14-3.57,23.83l-17.3,20.84c-4.71,5.68-4.75,13.65-.1,19.38,8.25,10.17,17.62,19.46,27.85,27.62,5.77,4.61,13.73,4.5,19.37-.26l20.7-17.45c6.65-5.61,15.77-7.06,23.8-3.77s13.52,10.72,14.33,19.38l2.5,26.97c.69,7.35,6.29,13.01,13.63,13.78,13.01,1.35,26.2,1.3,39.21-.15,7.34-.82,12.9-6.53,13.53-13.89l2.29-26.99c.73-8.67,6.16-16.14,14.17-19.5,8-3.36,17.13-1.99,23.83,3.57ZM363.1,325.86c-4.89,0-9.72.26-14.48.76,1.28-1.51,2.54-3.03,3.77-4.57,7.62-9.54,7.44-22.72-.43-32.06l-17.46-20.69c-3.25-3.86-4.06-8.92-2.15-13.57,1.9-4.64,6.03-7.69,11.05-8.16l26.97-2.51c12.15-1.13,21.53-10.4,22.79-22.55,1.43-13.72,1.38-27.63-.15-41.35-1.36-12.15-10.8-21.35-22.98-22.38l-27-2.29c-5.02-.43-9.18-3.44-11.11-8.07-1.94-4.63-1.18-9.7,2.04-13.58l17.29-20.84c7.8-9.4,7.88-22.58.18-32.06-8.7-10.72-18.59-20.52-29.38-29.14-9.54-7.61-22.72-7.44-32.06.44l-20.69,17.45c-3.85,3.25-8.93,4.06-13.57,2.15-4.64-1.9-7.69-6.03-8.16-11.05l-2.5-26.97c-1.13-12.16-10.41-21.53-22.55-22.8-13.72-1.42-27.63-1.37-41.36.16-12.14,1.35-21.34,10.8-22.38,22.97l-2.29,27c-.42,5.02-3.44,9.18-8.07,11.12-4.62,1.94-9.7,1.17-13.58-2.05l-20.84-17.28c-9.4-7.8-22.58-7.87-32.06-.17-10.72,8.7-20.52,18.59-29.14,29.38-7.61,9.54-7.44,22.73.44,32.05l17.45,20.7c3.25,3.85,4.06,8.92,2.16,13.57-1.9,4.64-6.03,7.69-11.05,8.15l-26.97,2.51c-12.16,1.13-21.54,10.4-22.8,22.55-1.42,13.72-1.37,27.63.16,41.36,1.35,12.15,10.8,21.35,22.98,22.38l26.99,2.29c5.02.43,9.18,3.44,11.12,8.07s1.17,9.71-2.05,13.58l-17.29,20.83c-7.8,9.4-7.87,22.58-.17,32.07,8.7,10.72,18.58,20.52,29.37,29.13,9.55,7.62,22.73,7.44,32.06-.43l20.7-17.46c3.85-3.25,8.92-4.05,13.56-2.15s7.69,6.03,8.16,11.05l2.51,26.97c1.13,12.16,10.4,21.53,22.55,22.79,6.61.69,13.27,1.03,19.94,1.03,7.15,0,14.31-.39,21.41-1.18,12.14-1.36,21.35-10.81,22.38-22.98l2.29-27c.43-5.02,3.44-9.18,8.07-11.11,4.63-1.94,9.7-1.18,13.58,2.04l17.35,14.4c-37.61,24.65-62.5,67.17-62.5,115.4v20.76c0,9.09,7.4,16.48,16.48,16.48h242.84c9.09,0,16.48-7.39,16.48-16.48v-20.76c0-76.04-61.86-137.9-137.9-137.9h0ZM387.06,143.92c-3.67.11-7.04-1.96-8.56-5.3-1.53-3.34-.9-7.25,1.6-9.95l49.53-53.44c2.48-2.67,5.98-4.22,9.6-4.23h.06c3.6,0,7.09,1.51,9.58,4.15l49.65,52.69c2.49,2.64,3.17,6.5,1.73,9.83s-4.71,5.48-8.34,5.48h-18.86v116.71c0,7.26-5.91,13.17-13.18,13.17h-41.27c-7.26,0-13.17-5.91-13.17-13.17v-116.54l-18.37.6ZM213.22,202.6c0-4.06-2.28-7.58-5.62-9.38v-39.46c0-2.76-2.24-5-5-5s-5,2.24-5,5v39.46c-3.35,1.79-5.63,5.31-5.63,9.38,0,1.08.16,2.12.46,3.09l-23.85,23.85c-1.95,1.95-1.95,5.12,0,7.07.98.98,2.26,1.47,3.54,1.47s2.55-.49,3.53-1.47l23.85-23.85c.98.3,2.02.46,3.1.46,5.87,0,10.62-4.76,10.62-10.62h0ZM254.16,247.11l-1.93-1.94c-1.95-1.95-5.12-1.95-7.07,0-1.96,1.95-1.96,5.12,0,7.07l1.93,1.93c.98.98,2.26,1.47,3.54,1.47s2.56-.49,3.53-1.46c1.96-1.95,1.96-5.12,0-7.07h0ZM262.79,202.62c0,2.76,2.23,5,5,5h2.73c2.76,0,5-2.24,5-5s-2.24-5-5-5h-2.73c-2.77,0-5,2.23-5,5ZM254.16,151.05c-1.95-1.95-5.12-1.95-7.07,0l-1.93,1.94c-1.96,1.95-1.96,5.12,0,7.07.97.98,2.25,1.47,3.53,1.47s2.56-.49,3.54-1.47l1.93-1.93c1.96-1.96,1.96-5.13,0-7.08h0ZM197.6,137.43c0,2.76,2.24,5,5,5s5-2.24,5-5v-2.74c0-2.76-2.24-5-5-5s-5,2.24-5,5v2.74ZM142.43,202.6c0-2.76-2.24-5-5-5h-2.74c-2.76,0-5,2.24-5,5s2.24,5,5,5h2.74c2.76,0,5-2.24,5-5ZM207.6,267.81c0-2.76-2.24-5-5-5s-5,2.24-5,5v2.74c0,2.76,2.24,5,5,5s5-2.24,5-5v-2.74ZM151.04,158.11l1.94,1.94c.98.97,2.25,1.46,3.53,1.46s2.56-.49,3.54-1.47c1.95-1.95,1.95-5.12,0-7.07l-1.94-1.93c-1.95-1.95-5.11-1.95-7.07,0-1.95,1.96-1.95,5.12,0,7.07h0ZM160.05,245.14c-1.95-1.95-5.12-1.95-7.07,0l-1.94,1.94c-1.95,1.95-1.95,5.12,0,7.07.98.97,2.26,1.46,3.54,1.46s2.56-.49,3.53-1.46l1.94-1.94c1.95-1.95,1.95-5.12,0-7.07h0ZM202.6,282.96c44.31,0,80.36-36.05,80.36-80.36s-36.05-80.36-80.36-80.36-80.37,36.05-80.37,80.36,36.05,80.36,80.37,80.36h0Z"/>
</svg>