<?xml version="1.0" encoding="UTF-8"?>
<svg id="Layer_1" xmlns="http://www.w3.org/2000/svg" version="1.1" viewBox="0 0 512 512">
  <!-- Generator: Adobe Illustrator 29.8.2, SVG Export Plug-In . SVG Version: 2.1.1 Build 3)  -->
  <defs>
    <style>
      .st0 {
        fill: #fd6909;
      }
    </style>
  </defs>
  <g id="_x34_1_Verified_Account">
    <g>
      <path class="st0" d="M145.22,476.68c-.56,0-1.13-.1-1.68-.3-2.54-.93-3.85-3.75-2.92-6.29,4.39-12,12.87-22.24,23.86-28.83,2.33-1.39,5.33-.64,6.73,1.68,1.39,2.32.64,5.33-1.68,6.72-9.08,5.44-16.08,13.9-19.7,23.8-.73,1.99-2.6,3.22-4.6,3.22h0Z"/>
      <path class="st0" d="M164.09,336.49h-1.52c-8.28,0-15.05-6.77-15.05-15.05s6.76-15.05,15.05-15.05h1.42v27.99c0,.69.1,1.42.1,2.11h0Z"/>
      <path class="st0" d="M465.02,11.69H46.98C24.39,11.69,6,30.07,6,52.67v406.66c0,22.6,18.38,40.98,40.98,40.98h418.03c22.6,0,40.98-18.38,40.98-40.98V52.67c0-22.6-18.38-40.98-40.98-40.98h0ZM359.82,490.51h-231.27v-1.23c0-35.64,28.97-64.65,64.61-64.65h25.88v9.02c0,13.87,11.27,25.2,25.15,25.2s25.2-11.32,25.2-25.2v-9.02h25.83c7.7,0,15,1.42,21.86,3.87,5.39,20.88,20.78,37.7,40.74,45.15,1.27,5,2.06,10.2,2.06,15.64,0,.39,0,.83-.05,1.22h0ZM282.91,250.36c.88-1.13,2.65-.83,3.14.44l4.22,10.34c3.48,8.63,11.76,14.17,21.03,14.17h3.58v59.07c0,36.86-30,66.86-66.86,66.86h-7.4c-36.86,0-66.81-30-66.81-66.86v-59.07h78.18c6.91,0,13.38-3.09,17.74-8.53l13.19-16.42ZM275.07,204.24c1.18-2.4,4.12-3.43,6.57-2.26,11.57,5.64,21.91,13.97,29.9,24.12,1.67,2.11,1.27,5.2-.83,6.86-.88.74-1.96,1.08-3.04,1.08-1.42,0-2.89-.64-3.87-1.86-7.06-9.02-16.23-16.37-26.47-21.37-2.4-1.18-3.43-4.12-2.26-6.57h0ZM259.58,410.07v23.58c0,8.48-6.91,15.39-15.39,15.39s-15.34-6.91-15.34-15.39v-23.63c3.82.59,7.74,1.03,11.76,1.03h7.4c3.97,0,7.79-.39,11.57-.98h0ZM353.89,418.74l15.78,15.29c7.21,7.26,18.92,7.26,26.23.05l38.43-37.99c1.52,5.05,2.4,10.39,2.4,15.93,0,30.88-25.15,56.03-56.03,56.03s-56.03-25.15-56.03-56.03,25.15-56.03,56.03-56.03c11.67,0,22.55,3.63,31.52,9.76l-29.51,29.02-2.94-2.84c-7.26-6.91-18.87-6.81-26.08.34-7.3,7.35-7.21,19.21.2,26.47h0ZM496.19,459.33c0,17.21-13.97,31.18-31.18,31.18h-95.44c0-.39.1-.83.1-1.23,0-4.31-.44-8.53-1.18-12.6,3.97.74,8.04,1.18,12.21,1.18,36.27,0,65.83-29.56,65.83-65.83,0-8.33-1.67-16.18-4.51-23.48l4.61-4.56c7.26-7.26,7.26-19.02,0-26.27-7.26-7.21-19.02-7.21-26.23,0l-1.18,1.13c-10.83-7.89-24.12-12.65-38.53-12.65-36.27,0-65.83,29.51-65.83,65.83,0,1.86.15,3.73.29,5.59-6.37-1.77-13.04-2.79-19.95-2.79h-25.83v-6.86c28.19-8.23,49.66-32.2,54.26-61.76,13.28-.54,23.92-11.37,23.92-24.76,0-4.71-1.42-9.07-3.68-12.79,2.79-9.46,4.46-19.36,4.46-29.7,0-57.35-46.67-104.02-104.02-104.02s-104.02,46.67-104.02,104.02c0,9.12,1.27,17.94,3.48,26.42-3.73,4.31-6.08,9.9-6.08,16.08,0,13.73,11.18,24.85,24.85,24.85h2.45c4.61,29.41,25.93,53.33,54.02,61.57v6.96h-25.88c-41.03,0-74.41,33.38-74.41,74.46,0,.39.05.83.05,1.23H46.98c-17.21,0-31.18-13.97-31.18-31.18V52.67c0-17.21,13.97-31.17,31.18-31.17h418.03c17.21,0,31.18,13.97,31.18,31.17v406.66h0ZM324.68,306.59c7.35.98,13.09,7.26,13.09,14.85s-5.78,13.92-13.19,14.85c.15-6.67.05-18.97.1-29.71ZM164.09,336.49h-1.52c-8.28,0-15.05-6.77-15.05-15.05s6.76-15.05,15.05-15.05h1.42v27.99c0,.69.1,1.42.1,2.11h0Z"/>
      <path class="st0" d="M444.13,54.29H67.87c-12.11,0-21.91,9.8-21.91,21.91v37.6c0,12.11,9.8,21.91,21.91,21.91h376.27c6.03,0,11.52-2.45,15.49-6.42,3.97-3.97,6.42-9.46,6.42-15.49v-37.6c0-12.11-9.85-21.91-21.91-21.91h0ZM367.52,125.9H67.87c-6.67,0-12.11-5.44-12.11-12.11v-37.6c0-6.67,5.44-12.11,12.11-12.11h299.65v61.81h0ZM456.24,113.8c0,6.67-5.44,12.11-12.11,12.11h-66.81v-61.81h66.81c6.67,0,12.11,5.44,12.11,12.11v37.6Z"/>
      <path class="st0" d="M433.01,105.76c-5.83,5.78-15.05,7.55-23.04,2.94l-7.06,7.06c-1.91,1.91-5,1.91-6.91,0-1.91-1.91-1.91-5,0-6.91l7.06-7.06c-4.22-7.3-3.28-16.76,2.94-22.99,7.45-7.45,19.56-7.45,27.01,0,7.45,7.45,7.45,19.51,0,26.96Z"/>
      <path class="st0" d="M127.14,78.08l-21.75,27.8c-1.67,2.13-1.29,5.21.84,6.88,2.12,1.67,5.21,1.3,6.88-.84l21.75-27.8c1.67-2.13,1.29-5.21-.84-6.88-2.12-1.68-5.21-1.3-6.88.84Z"/>
      <path class="st0" d="M165.01,78.08l-21.75,27.8c-1.67,2.13-1.29,5.21.84,6.88,2.12,1.67,5.21,1.3,6.88-.84l21.75-27.8c1.67-2.13,1.29-5.21-.84-6.88-2.13-1.68-5.21-1.3-6.88.84Z"/>
      <path class="st0" d="M202.88,78.08l-21.75,27.8c-1.67,2.13-1.29,5.21.84,6.88,2.12,1.67,5.21,1.3,6.88-.84l21.75-27.8c1.67-2.13,1.29-5.21-.84-6.88-2.12-1.68-5.21-1.3-6.88.84Z"/>
      <path class="st0" d="M236.61,103.99h-16.32c-2.71,0-4.9,2.19-4.9,4.9s2.2,4.9,4.9,4.9h16.32c2.71,0,4.9-2.19,4.9-4.9,0-2.71-2.19-4.9-4.9-4.9h0Z"/>
      <path class="st0" d="M274.68,103.99h-16.32c-2.71,0-4.9,2.19-4.9,4.9s2.2,4.9,4.9,4.9h16.32c2.71,0,4.9-2.19,4.9-4.9s-2.2-4.9-4.9-4.9Z"/>
      <path class="st0" d="M312.75,103.99h-16.32c-2.71,0-4.9,2.19-4.9,4.9s2.2,4.9,4.9,4.9h16.32c2.71,0,4.9-2.19,4.9-4.9,0-2.71-2.2-4.9-4.9-4.9Z"/>
      <path class="st0" d="M199.85,316.4h15.64c2.71,0,4.9-2.19,4.9-4.9s-2.2-4.9-4.9-4.9h-15.64c-2.71,0-4.9,2.19-4.9,4.9s2.2,4.9,4.9,4.9Z"/>
      <path class="st0" d="M273.15,316.4h15.64c2.71,0,4.9-2.19,4.9-4.9s-2.2-4.9-4.9-4.9h-15.64c-2.71,0-4.9,2.19-4.9,4.9,0,2.71,2.2,4.9,4.9,4.9Z"/>
      <path class="st0" d="M279.48,336.05h-70.34c-1.27,0-2.5.54-3.43,1.47-.93.88-1.47,2.16-1.47,3.43,0,21.37,17.4,38.77,38.77,38.77h2.65c21.37,0,38.73-17.4,38.73-38.77,0-2.7-2.21-4.9-4.9-4.9ZM245.66,369.92h-2.65c-14.31,0-26.18-10.44-28.53-24.07h59.71c-2.35,13.63-14.27,24.07-28.53,24.07h0Z"/>
    </g>
  </g>
</svg>