<?xml version="1.0" encoding="UTF-8"?>
<svg id="Layer_1" xmlns="http://www.w3.org/2000/svg" version="1.1" viewBox="0 0 512 512">
  <!-- Generator: Adobe Illustrator 29.8.2, SVG Export Plug-In . SVG Version: 2.1.1 Build 3)  -->
  <defs>
    <style>
      .st0 {
        fill: #fd6909;
      }
    </style>
  </defs>
  <g id="Profits">
    <path class="st0" d="M384,208c-57.44,0-104,46.56-104,104s46.56,104,104,104,104-46.56,104-104h0c0-57.44-46.56-104-104-104h0ZM384,303.92c17.64-.04,31.96,14.23,32,31.87.03,14.61-9.85,27.37-24,31v9.14c0,4.42-3.58,8-8,8s-8-3.58-8-8v-9.14c-14.09-3.63-23.96-16.31-24-30.86,0-4.42,3.58-8,8-8s8,3.58,8,8c0,8.84,7.16,16,16,16s16-7.16,16-16-7.16-16-16-16c-17.64.04-31.96-14.23-32-31.87-.03-14.61,9.85-27.37,24-31v-9.14c0-4.42,3.58-8,8-8s8,3.58,8,8v9.14c14.09,3.63,23.96,16.31,24,30.86,0,4.42-3.58,8-8,8s-8-3.58-8-8c0-8.84-7.16-16-16-16s-16,7.16-16,16,7.16,16,16,16Z"/>
    <path class="st0" d="M160,207.92h24v200c0,4.42,3.57,8,7.99,8h64.01c4.42,0,8-3.58,8-7.99h0v-200.01h24c4.42,0,8-3.58,8-8,0-1.82-.62-3.58-1.75-5l-64-80c-3-3.45-8.23-3.82-11.68-.82-.29.25-.56.52-.82.82l-64,80c-2.76,3.45-2.2,8.49,1.25,11.25,1.42,1.13,3.18,1.75,5,1.75h0Z"/>
    <path class="st0" d="M32,335.92h24v72c0,4.42,3.58,8,7.99,8h64.01c4.42,0,8-3.58,8-7.99h0v-72.01h24c4.42,0,8-3.58,8-8,0-1.82-.62-3.58-1.75-5l-64-80c-3-3.45-8.23-3.82-11.68-.82-.29.25-.56.52-.82.82l-64,80c-2.76,3.45-2.2,8.49,1.25,11.25,1.42,1.13,3.18,1.75,5,1.75Z"/>
    <path class="st0" d="M488,431.92H24c-4.42,0-8,3.58-8,7.99,0,0,0,0,0,0v32c0,4.42,3.58,8,7.99,8h464.01c4.42,0,8-3.58,8-7.99h0v-32.01c0-4.42-3.58-8-7.99-8h0Z"/>
    <path class="st0" d="M320,127.92h24v71.08c25.85-9.33,54.15-9.33,80,0v-71.08h24c4.42,0,8-3.58,8-8,0-1.82-.62-3.58-1.75-5l-64-80c-3-3.45-8.23-3.82-11.68-.82-.29.25-.56.52-.82.82l-64,80c-2.76,3.45-2.2,8.49,1.25,11.25,1.42,1.13,3.18,1.75,5,1.75Z"/>
  </g>
</svg>