<?xml version="1.0" encoding="UTF-8"?>
<svg xmlns="http://www.w3.org/2000/svg" version="1.1" viewBox="0 0 122.9 122.9">
  <!-- Generator: Adobe Illustrator 29.8.2, SVG Export Plug-In . SVG Version: 2.1.1 Build 3)  -->
  <defs>
    <style>
      .st0 {
        fill: #fd6909;
        fill-rule: evenodd;
      }
    </style>
  </defs>
  <g id="Layer_1" image-rendering="optimizeQuality" shape-rendering="geometricPrecision" text-rendering="geometricPrecision">
    <g id="Layer_x5F_1">
      <path class="st0" d="M116.75,119.73H6.16c-.86,0-1.56-.7-1.56-1.56V47.84c0-.86.7-1.56,1.56-1.56h110.59c.86,0,1.56.7,1.56,1.56v70.33c0,.86-.7,1.56-1.56,1.56ZM65.02,105.55h-7.13c-.77,0-1.43-.56-1.54-1.32l-1.07-6.95c-1.1-.48-2.13-1.08-3.1-1.79l-6.56,2.55c-.72.28-1.53,0-1.92-.67l-3.57-6.18c-.39-.67-.23-1.52.37-2l5.49-4.4c-.07-.59-.1-1.19-.1-1.79s.03-1.19.1-1.79l-5.49-4.4c-.6-.48-.76-1.33-.37-2l3.57-6.18c.39-.67,1.2-.95,1.92-.67l6.56,2.55c.96-.72,2-1.32,3.1-1.79l1.07-6.95c.12-.76.77-1.32,1.54-1.32h7.13c.77,0,1.43.56,1.54,1.32l1.07,6.95c1.1.48,2.13,1.08,3.1,1.79l6.56-2.55c.72-.28,1.53,0,1.92.67l3.57,6.18c.39.67.23,1.52-.37,2l-5.49,4.4c.07.59.1,1.19.1,1.79s-.03,1.19-.1,1.79l5.49,4.4c.6.48.76,1.33.37,2l-3.57,6.18c-.39.67-1.2.95-1.92.67l-6.56-2.55c-.96.72-2,1.32-3.1,1.79l-1.07,6.95c-.12.76-.77,1.32-1.54,1.32h0ZM22.74,91.24c-.33,0-.67-.11-.95-.32l-8.7-6.68h-.01s0-.01,0-.01c-.03-.02-.06-.05-.08-.07h0s-.02-.02-.02-.02h0s-.07-.08-.1-.11h0s-.02-.03-.02-.03h0s-.02-.03-.02-.03h0s-.01-.03-.01-.03h0s-.01-.02-.01-.02h-.01s0-.02,0-.02v-.02s-.02,0-.02,0h0s-.01-.03-.01-.03h0s0-.02,0-.02v-.02s-.01,0-.01,0v-.02s-.02-.01-.02-.01h0s-.01-.03-.01-.03h0s0-.02,0-.02v-.02s-.01,0-.01,0v-.02s-.02-.01-.02-.01h0s0-.03,0-.03v-.02s-.02-.02-.02-.02v-.02s-.02-.02-.02-.02h0s0-.02,0-.02h0s0-.02,0-.02v-.02s0,0,0,0v-.02s-.02-.06-.02-.06v-.02s-.01-.02-.01-.02v-.02s0,0,0,0v-.02s0-.02,0-.02h0s0-.02,0-.02v-.02s0,0,0,0v-.02s0,0,0,0h0s0-.06,0-.06v-.02s0,0,0,0v-.02s0-.02,0-.02h0s0-.03,0-.03h0s0-.02,0-.02v-.02s0,0,0,0v-.02s0-.02,0-.02h0s0-.02,0-.02v-.02s0,0,0,0v-.02s0-.01,0-.01h0s0-.03,0-.03h0s0-.02,0-.02v-.02s0,0,0,0v-.02s.01-.07.01-.07v-.02s0,0,0,0h0c.04-.21.11-.4.22-.56h0s.01-.02.01-.02h0s0-.02,0-.02c.02-.02.03-.05.05-.07h0s0-.01,0-.01h0s.01-.02.01-.02h0s.01-.02.01-.02v-.02s.01,0,.01,0v-.02s.02-.01.02-.01h0s.02-.02.02-.02h0s.01-.02.01-.02l.02-.02h0s.02-.02.02-.02h0s0-.02,0-.02l.02-.02h0s.01-.02.01-.02h.02s0-.01,0-.01h.02s.01-.02.01-.02h0s.02-.02.02-.02h0s.01-.01.01-.01h.02s8.69-6.68,8.69-6.68c.68-.52,1.66-.4,2.19.29.52.68.4,1.66-.29,2.19l-5.05,3.88h20.01c.86,0,1.56.7,1.56,1.56s-.7,1.56-1.56,1.56h-20.01l5.05,3.88c.68.52.81,1.5.29,2.19-.31.4-.77.61-1.24.61h0ZM100.16,91.24c-.47,0-.93-.21-1.24-.61-.52-.68-.4-1.66.29-2.19l5.06-3.88h-20.01c-.86,0-1.56-.7-1.56-1.56s.7-1.56,1.56-1.56h20.01l-5.05-3.88c-.68-.52-.81-1.5-.29-2.19.52-.68,1.5-.81,2.19-.29l8.68,6.66h0s.02.02.02.02h.02s.02.03.02.03h0s.01.01.01.01h.02s0,.02,0,.02h.02s0,.01,0,.01l.05.05.02.02h0s.02.02.02.02h.01s0,.02,0,.02l.02.02h0s0,.02,0,.02v.02s.02,0,.02,0v.02s.02.01.02.01h0s.01.02.01.02h0s0,.02,0,.02v.02s.02,0,.02,0v.02s.02.01.02.01h0s.02.04.02.04v.02s.01,0,.01,0v.02s.02.02.02.02h0s.01.02.01.02c.09.15.15.32.19.5h0s0,.02,0,.02v.02s.01.07.01.07v.02s0,0,0,0v.02s0,.02,0,.02h0s0,.03,0,.03h0s0,.02,0,.02v.02s0,0,0,0v.02s0,.02,0,.02h0s0,.02,0,.02v.02s0,0,0,0v.02s0,.01,0,.01h0s0,.03,0,.03h0s0,.02,0,.02v.02s0,0,0,0v.02s0,.02,0,.02v.02s0,.01,0,.01h0s0,.03,0,.03h0s0,.02,0,.02v.02s0,0,0,0v.02s0,.02,0,.02h0s0,.03,0,.03v.02s-.01.02-.01.02h0s0,.02,0,.02v.04s-.02.02-.02.02h0s0,.03,0,.03h0s0,.02,0,.02v.02s0,0,0,0v.02s-.02.02-.02.02v.02s-.01.01-.01.01h0s0,.03,0,.03h0s0,.02,0,.02v.02s0,0,0,0v.02s-.02.01-.02.01h0s-.01.03-.01.03h0s0,.02,0,.02v.02s-.01,0-.01,0v.02s-.02.02-.02.02h0s-.01.02-.01.02h0s0,.02,0,.02v.02s-.02,0-.02,0h-.01s-.01.03-.01.03h0c-.08.11-.18.22-.3.3l-8.7,6.68c-.28.22-.62.32-.95.32h0ZM61.45,92c-4.96,0-8.99-4.03-8.99-8.99s4.03-8.99,8.99-8.99,8.99,4.04,8.99,8.99-4.03,8.99-8.99,8.99ZM61.45,77.13c-3.24,0-5.87,2.64-5.87,5.87s2.64,5.87,5.87,5.87,5.87-2.64,5.87-5.87-2.64-5.87-5.87-5.87ZM59.22,102.43h4.45l1-6.51c.09-.56.47-1.03,1.01-1.23,1.37-.5,2.64-1.23,3.76-2.18.44-.37,1.04-.47,1.57-.26l6.14,2.39,2.23-3.86-5.14-4.12c-.44-.36-.66-.93-.56-1.49.13-.72.19-1.45.19-2.18s-.06-1.46-.19-2.18c-.1-.56.12-1.13.56-1.49l5.14-4.12-2.23-3.86-6.14,2.39c-.53.21-1.13.11-1.57-.26-1.12-.95-2.39-1.68-3.76-2.18-.54-.19-.92-.67-1.01-1.23l-1-6.51h-4.45l-1,6.51c-.09.56-.47,1.04-1.01,1.23-1.37.5-2.64,1.23-3.76,2.18-.44.37-1.04.47-1.57.26l-6.14-2.39-2.23,3.86,5.14,4.12c.44.36.66.93.56,1.49-.13.71-.19,1.45-.19,2.18s.06,1.46.19,2.18c.1.56-.12,1.13-.56,1.49l-5.14,4.12,2.23,3.86,6.14-2.39c.53-.21,1.13-.11,1.57.26,1.12.95,2.39,1.68,3.76,2.18.54.19.92.67,1.01,1.23l1,6.51h0Z"/>
      <path class="st0" d="M121.34,119.73H1.56C.7,119.73,0,119.03,0,118.17s.7-1.56,1.56-1.56h119.78c.86,0,1.56.7,1.56,1.56s-.7,1.56-1.56,1.56Z"/>
      <path class="st0" d="M9.6,43.16L60.21,3.51c.56-.44,1.35-.44,1.92,0l51.13,39.66H9.6ZM61.45,38.05c-5.16,0-9.36-4.2-9.36-9.36s4.2-9.36,9.36-9.36,9.36,4.2,9.36,9.36-4.2,9.36-9.36,9.36ZM61.45,22.45c-3.44,0-6.24,2.8-6.24,6.24s2.8,6.24,6.24,6.24,6.24-2.8,6.24-6.24-2.8-6.24-6.24-6.24Z"/>
    </g>
  </g>
</svg>