<?xml version="1.0" encoding="UTF-8"?>
<svg id="Layer_1" xmlns="http://www.w3.org/2000/svg" version="1.1" viewBox="0 0 682 682">
  <!-- Generator: Adobe Illustrator 29.8.2, SVG Export Plug-In . SVG Version: 2.1.1 Build 3)  -->
  <defs>
    <style>
      .st0 {
        fill: #fd6909;
      }
    </style>
  </defs>
  <path class="st0" d="M147.45,327.98c0-97.88,74.65-178.65,170.01-188.36V20.98L81.34,127.83v209.42c0,42.87,13.32,87.09,39.59,131.44,20.48,34.57,48.89,69.36,84.42,103.39,46.61,44.64,92.74,75.9,112.11,88.28v-144.02c-95.36-9.72-170.01-90.48-170.01-188.36Z"/>
  <path class="st0" d="M487.47,327.98c0-83.09-67.6-150.68-150.68-150.68s-150.68,67.59-150.68,150.68,67.59,150.68,150.68,150.68,150.68-67.59,150.68-150.68ZM284.72,356.45h38.66c0,5.94,4.79,10.76,10.67,10.76h6.46c5.88,0,10.67-4.83,10.67-10.76s-4.79-10.77-10.67-10.77h-6.46c-27.2,0-49.33-22.17-49.33-49.42,0-21.6,13.91-40,33.23-46.71v-31.09h38.66v31.09c19.32,6.7,33.24,25.1,33.24,46.71h-38.67c0-5.93-4.79-10.76-10.67-10.76h-6.46c-5.88,0-10.67,4.83-10.67,10.76s4.79,10.77,10.67,10.77h6.46c27.21,0,49.34,22.17,49.34,49.42,0,21.6-13.92,40-33.24,46.7v31.06h-38.66v-31.06c-19.32-6.7-33.23-25.1-33.23-46.7Z"/>
  <path class="st0" d="M356.12,20.98v118.64c95.36,9.71,170.01,90.48,170.01,188.36s-74.65,178.64-170.01,188.36v144.02c19.37-12.38,65.5-43.64,112.11-88.28,35.54-34.03,63.94-68.82,84.42-103.39,26.27-44.35,39.59-88.57,39.59-131.44V127.83L356.12,20.98Z"/>
</svg>