<?xml version="1.0" encoding="UTF-8"?>
<svg id="Layer_1" xmlns="http://www.w3.org/2000/svg" version="1.1" viewBox="0 0 512 512">
  <!-- Generator: Adobe Illustrator 29.8.2, SVG Export Plug-In . SVG Version: 2.1.1 Build 3)  -->
  <defs>
    <style>
      .st0 {
        fill: #fd6909;
        fill-rule: evenodd;
      }
    </style>
  </defs>
  <path class="st0" d="M77.7,116.83v150.16c0,54.42,22.22,101.44,64.28,135.97,17.48,14.37,37.08,26.42,59.75,36.74l11.39-19.74c-21.11-9.66-39.29-20.86-55.46-34.12-36.35-29.84-55.54-70.46-55.54-117.48v-127.79c0-2.75,1.88-5.15,4.53-5.82,45.25-11.4,84.05-36.38,118.23-58.42,6.33-4.08,12.29-7.93,18.34-11.73,1.96-1.22,4.45-1.22,6.41,0,6,3.8,12.01,7.65,18.34,11.73,34.18,22.04,72.98,47.02,118.23,58.42,2.65.67,4.53,3.07,4.53,5.82v127.79c0,30.47-7.96,58.08-23.65,82.15l12.95,22.43c23.03-30.08,35.12-66.53,35.12-105.95V116.83l-30.1-7.59c-36.75-9.26-68.85-29.95-99.89-49.96-5.76-3.71-11.72-7.54-17.52-11.2l-21.24-13.31-21.15,13.31c-5.84,3.66-11.8,7.49-17.56,11.2-31.04,20.01-63.14,40.7-99.89,49.96l-30.1,7.59ZM339.22,227.18c-15.64-1.33-35.41,14.77-49.62,27.98-.57-.15-1.1-.38-1.39-.71-1.47-1.61-1.18-7.2-.94-11.7.16-2.51.29-5.1.25-7.72v-91.89c0-11.37-9.23-20.61-20.58-20.61-4.08,0-7.88,1.2-11.07,3.24-3.47-6.48-10.33-10.9-18.17-10.9s-14.7,4.42-18.17,10.9c-3.23-2.04-6.98-3.24-11.07-3.24-11.35,0-20.62,9.24-20.62,20.61v6.76c-2.61-1.22-5.51-1.92-8.62-1.92-11.35,0-20.62,9.25-20.62,20.62v66.1c-4.61,37.74,6.82,57.76,16.05,73.85,5.35,9.34,9.56,16.72,9.31,25.46l-.69,24.57c-.04,1.73.65,3.4,1.92,4.57,13.23,12.29,27.69,18.45,43.21,18.45,2.33,0,4.74-.15,7.15-.44l-16.38,28.36c-20.62-9.33-38.27-20.14-53.87-32.95-33.49-27.49-51.17-64.9-51.17-108.21v-123.17c45.17-12.33,83.39-36.96,117.25-58.77,5.19-3.34,10.13-6.53,15.03-9.64,4.94,3.11,9.88,6.3,15.07,9.64,33.86,21.81,72.08,46.44,117.25,58.77v123.17c0,25.9-6.21,49.52-18.46,70.37l-31.2-54.07c-.53-.9-1.1-1.75-1.71-2.55l23.07-20.76c7.64-6.88,8.74-18.26,2.57-26.48-3.44-4.55-8.18-7.21-13.78-7.69h0ZM310.15,457.97c-3.35,0-6.09,2.73-6.09,6.08s2.74,6.08,6.09,6.08,6.08-2.73,6.08-6.08-2.73-6.08-6.08-6.08ZM302.67,355.71c-.08-1.69.53-3.36,1.8-4.69,1.47-1.56,3.55-2.45,5.68-2.45s4.17.89,5.64,2.45c1.27,1.33,1.92,3,1.84,4.69l-3.39,61.89c-.16,3.07-3.19,3.31-4.08,3.31-.94,0-3.92-.24-4.08-3.31l-3.41-61.89ZM301.61,290.66c1.84-3.17,4.86-4.91,8.54-4.91s6.66,1.74,8.49,4.91l107.57,186.28c1.8,3.17,1.8,6.66,0,9.83-1.84,3.17-4.86,4.91-8.54,4.91h-215.1c-3.63,0-6.66-1.74-8.49-4.91-1.84-3.17-1.84-6.66,0-9.83l107.53-186.28ZM292.06,464.05c0-9.97,8.13-18.08,18.09-18.08s18.05,8.11,18.05,18.08-8.09,18.08-18.05,18.08-18.09-8.11-18.09-18.08ZM294.06,418.26l-3.39-61.9c-.25-5.01,1.55-9.84,5.1-13.59,3.72-3.94,8.94-6.2,14.38-6.2s10.62,2.26,14.38,6.2c3.55,3.75,5.35,8.58,5.06,13.59l-3.39,61.9c-.45,8.49-7.23,14.65-16.05,14.65s-15.6-6.16-16.09-14.65ZM170.56,235.82c.04-.24.04-.49.04-.74v-66.48c0-4.75,3.88-8.62,8.62-8.62s8.62,3.87,8.62,8.62v44.41c0,3.31,2.7,6,6,6s6-2.69,6-6v-69.87c0-4.75,3.88-8.61,8.62-8.61s8.62,3.86,8.62,8.61v69.87c0,3.31,2.7,6,6,6s6-2.69,6-6v-77.53c0-4.75,3.84-8.61,8.62-8.61s8.62,3.86,8.62,8.61v77.26c0,3.32,2.7,6,6,6s6-2.68,6-6v-69.6c0-4.75,3.84-8.61,8.62-8.61s8.58,3.86,8.58,8.61v92.04c.04,2.2-.08,4.59-.2,6.9-.41,7.44-.86,15.13,4.04,20.47,2.82,3.07,6.86,4.72,12.13,4.89,1.55.08,3.14-.53,4.29-1.63,24.38-22.96,36.51-27.18,42.43-26.67,2.21.19,3.8,1.1,5.19,2.94,2.41,3.21,2,7.66-.98,10.34l-25.03,22.5c-2.25-.77-4.7-1.17-7.23-1.17-8,0-14.91,3.98-18.91,10.91l-47.7,82.62c-17.68,5.23-33.53,1.58-48.23-11.14l.65-21.8c.33-12.1-5.15-21.64-10.9-31.74-8.83-15.37-18.76-32.77-14.51-66.78h0Z"/>
</svg>