<?xml version="1.0" encoding="UTF-8"?>
<svg id="Layer_1" xmlns="http://www.w3.org/2000/svg" version="1.1" viewBox="0 0 510 510">
  <!-- Generator: Adobe Illustrator 29.8.2, SVG Export Plug-In . SVG Version: 2.1.1 Build 3)  -->
  <defs>
    <style>
      .st0 {
        fill: #fd6909;
        fill-rule: evenodd;
      }
    </style>
  </defs>
  <g id="Artboard401">
    <path class="st0" d="M324.3,65.1l48.36,48.36h-48.36v-48.36ZM266.44,398.76l23.84,23.87h0c9.17,9.18,24.38,9.18,33.55,0l.04-.04,10.86-10.92c6.86-6.86,8.59-17.03,5.17-25.57,1.51-2.01,2.95-3.91,4.34-5.72l28.42,29.81v41.68h-32.9l-.24-1.08c-2.38-10.83-12-18.15-23.08-18.15h-83.88c-11.08,0-20.7,7.32-23.08,18.17,0,0-.09.38-.24,1.06H74.24V187.36c.97,0,1.94-.09,2.9-.27,41.62-7.71,72.34-44.49,72.34-86.89v-35.11h158.82v48.36c0,8.84,7.16,16,16,16h48.36v95.11c-8.89-4.52-20.11-3.08-27.52,4.33-.01.01-.02.02-.04.04l-10.86,10.93c-6.86,6.86-8.59,17.02-5.17,25.55-2.35,3.11-4.53,5.96-6.59,8.61,0-.1,0-.2,0-.29,0-4.42-3.58-8-8-8h-82.65c-4.42,0-8,3.58-8,8s3.58,8,8,8h82.65c.71,0,1.39-.09,2.05-.27-12.43,15.1-21.95,23.45-42.41,38.9-8.56-3.39-18.79-1.66-25.64,5.19l-10.86,10.86c-5.49,5.49-7.71,13.07-6.65,20.25-4.01.43-7.14,3.83-7.14,7.95,0,4.42,3.58,8,8,8h8.5l10.11,10.13h-18.62c-4.42,0-8,3.58-8,8s3.58,8,8,8h34.6ZM231.84,190.87h82.65c4.42,0,8-3.59,8-8s-3.58-8-8-8h-82.65c-4.42,0-8,3.59-8,8s3.58,8,8,8h0ZM231.84,217h53.8c4.42,0,8-3.59,8-8s-3.58-8-8-8h-53.8c-4.42,0-8,3.59-8,8s3.58,8,8,8h0ZM134.54,345.84c-3.62,0-6.59,2.98-6.59,6.61v50.48c0,3.62,2.96,6.59,6.59,6.59h50.49c3.62,0,6.59-2.96,6.59-6.59v-50.48c0-3.62-2.96-6.61-6.59-6.61h-50.49ZM140.69,382.05c-3.12-3.12-3.13-8.19-.01-11.31s8.19-3.13,11.31-.01l4.79,4.78,10.2-12.61c2.78-3.43,7.82-3.97,11.25-1.19,3.43,2.78,3.97,7.82,1.19,11.25l-15.78,19.52c-1.43,1.76-3.53,2.84-5.79,2.96-2.26.12-4.47-.73-6.08-2.33l-11.07-11.05ZM231.84,307.86h53.8c4.42,0,8-3.58,8-8s-3.58-8-8-8h-53.8c-4.42,0-8,3.58-8,8s3.58,8,8,8ZM134.54,164.1c-3.62,0-6.59,2.96-6.59,6.59v50.49c0,3.62,2.96,6.59,6.59,6.59h50.49c3.62,0,6.59-2.96,6.59-6.59v-50.49c0-3.62-2.96-6.59-6.59-6.59h-50.49ZM140.69,200.29c-3.12-3.12-3.13-8.19-.01-11.31s8.19-3.13,11.31-.01l4.79,4.78,10.2-12.61c2.78-3.43,7.82-3.97,11.25-1.19,3.43,2.78,3.97,7.82,1.19,11.25l-15.78,19.52c-1.43,1.76-3.53,2.84-5.79,2.96-2.26.12-4.47-.73-6.08-2.33l-11.07-11.05ZM134.54,254.97c-3.62,0-6.59,2.96-6.59,6.59v50.49c0,3.62,2.96,6.59,6.59,6.59h50.49c3.62,0,6.59-2.96,6.59-6.59v-50.49c0-3.62-2.96-6.59-6.59-6.59h-50.49ZM140.69,291.15c-3.12-3.12-3.12-8.19,0-11.31,3.12-3.12,8.19-3.12,11.31,0l4.79,4.79,10.19-12.6c2.78-3.43,7.82-3.97,11.25-1.19,3.43,2.78,3.97,7.82,1.19,11.25l-15.78,19.52c-1.43,1.76-3.53,2.84-5.8,2.96-2.26.12-4.48-.73-6.08-2.33l-11.08-11.07ZM74.23,23.72l59.25,25.37v51.11c0,34.73-25.17,64.85-59.25,71.16-34.07-6.31-59.23-36.43-59.23-71.16v-51.11l59.23-25.37ZM44.16,100.85l20.15,20.11c1.6,1.6,3.81,2.45,6.08,2.33,2.26-.12,4.37-1.19,5.79-2.96l28.72-35.51c2.78-3.43,2.24-8.47-1.19-11.25-3.43-2.78-8.47-2.24-11.25,1.19l-23.13,28.61-13.86-13.84c-3.12-3.12-8.19-3.11-11.31.01s-3.11,8.19.01,11.31ZM329.81,480.34h-110.61l5.9-26.06c.75-3.46,3.94-5.63,7.46-5.63h83.88c3.53,0,6.72,2.17,7.46,5.63l5.9,26.06ZM354.3,367.74c.34-.4.67-.8,1.01-1.2,6.47-7.58,12.36-13.48,19.92-19.93l.02-.02c.39-.33.79-.66,1.18-.99l119.96,114.31c2.24,2.1,3.39,4.68,3.6,7.6.14,2.92-.75,5.43-2.78,7.4l-13.57,13.57c-1.97,2.04-4.48,2.92-7.4,2.78-2.99-.14-5.5-1.36-7.6-3.6l-114.34-119.92ZM356.46,240.22c2.99-2.99,7.87-2.99,10.86,0l52.66,52.73c2.99,2.99,2.99,7.87,0,10.86l-10.86,10.86c-2.99,2.99-7.87,2.99-10.86,0l-52.66-52.66c-2.99-2.99-2.99-7.87,0-10.86l10.86-10.93ZM259.8,336.88c2.99-2.99,7.94-2.99,10.92,0l52.66,52.66c2.99,2.98,2.99,7.87,0,10.86l-10.86,10.93c-2.99,2.99-7.94,2.99-10.93,0l-52.66-52.73c-2.99-2.99-2.99-7.87,0-10.86l10.86-10.86ZM287.1,330.62c24.6-18.72,33.48-27.6,52.24-52.25l42.54,42.54c-6.63,5.05-12.11,9.37-16.99,13.48-8.28,7.06-14.73,13.51-21.78,21.78-4.11,4.87-8.43,10.35-13.48,16.99l-42.54-42.54Z"/>
  </g>
</svg>