<?xml version="1.0" encoding="UTF-8"?>
<svg id="Layer_1" xmlns="http://www.w3.org/2000/svg" version="1.1" viewBox="0 0 60 60">
  <!-- Generator: Adobe Illustrator 29.1.0, SVG Export Plug-In . SVG Version: 2.1.0 Build 142)  -->
  <defs>
    <style>
      .st0 {
        fill: #eb7230;
        fill-rule: evenodd;
      }
    </style>
  </defs>
  <g id="Layer_11" data-name="Layer_1">
    <g>
      <path class="st0" d="M14.5,12.9v1.5c.6,1,3.4,2,7,2s6.5-1,7-2.1v-1.5c-1.5,1.1-4.3,1.6-7,1.6s-5.5-.6-7-1.6h0Z"/>
      <path class="st0" d="M28.6,9.3c-.1-1.9-3.2-3.5-7-3.5s-6.9,1.6-7,3.5h0v2.2c.6,1,3.4,2,7,2s6.5-1,7-2.1v-2.3h0v.2Z"/>
      <path class="st0" d="M14.5,15.8v30.6h0c0,1.4,3.1,2.6,7,2.6s7-1.2,7-2.6,0,0,0,0h0V15.8c-1.5,1.1-4.3,1.6-7,1.6s-5.5-.6-7-1.6Z"/>
    </g>
    <g>
      <path class="st0" d="M32.7,20.1v1.5c.6,1,3.4,2,7,2s6.5-1,7-2.1v-1.5c-1.5,1.1-4.3,1.6-7,1.6s-5.5-.6-7-1.6h0Z"/>
      <path class="st0" d="M46.8,16.4c0-1.9-3.2-3.5-7-3.5s-6.9,1.6-7,3.5h0v2.2c.6,1,3.4,2,7,2s6.5-1,7-2.1v-2.3h0v.2Z"/>
      <path class="st0" d="M32.7,23v30.6h0c0,1.4,3.1,2.6,7,2.6s7-1.2,7-2.6,0,0,0,0h0v-30.6c-1.5,1.1-4.3,1.6-7,1.6s-5.5-.6-7-1.6Z"/>
    </g>
  </g>
</svg>