<?xml version="1.0" encoding="UTF-8"?>
<svg id="Layer_1" xmlns="http://www.w3.org/2000/svg" version="1.1" viewBox="0 0 60 60">
  <!-- Generator: Adobe Illustrator 29.1.0, SVG Export Plug-In . SVG Version: 2.1.0 Build 142)  -->
  <defs>
    <style>
      .st0 {
        fill: #eb7230;
        fill-rule: evenodd;
      }
    </style>
  </defs>
  <g id="Layer_11" data-name="Layer_1">
    <g>
      <path class="st0" d="M29.1,26.5c1.9,0,3.7.9,4.8,2.4,0,0,.2.1.3.1h5.7c.2,0,.4-.2.4-.4v-5.6c0-1.3-1.1-2.4-2.4-2.4h-17.6c-1.3,0-2.4,1.1-2.4,2.4v32.8c0,1.3,1.1,2.4,2.4,2.4h17.6c1.3,0,2.4-1.1,2.4-2.4v-19.4c0-.2-.2-.4-.4-.4h-5.7c0,0-.2,0-.3,0-1.1,1.5-2.9,2.4-4.8,2.4-3.3,0-6.1-2.7-6.1-6.1s2.7-6,6.1-6h0ZM34.6,42.1h2.7c.8,0,1.4.6,1.4,1.4v2.6c0,.8-.6,1.4-1.4,1.4h-2.7c-.8,0-1.4-.6-1.4-1.4v-2.6c0-.8.6-1.4,1.4-1.4ZM34.6,49.6h2.7c.8,0,1.4.6,1.4,1.4v2.6c0,.8-.6,1.4-1.4,1.4h-2.7c-.8,0-1.4-.6-1.4-1.4v-2.6c0-.8.6-1.4,1.4-1.4ZM30.5,42.1c.8,0,1.4.6,1.4,1.4v2.6c0,.8-.6,1.4-1.4,1.4h-2.7c-.8,0-1.4-.6-1.4-1.4v-2.6c0-.8.6-1.4,1.4-1.4h2.7ZM27.8,49.6h2.7c.8,0,1.4.6,1.4,1.4v2.6c0,.8-.6,1.4-1.4,1.4h-2.7c-.8,0-1.4-.6-1.4-1.4v-2.6c0-.8.6-1.4,1.4-1.4ZM23.7,49.6c.8,0,1.4.6,1.4,1.4v2.6c0,.8-.6,1.4-1.4,1.4h-2.7c-.8,0-1.4-.6-1.4-1.4v-2.6c0-.8.6-1.4,1.4-1.4h2.7ZM23.7,42.1c.8,0,1.4.6,1.4,1.4v2.6c0,.8-.6,1.4-1.4,1.4h-2.7c-.8,0-1.4-.6-1.4-1.4v-2.6c0-.8.6-1.4,1.4-1.4h2.7Z"/>
      <g>
        <path class="st0" d="M29.1,36.8c1.5,0,2.9-.8,3.6-2.1.2-.3.5-.4.8-.4h14.5c.9,0,1.7-.8,1.7-1.7s-.8-1.7-1.7-1.7h-14.5c-.3,0-.6-.2-.8-.5-.8-1.3-2.2-2.1-3.6-2.1-2.3,0-4.2,1.9-4.2,4.2s1.9,4.2,4.2,4.2h0Z"/>
        <path class="st0" d="M23.3,44.3c0-.2-.2-.4-.4-.4h-1.2c-.2,0-.4.2-.4.4v1.1c0,.2.2.4.4.4h1.2c.2,0,.4-.2.4-.4v-1.1Z"/>
        <path class="st0" d="M22.9,51.4h-1.2c-.2,0-.4.2-.4.4v1.1c0,.2.2.4.4.4h1.2c.2,0,.4-.2.4-.4v-1.1c0-.2-.2-.4-.4-.4Z"/>
        <path class="st0" d="M28.1,51.8v1.1c0,.2.2.4.4.4h1.2c.2,0,.4-.2.4-.4v-1.1c0-.2-.2-.4-.4-.4h-1.2c-.2,0-.4.2-.4.4Z"/>
        <path class="st0" d="M28.5,45.7h1.2c.2,0,.4-.2.4-.4v-1.1c0-.2-.2-.4-.4-.4h-1.2c-.2,0-.4.2-.4.4v1.1c0,.2.2.4.4.4Z"/>
        <path class="st0" d="M35,44.3v1.1c0,.2.2.4.4.4h1.2c.2,0,.4-.2.4-.4v-1.1c0-.2-.2-.4-.4-.4h-1.2c-.2,0-.4.2-.4.4Z"/>
        <path class="st0" d="M36.6,51.4h-1.2c-.2,0-.4.2-.4.4v1.1c0,.2.2.4.4.4h1.2c.2,0,.4-.2.4-.4v-1.1c0-.2-.2-.4-.4-.4Z"/>
        <path class="st0" d="M24.2,12c2.7-2.7,7.2-2.7,9.9,0,.2.2.4.3.6.3.8,0,1.2-1,.6-1.6-3.4-3.4-9-3.4-12.5,0-.4.4-.4.9,0,1.3.4.4.9.4,1.3,0h.1Z"/>
        <path class="st0" d="M31.2,15.4c0-1.2-1-2.1-2.1-2.1s-2.1,1-2.1,2.1,1,2.1,2.1,2.1,2.1-1,2.1-2.1ZM28.8,15.4c0-.4.6-.4.6,0s-.6.4-.6,0Z"/>
        <path class="st0" d="M19.9,7.7c5.1-5.1,13.3-5.1,18.5,0,.4.4.9.4,1.3,0,.4-.4.4-.9,0-1.3-2.6-2.6-6.1-4.2-9.7-4.3h-1.5c-3.7.2-7.1,1.7-9.7,4.3-.4.4-.4.9,0,1.3.4.4.9.4,1.3,0h-.2Z"/>
      </g>
    </g>
  </g>
</svg>