<?xml version="1.0" encoding="UTF-8"?>
<svg id="Layer_1" xmlns="http://www.w3.org/2000/svg" version="1.1" viewBox="0 0 60 60">
  <!-- Generator: Adobe Illustrator 29.1.0, SVG Export Plug-In . SVG Version: 2.1.0 Build 142)  -->
  <defs>
    <style>
      .st0 {
        fill: #eb7230;
      }
    </style>
  </defs>
  <g id="Layer_11" data-name="Layer_1">
    <g>
      <path class="st0" d="M.4,11.8c.3-.4.6-.6,1.1-.6,4.3,0,8.5,0,12.8,0s1.1.3,1.1,1.1v3.6c1.1-.4,2.1-.5,3,0,.6.4,1,.4,1.6,0,1.1-.7,2.5-.6,3.6.3.2.2.4.2.6,0,1.3-1,2.8-1,4.1,0,.2.2.3.2.5,0,1.4-1.1,2.8-1.1,4.2,0,.2.2.3.2.5,0,1-.9,2.2-1,3.4-.5,1.2.6,1.8,1.6,1.8,3s0,1.1,0,1.7c0,.4,0,.6.5.5,1,0,2.1,0,3.1,0,.7,0,1,.3,1,1,0,1.2,0,2.3,0,3.5,0,.7-.3,1-1,1-1.1,0-2.1,0-3.2,0-.4,0-.5.1-.5.5,0,3.1,0,6.1,0,9.2,0,.6-.2,1-.8,1.2-.7-.2-.9-.4-.9-1.2v-16.8c0-.2,0-.4,0-.6,0-.9-.9-1.5-1.8-1.3-.8.2-1.1.7-1.1,1.7v31.3c0,1.1,0,2.1,0,3.2,0,.5.2.6.6.6.6,0,1.1,0,1.7,0,.5,0,.7-.1.7-.7,0-4.2,0-8.4,0-12.6s.2-1,.9-1.2c.6,0,.8.5.8,1,0,1.2,0,2.4,0,3.6,0,.4,0,.6.5.6,1,0,2.1,0,3.1,0,.7,0,1,.3,1,1,0,1.2,0,2.3,0,3.5,0,.7-.3,1-1,1-1.1,0-2.2,0-3.2,0-.4,0-.5,0-.5.5,0,1,0,1.9,0,2.9,0,.3,0,.5.4.4,3,0,6,0,8.9,0s.4,0,.4-.4c0-.1,0-.3,0-.4V20.2c0-.8.2-1.1.9-1.2.7.2.8.4.8,1.2v33.5c0,.3,0,.3.3.3,1.8,0,3.7,0,5.5,0,.4,0,.7,0,1.1,0,.5,0,.7-.1.7-.6,0-13,0-25.9,0-38.9,0-.5.2-1.3-.1-1.5-.4-.3-1.1,0-1.6,0-1.8,0-3.7,0-5.5,0-.3,0-.4,0-.4.4,0,.8,0,1.6,0,2.4,0,.6-.2,1-.8,1.1-.7-.2-.9-.4-.9-1.1v-3.3c0-.8.3-1.1,1.1-1.1h8.8c.5,0,.9.2,1.1.6v47.2c-.3.5-.7.6-1.2.6-18.9,0-37.8,0-56.7,0s-.9-.1-1.2-.6v-28.7c.2-.3.5-.6.9-.6.7.1.8.6.8,1.2v22.5c0,.1,0,.3,0,.4,0,.3,0,.4.4.4,3.2,0,6.3,0,9.5,0,.3,0,.7,0,1,0,.6,0,.7-.1.7-.7,0-12.9,0-25.9,0-38.8,0-.5.2-1.3,0-1.6-.4-.3-1.1,0-1.7,0-3.1,0-6.1,0-9.2,0-.5,0-.7,0-.7.6,0,4.2,0,8.4,0,12.6,0,.6-.2,1-.8,1.2-.4,0-.7-.3-.9-.6v-15h0ZM56.1,55.8c-.3,0-.5,0-.8,0H3.5c-1.4,0-1.3,0-1.3,1.3,0,.6.2.7.7.7,17.5,0,35.1,0,52.6,0s.4,0,.6,0c.5,0,.9,0,1.4,0,.3,0,.4,0,.4-.4.1-1.6.1-1.6-1.5-1.6,0,0-.2,0-.2,0h0ZM15.5,36.2v17.4c0,.4.1.5.5.5.6,0,1.2,0,1.7,0,.6,0,.7-.1.7-.7,0-11.4,0-22.7,0-34.1s0-.5,0-.7c-.1-.8-.8-1.3-1.5-1.3-.7,0-1.4.6-1.4,1.4,0,.2,0,.4,0,.6v16.9h0ZM32.4,36.3v-17c0-.2,0-.4,0-.6-.1-1-1.1-1.6-2-1.2-.8.3-.9,1-.9,1.8v34.2h0c0,.5,0,.7.5.7.6,0,1.1,0,1.7,0,.5,0,.8-.2.8-.7v-17.1h0ZM20.1,36.2v1.9c0,5.1,0,10.2,0,15.3,0,.6.2.7.7.7.5,0,1,0,1.5,0,.6,0,.7-.1.7-.7,0-11.4,0-22.8,0-34.1s0-.4,0-.6c-.1-1-1.1-1.6-2-1.2-.6.2-.9.7-.9,1.6v17.1h0ZM27.7,36.2v-17.5c0-.7-.6-1.2-1.3-1.3-.6,0-1.3.3-1.5,1-.1.3,0,.6,0,.9v34.5c0,.3.1.4.4.4.6,0,1.2,0,1.8,0,.6,0,.7-.1.7-.7,0-5.8,0-11.5,0-17.2h0ZM40.2,24.9c1.6,0,1.6,0,1.5-1.6,0-.4-.1-.5-.5-.4-.6,0-1.3,0-2,0-.4,0-.6,0-.5.5,0,.5-.2,1.1.1,1.4.3.2.9,0,1.3.1h0ZM40.2,46.6c-.4,0-1-.2-1.3,0-.3.3,0,.9,0,1.4,0,.4,0,.6.5.5.6,0,1.3,0,2,0,.4,0,.5,0,.5-.5q0-1.5-1.6-1.5h0Z"/>
      <path class="st0" d="M44.3.5c.8.8.6,1.4-.5,1.8-2.4.8-4,2.4-4.7,4.8-.1.5-.4.8-.9.8-.6,0-1-.5-.8-1.3.9-2.9,2.8-4.9,5.6-6,.2,0,.4,0,.6-.2h.7,0Z"/>
      <path class="st0" d="M46.3,4.9c0,.4-.3.7-.7.7-1.7.3-2.7,1.3-3,3,0,.5-.5.7-1,.7-.5,0-.7-.5-.7-1,.2-2.2,2.3-4.2,4.4-4.4.6,0,1,.3,1,.9h0Z"/>
      <path class="st0" d="M45.9,10.3c-.7,0-1.3-.6-1.3-1.3s.6-1.3,1.3-1.3c.7,0,1.3.6,1.3,1.3,0,.7-.6,1.3-1.3,1.3Z"/>
      <path class="st0" d="M11.7,19.9v3.9c0,.8-.3,1.1-1.1,1.1h-5.4c-.7,0-1.1-.3-1.1-1v-7.8c0-.7.3-1.1,1.1-1.1h5.4c.8,0,1.1.3,1.1,1.1v3.9h0ZM10,19.9v-2.8c0-.3,0-.5-.4-.5-1.1,0-2.2,0-3.2,0-.4,0-.5.2-.5.5,0,1.8,0,3.7,0,5.5,0,.3,0,.5.5.5,1.1,0,2.2,0,3.2,0,.3,0,.5,0,.5-.5,0-.9,0-1.8,0-2.8h0Z"/>
      <path class="st0" d="M8,26.8h2.7c.8,0,1.1.3,1.1,1.1v3.3c0,.7-.3,1.1-1,1.1h-5.5c-.7,0-1-.3-1.1-1.1v-3.3c0-.8.3-1.1,1.1-1.1h2.7ZM8,30.6h.5c1.7,0,1.6,0,1.5-1.7,0-.3-.1-.4-.4-.4-1.1,0-2.2,0-3.3,0-.4,0-.4.1-.4.4,0,.4,0,.7,0,1.1,0,.4,0,.5.5.5.5,0,1.1,0,1.6,0h0Z"/>
      <path class="st0" d="M8,52.1c-.6,0-1.2,0-1.8,0-.5,0-.9-.4-.9-.8,0-.5.3-.9.8-.9,1.3,0,2.5,0,3.8,0,.5,0,.9.4.8.9,0,.5-.4.8-.9.8-.6,0-1.2,0-1.8,0h0Z"/>
      <path class="st0" d="M7.9,48.4h-1.7c-.6,0-1-.4-1-.9s.4-.8,1-.9c1.2,0,2.4,0,3.6,0,.6,0,.9.4.9.9s-.4.8-1,.8h-1.8Z"/>
    </g>
  </g>
</svg>