<?xml version="1.0" encoding="UTF-8"?>
<svg id="Layer_1" xmlns="http://www.w3.org/2000/svg" version="1.1" viewBox="0 0 60 60">
  <!-- Generator: Adobe Illustrator 29.1.0, SVG Export Plug-In . SVG Version: 2.1.0 Build 142)  -->
  <defs>
    <style>
      .st0 {
        fill: #eb7230;
      }
    </style>
  </defs>
  <path class="st0" d="M56.5,38.6c.6,0,.9.5.9,1.1v17.6c0,1.4-.9,2.2-2.3,2.2h-9.8c-1.5,0-2.4-.8-2.4-2.4v-16.2c0-.5-.1-.7-.6-.7-1.7,0-3.4,0-5-.4-3.2-.9-5.6-2.9-7.1-5.9,0,0-.1-.2-.2-.4-.5.9-.9,1.7-1.5,2.4-2.1,2.6-4.9,4.1-8.3,4.2-.8,0-1.7,0-2.5,0-.5,0-.6.1-.6.6,0,5.4,0,10.7,0,16.1,0,.3,0,.7,0,1-.2.9-1,1.5-2,1.5-3.4,0-6.9,0-10.3,0-1,0-1.8-.8-2-1.8,0-.3,0-.6,0-.9V4c0-2.1.4-2.7,2.3-3.5h9.9s0,0,.1,0c1.3.4,2.1,1.3,2.1,2.7,0,.7,0,1.3,0,2,0,1.6,0,3.1,0,4.7,0,.2,0,.4,0,.6v27.6c0,.4,0,.6.5.5.9,0,1.7,0,2.6,0,4.6-.1,8.7-3.9,8.8-8.6.2-5.6,0-11.3,0-16.9,0-1.5-1.1-2.5-2.6-2.5-1.8,0-3.6,0-5.4,0-.6,0-1-.2-1.2-.8.2-.8.4-.9,1.2-.9,1.7,0,3.3,0,5,0,1.4,0,2.7.4,3.6,1.5.2.2.3.2.4,0,1-1.1,2.2-1.5,3.6-1.5,2.8,0,5.7,0,8.5,0,.5,0,.6-.2.6-.6,0-1.7,0-3.3,0-5s.6-2.3,1.9-2.8c0,0,.2,0,.2-.1h10c.6.2,1.1.4,1.5.9.6.6.7,1.4.7,2.2v31.6c0,.7-.2.9-.9,1.1-.7-.2-.8-.4-.8-1.1,0-1.5,0-3,0-4.4,0-.3,0-.5-.5-.5-.7,0-1.5,0-2.2,0-2.6,0-5.2,0-7.7,0-.5,0-.6,0-.6.6,0,5.4,0,10.8,0,16.2s-.1.8.8.8h4.6c.4,0,.7.2.9.5.1.4,0,.7-.2.9-.2.2-.5.2-.8.2h-4.8c-.2,0-.5,0-.5.3,0,1.8,0,3.6,0,5.4,0,.7,0,1.3,0,2,0,.4.2.5.5.5h9.9c.4,0,.6-.2.6-.6v-3.5c0-.3,0-.4-.4-.4-.8,0-1.5,0-2.2,0s-1.8,0-2.7,0c-.6,0-1-.3-1-.8,0-.5.4-.9,1-.9.9,0,1.8,0,2.7,0,.8,0,1.5,0,2.2,0,.3,0,.4-.1.4-.4v-5.1c0-.3,0-.4-.4-.4-.8,0-1.5,0-2.2,0-.9,0-1.8,0-2.7,0-.7,0-1-.3-1-.9,0-.5.4-.8,1-.8.9,0,1.8,0,2.7,0,.7,0,1.4,0,2.1,0,.4,0,.5-.1.5-.5,0-1.3,0-2.5,0-3.8,0-.7.2-.9.8-1.1h0ZM53,5.2c.7,0,1.5,0,2.2,0,.3,0,.4-.1.4-.4,0-.5,0-1.1,0-1.6,0-.7-.4-1.1-1.1-1.1-.6,0-1.1,0-1.7,0-2.3,0-4.6,0-7,0-.7,0-1.1.4-1.1,1.1,0,.5,0,1,0,1.6,0,.3.1.4.4.4,2.6,0,5.3,0,7.9,0h0ZM53,24.9c-2.6-.2-5.3,0-7.9,0-.3,0-.4.2-.4.5,0,1,0,1.9,0,2.9,0,.3.1.4.4.4,2.6,0,5.3,0,7.9,0,.7,0,1.5,0,2.2,0,.4,0,.5-.1.5-.5,0-.9,0-1.8,0-2.8,0-.4-.2-.5-.5-.5-.7,0-1.4,0-2.1,0h0ZM53,7c-2.7,0-5.4,0-8,0-.4,0-.3.2-.3.5v15.1c0,.2-.1.6.3.6,2.7,0,5.4,0,8,0,.8,0,1.5,0,2.2,0,.3,0,.4-.2.4-.4V7.4c0-.3,0-.4-.4-.4-.8,0-1.5,0-2.2,0h0ZM40.2,38.6c.7,0,1.4,0,2.1,0,.5,0,.7-.1.7-.6,0-8.9,0-17.8,0-26.6v-.3c0-.3,0-.4-.4-.4-.8,0-1.6,0-2.4,0-2.1,0-4.3,0-6.4,0s-2.9,1-2.9,2.9v15.6c0,.7,0,1.3.2,2,.8,4.3,4.9,7.6,9.1,7.5h0ZM15.4,39.1v-8.2c0-.4,0-.6-.6-.6-3.3,0-6.6,0-9.9,0-.5,0-.6.1-.6.6,0,3.9,0,7.9,0,11.8s.4,1.3,1.3,1.3c1.4,0,2.8,0,4.2,0,.5,0,.8.3.9.8,0,.5-.3.8-.8.9-.2,0-.3,0-.5,0-1.5,0-3,0-4.5,0-.4,0-.5,0-.5.5,0,1.7,0,3.3,0,5,0,.4,0,.5.5.5,1.6,0,3.2,0,4.8,0,.7,0,1.1.3,1.1.8,0,.6-.4.9-1.1.9-1.6,0-3.1,0-4.7,0-.4,0-.6,0-.6.6,0,1,0,2,0,3.1,0,.7,0,.8.8.8h9.5c.7,0,.7,0,.7-.8v-6.9c0-.4,0-.5-.5-.5-1.6,0-3.2,0-4.8,0-.7,0-1.1-.4-1.1-.9s.4-.8,1.1-.8c1.6,0,3.2,0,4.7,0,.4,0,.5-.1.5-.5,0-2.8,0-5.5,0-8.3h0ZM4.4,15v7.6c0,.4,0,.6.5.6,3.3,0,6.6,0,9.9,0,.5,0,.5-.2.5-.6,0-5,0-10,0-15.1,0-.4,0-.5-.5-.5-3.3,0-6.7,0-10,0-.4,0-.5.1-.5.5,0,2.5,0,5,0,7.5h0ZM9.8,28.6h5c.4,0,.5,0,.5-.5,0-.9,0-1.8,0-2.8,0-.4-.1-.5-.5-.5-3.3,0-6.7,0-10,0-.4,0-.5.2-.5.5,0,.9,0,1.8,0,2.7,0,.4.1.6.6.5,1.6,0,3.3,0,4.9,0h0ZM9.8,5.3c1.7,0,3.3,0,5,0,.5,0,.6-.2.6-.6,0-.5,0-1,0-1.4,0-.6-.4-1.1-1.1-1.1-2.9,0-5.9,0-8.8,0-.6,0-1,.4-1,1.1,0,.5,0,1,0,1.4,0,.4.1.6.6.6,1.6,0,3.2,0,4.8,0h0Z"/>
  <path class="st0" d="M12.7,14.8c0,.8,0,1.6,0,2.4,0,1-.7,1.7-1.8,1.7-.7,0-1.4,0-2.1,0-.9,0-1.7-.7-1.7-1.6,0-1.7,0-3.4,0-5,0-.9.7-1.6,1.7-1.7.8,0,1.5,0,2.2,0,.9,0,1.7.8,1.7,1.7,0,.8,0,1.7,0,2.5h0ZM8.8,14.7v.9c0,1.7,0,1.6,1.7,1.6.3,0,.5,0,.4-.4,0-1.3,0-2.7,0-4,0-.3,0-.4-.4-.4-.4,0-.9,0-1.3,0-.3,0-.4.1-.4.4,0,.7,0,1.3,0,2h0Z"/>
  <path class="st0" d="M52.9,12v5.5c-.4,1-.9,1.4-1.9,1.4s-1.3,0-2,0c-1,0-1.7-.7-1.7-1.7,0-1.6,0-3.3,0-4.9,0-1,.7-1.7,1.7-1.7.8,0,1.5,0,2.2,0,.9,0,1.4.5,1.7,1.4h0ZM51.2,14.8v-2.1c0-.3,0-.4-.4-.4-.4,0-.8,0-1.3,0-.4,0-.5,0-.5.5,0,.9,0,1.9,0,2.8,0,1.6,0,1.6,1.6,1.6.4,0,.5,0,.5-.5,0-.6,0-1.3,0-1.9h0Z"/>
</svg>