<?xml version="1.0" encoding="UTF-8"?>
<svg id="Layer_1" xmlns="http://www.w3.org/2000/svg" version="1.1" viewBox="0 0 60 60">
  <!-- Generator: Adobe Illustrator 29.1.0, SVG Export Plug-In . SVG Version: 2.1.0 Build 142)  -->
  <defs>
    <style>
      .st0 {
        fill: #eb7230;
      }
    </style>
  </defs>
  <g id="Layer_11" data-name="Layer_1">
    <g>
      <path class="st0" d="M17.6,3.4c9.7,0,17.4,7.8,17.4,17.4,0,9.6-7.8,17.3-17.5,17.3C7.9,38.1,0,30.3.2,20.7.2,11.1,8,3.4,17.6,3.4h0ZM17.6,32.7c6.6,0,12-5.3,12-11.8,0-6.6-5.3-11.9-11.9-12-6.6,0-12,5.3-12.1,11.9,0,6.6,5.3,11.9,12,12h0Z"/>
      <path class="st0" d="M3,51.2c2.6-4.4,5-8.7,7.6-13.1,2.3.9,4.6,1.3,7,1.3,2.4,0,4.8-.4,7.1-1.4,2.5,4.4,5,8.7,7.6,13.1H3ZM19.4,46.2v-1.3h-3.4v1.3h3.4Z"/>
      <path class="st0" d="M3.3,52.6h28.7c-1.1,1.3-2.1,2.6-3.1,3.8-.1.1-.4.2-.6.2H7.1c-.2,0-.6-.1-.7-.3-1-1.2-2-2.4-3.1-3.6h0Z"/>
      <path class="st0" d="M53.1,37.1c-.5-.5-.9-1-1.5-1.5,4-4.1,5.9-9,5.9-14.8,0-5.7-2-10.7-6-14.8.5-.5,1-.9,1.5-1.4,8.9,8,9,24.2,0,32.5Z"/>
      <path class="st0" d="M47,10.3c.5-.5,1-1,1.5-1.5,6.3,5.8,7.2,16.9,0,23.9-.5-.5-1-1-1.5-1.5,6.3-6.8,5.1-15.7,0-20.9h0Z"/>
      <path class="st0" d="M42.9,26.8c3.1-3.3,3.1-8.4-.2-12,.5-.5,1-1,1.4-1.5,4.1,3.9,4.4,10.9.2,15-.5-.5-.9-1-1.4-1.5Z"/>
      <path class="st0" d="M39.8,17.8c1.7,1.6,1.7,4.5,0,6.1-.5-.5-.9-1-1.5-1.5.8-1,.7-2.1-.1-3.1.5-.5,1-1,1.5-1.5h0Z"/>
      <path class="st0" d="M28.3,20.8c0,5.8-4.7,10.6-10.6,10.6-5.9,0-10.7-4.7-10.7-10.5,0-5.8,4.7-10.6,10.6-10.6,5.9,0,10.7,4.6,10.7,10.5h0ZM21.3,20.8c0-2-1.6-3.7-3.7-3.7s-3.7,1.6-3.7,3.6,1.7,3.7,3.7,3.7c2,0,3.7-1.7,3.7-3.7h0Z"/>
    </g>
  </g>
</svg>