<?xml version="1.0" encoding="UTF-8"?>
<svg id="Layer_1" xmlns="http://www.w3.org/2000/svg" version="1.1" viewBox="0 0 60 60">
  <!-- Generator: Adobe Illustrator 29.1.0, SVG Export Plug-In . SVG Version: 2.1.0 Build 142)  -->
  <defs>
    <style>
      .st0 {
        fill: #eb7230;
      }
    </style>
  </defs>
  <g id="Layer_11" data-name="Layer_1">
    <g>
      <path class="st0" d="M6.6,43.9c4.6-4.5,6.5-8.8,9.4-14.4,1.7-3.3,3-6.7,4.1-10.2,1.9-6.1,6.1-9.9,12.2-11.6.2,0,.4,0,.5,0,0,.1.1.2.1.2.1.6.2,1.2.4,1.8-5.3,1.4-9,4.5-10.9,9.7-1.1,3.1-1.1,6.2-.2,9.3,1.9,6.1,7.8,10.4,14,10.5,6.4,0,14-4.7,15-13.5.7,0,1.3.1,2.2.2-.1.8-.2,1.6-.4,2.3-.6,2.5-1.8,4.7-3.3,6.9-4.3,5.9-8.7,11.7-14,16.7-1.8,1.7-3.9,3.3-5.9,4.8-3.3,2.5-7,3-11.1,2.3-4.5-.8-5.5-1.6-8.3-3.8-1.7-1.3-3.1-3-4-5-.9-2-1.5-4.5.1-6h0Z"/>
      <path class="st0" d="M47.8,27c.1.1.3.2.4.3.4.3.9.7,1.3,1.1-.2.3-.4.6-.7.8-1.1,1.2-2.1,2.3-3.2,3.5-3.5,3.6-7.7,4.9-12.5,3.6-4.8-1.3-7.8-4.6-8.9-9.4-.9-3.7,0-7.2,2.3-10.1,1.4-1.8,3-3.4,4.6-5.1.2-.3.6-.5.9-.8.5.6.9,1.2,1.3,1.7-5.2,4.3-5,11.3-1,15.4,4,4.1,11.2,4.4,15.5-.9h0Z"/>
      <path class="st0" d="M33.5,18.3c-.5-.5-1-1-1.4-1.5,1.2-1.4,2.3-2.7,3.4-4.1,1.5-2,2.6-4.3,3.1-6.8,0-.3,0-.7-.2-.9-.9-1.1-.8-2.4.2-3.3,1-.8,2.4-.6,3.2.4s.6,2.3-.5,3.2c-.2.2-.4.5-.5.8-1.1,4.8-3.8,8.7-7.3,12.2h0Z"/>
      <path class="st0" d="M41.3,29.6c-.3-.8-.5-1.4-.7-2,1.3-.8,2.6-1.5,3.7-2.3,2.3-1.7,4-3.8,5.6-6.2.1-.2.2-.5,0-.8-.3-1.3.3-2.5,1.6-2.9,1.1-.3,2.3.4,2.7,1.6.3,1.2-.4,2.4-1.7,2.7-.5.1-.8.4-1,.8-2.1,3-4.4,5.7-7.5,7.6-.9.5-1.8.9-2.8,1.4h0Z"/>
      <path class="st0" d="M35.6,22c-.3-.8-.6-1.4-.9-2.1,3.4-1.7,5.4-4.6,7-7.8.2-.4.2-.7,0-1.1-.6-1.1,0-2.5,1.2-3,1.1-.5,2.5,0,2.9,1.2.5,1.2-.1,2.4-1.3,2.9-.3.1-.7.5-.8.8-1.4,2.9-3.1,5.5-5.7,7.4-.8.6-1.6,1-2.5,1.6h0Z"/>
      <path class="st0" d="M35.9,26.9c-.4-.7-.7-1.3-1-1.8,1.6-1.2,3.1-2.2,4.6-3.4,1.2-1.1,2.3-2.3,3.4-3.5.2-.2.2-.5.2-.7-.3-1.3.4-2.5,1.7-2.8,1.2-.3,2.4.6,2.6,1.8.2,1.2-.6,2.4-1.8,2.6-.5,0-.8.3-1.1.7-2.3,2.8-5,5.1-8.1,6.9-.1,0-.3.1-.5.3h0Z"/>
      <path class="st0" d="M49.2,13.9c-.2-.1-.3-.3-.5-.4-.4-.3-.8-.6-1.2-1,.3-.3.4-.5.6-.7.4-.5.7-.9.4-1.6-.4-1,.3-2.2,1.4-2.6,1.1-.4,2.3,0,2.8,1.1.5,1,.2,2.5-.8,2.9-1.1.4-1.6,1.2-2.2,1.9,0,0-.2.2-.3.3h0Z"/>
      <path class="st0" d="M43.5,4.4c0-1.2,1-2.3,2.2-2.4,1.2,0,2.3.9,2.3,2.1,0,1.2-1,2.3-2.2,2.4-1.2,0-2.3-1-2.3-2.1Z"/>
    </g>
  </g>
</svg>