<?xml version="1.0" encoding="UTF-8"?>
<svg id="Layer_1" xmlns="http://www.w3.org/2000/svg" version="1.1" viewBox="0 0 60 60">
  <!-- Generator: Adobe Illustrator 29.1.0, SVG Export Plug-In . SVG Version: 2.1.0 Build 142)  -->
  <defs>
    <style>
      .st0 {
        fill: #eb7230;
      }
    </style>
  </defs>
  <g id="Layer_11" data-name="Layer_1">
    <g id="Layer_56">
      <path class="st0" d="M24.9,37.8c0-.3.2-.5.2-.8s.1-.5.1-.8.3-.6.6-.7l1.4-.3v-.7l-1.4-.2c-.3,0-.6-.3-.7-.6-.1-.5-.3-1.1-.5-1.6-.1-.3,0-.7.2-.9l1.1-.9c-.1-.2-.2-.4-.4-.6l-1.3.6c-.3.1-.7,0-.9-.2-.4-.4-.8-.8-1.2-1.1-.3-.2-.4-.5-.3-.9l.5-1.3c-.1,0-.2-.1-.3-.2-.1,0-.2-.1-.3-.2l-.9,1.1c-.2.3-.5.4-.9.3-.5-.2-1.1-.3-1.6-.4-.3,0-.6-.3-.7-.6l-.3-1.4h-.7l-.2,1.4c0,.3-.3.6-.6.7-.5.1-1.1.3-1.6.5-.3.1-.7,0-.9-.2l-.9-1.1c-.2.1-.4.2-.6.4l.6,1.3c.1.3,0,.7-.2.9-.4.4-.8.8-1.1,1.2-.2.3-.5.4-.9.3l-1.3-.5c0,.1-.1.2-.2.3,0,.1-.1.2-.2.3l1.1.8c.3.2.4.5.3.9-.1.3-.2.5-.2.8s-.1.5-.1.8-.3.6-.6.7l-1.4.3v.7l1.4.2c.3,0,.6.3.7.6.1.5.3,1.1.5,1.6.1.3,0,.7-.2.9l-1.1.9c.1.2.2.4.4.6l1.3-.6c.3,0,.7,0,.9.2.4.4.8.8,1.2,1.1.3.2.4.5.3.9l-.5,1.3c.1,0,.2,0,.3.2.1,0,.2,0,.3.2l.8-1.1c.2-.3.5-.4.9-.3.5.2,1.1.3,1.6.4.3,0,.6.3.7.6l.3,1.4h.7l.2-1.4c0-.3.3-.6.6-.7.5,0,1.1-.3,1.6-.5.3,0,.7,0,.9.2l.8.9c.2,0,.4-.3.7-.4l-.5-1.1c-.1-.3,0-.7.2-.9.4-.4.8-.8,1.1-1.2.2-.3.5-.4.9-.3l1.3.5c0,0,.1-.2.2-.3,0,0,.1-.2.2-.3l-1.1-.8c-.2-.2-.3-.6-.2-.9h-.1ZM22.7,36.5c-.1.5-.3.9-.5,1.3-.7,1.3-1.8,2.2-3.2,2.6-2.8.9-5.8-.7-6.7-3.6-.3-.9-.3-1.8-.1-2.7.1-.5.3-.9.5-1.3,1.4-2.6,4.6-3.6,7.2-2.2,2.1,1.1,3.2,3.6,2.7,5.9h.1Z"/>
      <path class="st0" d="M46.8,40.4c0,.4-.3.8-.8.8h-16.3v6.2h16.3c.4,0,.8.3.8.7v2.8l6.5-6.7-6.5-6.6v2.8Z"/>
      <path class="st0" d="M9.5,46.6v-2.8l-6.5,6.6,6.5,6.7v-2.8c0-.4.4-.8.8-.8h16.9v-6.2H10.3c-.4,0-.8-.4-.8-.8h0Z"/>
      <path class="st0" d="M42.2,20.7c-1.9-1-4.2-.3-5.2,1.6-.2.3-.3.6-.4.9-.5,2.1.8,4.1,2.9,4.6.7.2,1.3.1,2,0,1-.3,1.8-1,2.3-1.8.2-.3.3-.6.4-.9.4-1.7-.4-3.4-1.9-4.2h0v-.2Z"/>
      <path class="st0" d="M19.3,31.9c-1.9-1-4.2-.3-5.2,1.6-.2.3-.3.6-.4.9-.5,2.1.8,4.1,2.9,4.6.7.2,1.3,0,2,0,1-.3,1.8-1,2.3-1.8.2-.3.3-.6.4-.9.4-1.7-.4-3.4-1.9-4.2v-.2Z"/>
      <path class="st0" d="M53.2,21.8l-.5-.2v-.5c0-.7.2-1.3.2-2,0-8.6-7.2-15.6-16.1-15.6s-12,3.5-14.6,9l-.3.6-.6-.4c-4.4-2.7-10.1-1.4-12.9,3-1.5,2.3-1.8,5.2-.9,7.9l.2.7h-.7c-4.2.8-7,4.7-6.3,8.8.6,3.4,3.4,6,6.9,6.2l1.1-.9c-.1-.3-.2-.5-.3-.8l-1.5-.2c-.3,0-.6-.3-.7-.7,0-.7,0-1.5,0-2.2,0-.3.3-.6.6-.7l1.5-.3v-.9c.1,0-1.1-.9-1.1-.9-.3-.2-.4-.6-.3-.9s.3-.7.5-1,.4-.6.6-.9.6-.4.9-.3l1.4.5c.2-.2.4-.4.6-.6l-.6-1.4c-.1-.3,0-.7.2-.9.6-.4,1.2-.8,1.9-1.2.3-.2.7,0,.9.2l1,1.1c.3,0,.5-.2.8-.2l.2-1.5c0-.3.3-.6.7-.7.7-.1,1.5-.1,2.2,0,.4,0,.6.3.7.6l.3,1.5c.3,0,.6.1.8.2l.9-1.2c.2-.3.6-.4.9-.3s.7.3,1,.5.6.4.9.6.4.6.3.9l-.5,1.4.6.6,1.4-.6c.3-.1.7,0,.9.2.4.6.8,1.2,1.2,1.9.2.3,0,.7-.2.9l-1.1,1c0,.3.2.5.2.8l1.5.2c.3,0,.6.3.7.7.1.7.1,1.5,0,2.2,0,.3-.3.6-.6.7l-1.5.3v.4c0,.2,0,.3-.1.4l1.2.9c.3.2.4.6.3.9h0c0,0,17.3,0,17.3,0v-3.9c0-.4.3-.8.8-.8s.4,0,.5.2l4.6,4.7c5.1-.4,8.9-4.8,8.5-9.9-.2-3.8-2.8-7-6.5-8.1h0ZM34.5,6.9c.5,0,.9,0,1.3,0v1.3c-.3,0-.7,0-1.1.1-.2,0-.5,0-.7.2l-.4-1.2c.3,0,.6,0,.9-.2h0ZM28.2,12.6l-1-.8c1.2-1.6,2.8-3,4.5-4l.6,1.1c-1.6.9-3,2.1-4.1,3.6h0ZM51.6,24.8c0,.3-.3.6-.6.7l-1.5.3v.4c0,.2,0,.3,0,.4l1.2.9c.3.2.4.6.3.9,0,.3-.3.7-.5,1s-.4.7-.6.9c-.2.3-.6.4-.9.3l-1.4-.5c-.2.2-.4.4-.6.6l.5,1.2c0,.3,0,.7-.2.9-.6.5-1.3.9-1.9,1.2-.3.2-.7,0-.9-.2l-.8-1c-.3,0-.5.2-.8.2l-.2,1.5c0,.3-.3.6-.7.7-.5,0-1,0-1.5,0h-.7c-.3,0-.6-.3-.7-.6l-.3-1.5c-.3,0-.6,0-.8-.2l-.9,1.2c-.2.3-.6.4-.9.3-.3,0-.7-.3-1-.5s-.6-.4-.9-.6c-.3-.2-.4-.6-.3-.9l.5-1.4c-.2-.2-.4-.4-.6-.6l-1.4.6c-.3.1-.7,0-.9-.2-.4-.6-.8-1.2-1.2-1.9-.2-.3,0-.7.2-.9l1.1-1c-.1-.3-.2-.5-.3-.8l-1.5-.2c-.3,0-.6-.3-.7-.7-.1-.7-.1-1.5,0-2.2,0-.3.3-.6.6-.7l1.5-.3v-.4c0-.2,0-.3.1-.5l-1.2-.9c-.3-.2-.4-.6-.3-.9s.3-.7.5-1,.4-.6.6-.9.6-.4.9-.3l1.4.5c.2-.2.4-.4.6-.6l-.6-1.4c0-.3,0-.7.2-.9.6-.4,1.2-.8,1.9-1.2.3-.2.7,0,.9.2l1,1.1c.3,0,.5-.2.8-.2l.2-1.5c0-.3.3-.6.7-.7.7-.1,1.5-.1,2.2,0,.4,0,.6.3.7.6l.3,1.5c.3,0,.6.1.8.2l.9-1.2c.2-.3.6-.4.9-.3.3.1.7.3,1,.5s.6.4.9.6c.3.2.4.6.3.9l-.5,1.4c.2.2.4.4.6.6l1.4-.6c.3-.1.7,0,.9.2.4.6.8,1.2,1.2,1.9.2.3,0,.7-.2.9l-1.1,1c0,.3.2.5.2.8l1.5.2c.3,0,.6.3.7.7,0,.7.2,1.5,0,2.2h-.1Z"/>
      <path class="st0" d="M48.7,23.2c-.3,0-.6-.3-.7-.6,0-.5-.3-1.1-.5-1.6,0-.3,0-.7.2-.9l1.1-.9c0-.2-.2-.4-.4-.6l-1.3.6c-.3.1-.7,0-.9-.2-.4-.4-.8-.8-1.2-1.1-.3-.2-.4-.5-.3-.9l.5-1.3c0,0-.2-.1-.3-.2,0,0-.2-.1-.3-.2l-.9,1.1c-.2.3-.5.4-.9.3-.5-.2-1.1-.3-1.6-.4-.3,0-.6-.3-.7-.6l-.3-1.4h-.7l-.2,1.4c0,.3-.3.6-.6.7-.5.1-1.1.3-1.6.5-.3.1-.7,0-.9-.2l-.9-1.1c-.2.1-.4.2-.6.4l.6,1.3c0,.3,0,.7-.2.9-.4.4-.8.8-1.1,1.2-.2.3-.5.4-.9.3l-1.3-.5c0,.1-.1.2-.2.3,0,.1-.1.2-.2.3l1.1.8c.3.2.4.5.3.9,0,.3-.2.5-.2.8s0,.5,0,.8-.3.6-.6.7l-1.4.3v.7l1.4.2c.3,0,.6.3.7.6,0,.5.3,1.1.5,1.6,0,.3,0,.7-.2.9l-1.1.9c.1.2.2.4.4.6l1.3-.6c.3-.1.7,0,.9.2.4.4.8.8,1.2,1.1.3.2.4.5.3.9l-.5,1.3c0,0,.2,0,.3.2,0,0,.2,0,.3.2l.8-1.1c.2-.3.5-.4.9-.3.5.2,1.1.3,1.6.4.3,0,.6.3.7.6l.3,1.4h.7l.2-1.4c0-.3.3-.6.6-.7.5-.1,1.1-.3,1.6-.5.3-.1.7,0,.9.2l.8.9c.2,0,.4-.3.7-.4l-.5-1.1c0-.3,0-.7.2-.9.4-.4.8-.8,1.1-1.2.2-.3.5-.4.9-.3l1.3.5c0-.1,0-.2.2-.3,0-.1,0-.2.2-.3l-1.1-.8c-.3-.2-.4-.5-.3-.9,0-.3.2-.5.2-.8s0-.5,0-.8.3-.6.6-.7l1.4-.3v-.7l-1.4-.2h0ZM45.6,25.3c0,.5-.3.9-.5,1.3-.7,1.3-1.8,2.2-3.2,2.6-2.8.9-5.8-.7-6.7-3.6-.3-.9-.3-1.8,0-2.7,0-.5.3-.9.5-1.3,1.4-2.6,4.6-3.6,7.2-2.2,2.2,1.1,3.3,3.6,2.7,5.9h0Z"/>
    </g>
  </g>
</svg>