<?xml version="1.0" encoding="UTF-8"?>
<svg id="Layer_1" xmlns="http://www.w3.org/2000/svg" version="1.1" viewBox="0 0 60 60">
  <!-- Generator: Adobe Illustrator 29.1.0, SVG Export Plug-In . SVG Version: 2.1.0 Build 142)  -->
  <defs>
    <style>
      .st0 {
        fill: #eb7230;
      }
    </style>
  </defs>
  <g id="Layer_11" data-name="Layer_1">
    <g>
      <path class="st0" d="M.5,41.8V6.3c.6-2.1,2.1-2.9,4.2-2.9,17,0,33.9,0,50.9,0s3.8,1.4,3.8,3.9v33.5c0,2.4-1.4,3.8-3.8,3.8H4.3c-.9,0-1.7-.2-2.5-.8-.7-.5-1-1.3-1.3-2.1h0Z"/>
      <path class="st0" d="M20.9,53.1v-5h18.2v5h9.2c1.3,0,2.2,1.2,1.7,2.3-.3.7-.8,1-1.5,1.1-.2,0-.3,0-.5,0H12c-.2,0-.5,0-.7,0-.9-.2-1.5-1-1.4-1.8,0-.9.8-1.6,1.8-1.6h9.3Z"/>
    </g>
  </g>
</svg>