<?xml version="1.0" encoding="UTF-8"?>
<svg id="Layer_1" xmlns="http://www.w3.org/2000/svg" version="1.1" viewBox="0 0 60 60">
  <!-- Generator: Adobe Illustrator 29.1.0, SVG Export Plug-In . SVG Version: 2.1.0 Build 142)  -->
  <defs>
    <style>
      .st0 {
        fill: #eb7230;
      }
    </style>
  </defs>
  <g id="Layer_11" data-name="Layer_1">
    <path class="st0" d="M31.4,24.6c0,.7-.6,1.3-1.3,1.3s-1.3-.6-1.3-1.3.6-1.3,1.3-1.3,1.3.6,1.3,1.3ZM46.9,18.2c0,9.3-7.5,16.8-16.8,16.8s-16.8-7.5-16.8-16.8S20.8,1.4,30.1,1.4s16.8,7.5,16.8,16.8ZM33,24.6c0-1.6-1.3-2.9-2.9-2.9s-2.9,1.3-2.9,2.9,1.3,2.9,2.9,2.9,2.9-1.3,2.9-2.9ZM35.9,19.8c-1.6-1.6-3.6-2.4-5.8-2.4s-4.3.9-5.8,2.4-.3.8,0,1.1.8.3,1.1,0c1.3-1.3,2.9-2,4.7-2s3.5.7,4.7,2c.2.2.4.2.6.2s.4,0,.6-.2c.3-.3.3-.8,0-1.1h0ZM39,16.8c-2.4-2.4-5.5-3.7-8.9-3.7s-6.5,1.3-8.9,3.7-.3.8,0,1.1.8.3,1.1,0c2.1-2.1,4.8-3.2,7.7-3.2s5.7,1.1,7.7,3.2c.2.2.4.2.6.2s.4,0,.6-.2c.3-.3.3-.8,0-1.1h.1ZM42,13.8c-3.2-3.2-7.4-4.9-11.9-4.9s-8.7,1.7-11.9,4.9c-.3.3-.3.8,0,1.1s.8.3,1.1,0c2.9-2.9,6.7-4.5,10.7-4.5s7.9,1.6,10.7,4.5c.2.2.4.2.6.2s.4,0,.6-.2c.3-.3.3-.8,0-1.1h.1ZM7.7,14.2c-1.6,0-2.9,1.3-2.9,2.9v23.2h5.9v-23.2c0-1.6-1.3-2.9-2.9-2.9h0ZM52.5,14.2c-1.6,0-2.9,1.3-2.9,2.9v23.2h5.9v-23.2c0-1.6-1.3-2.9-2.9-2.9h0ZM19.4,48.8c-.7,0-1.3.6-1.3,1.3s.6,1.3,1.3,1.3,1.3-.6,1.3-1.3-.6-1.3-1.3-1.3ZM58.6,45.9v8.5c0,2.2-1.8,4-4,4H5.6c-2.2,0-4-1.8-4-4v-8.5c0-2.2,1.8-4,4-4h49c2.2,0,4,1.8,4,4ZM13.8,50.2c0-1.6-1.3-2.9-2.9-2.9s-2.9,1.3-2.9,2.9,1.3,2.9,2.9,2.9,2.9-1.3,2.9-2.9ZM22.4,50.2c0-1.6-1.3-2.9-2.9-2.9s-2.9,1.3-2.9,2.9,1.3,2.9,2.9,2.9,2.9-1.3,2.9-2.9ZM52.2,50.2c0-.4-.4-.8-.8-.8h-21.3c-.4,0-.8.4-.8.8s.4.8.8.8h21.3c.4,0,.8-.4.8-.8ZM10.9,48.8c-.7,0-1.3.6-1.3,1.3s.6,1.3,1.3,1.3,1.3-.6,1.3-1.3-.6-1.3-1.3-1.3Z"/>
  </g>
</svg>