<?xml version="1.0" encoding="UTF-8"?>
<svg id="Layer_1" xmlns="http://www.w3.org/2000/svg" version="1.1" viewBox="0 0 60 60">
  <!-- Generator: Adobe Illustrator 29.1.0, SVG Export Plug-In . SVG Version: 2.1.0 Build 142)  -->
  <defs>
    <style>
      .st0 {
        fill: #eb7230;
      }
    </style>
  </defs>
  <g id="Layer_11" data-name="Layer_1">
    <g>
      <path class="st0" d="M30,10.1h24.8c2.9,0,4.6,1.7,4.6,4.6v30.8c0,2.8-1.7,4.6-4.6,4.6H5.2c-2.8,0-4.5-1.7-4.5-4.5V14.6c0-2.8,1.7-4.5,4.5-4.5h24.8,0ZM22.7,39.4h15.4c1.6,0,2.4-.8,2.4-2.4v-20.3c0-1.6-.8-2.4-2.4-2.4H7.3c-1.7,0-2.4.8-2.4,2.5v20.3c0,1.7.8,2.5,2.4,2.5h15.4ZM55.2,40.5c0-2.9-2.3-5.3-5.2-5.3s-5.2,2.3-5.3,5.2c0,2.9,2.3,5.3,5.2,5.3,2.9,0,5.3-2.3,5.3-5.2h0ZM46.8,18.5c1.1,0,2.1-1,2.1-2.1,0-1.1-1-2.1-2.1-2.1-1.2,0-2.1,1-2.1,2.1,0,1.1,1,2.1,2.1,2.1h0ZM53.1,18.5c1.1,0,2.1-1,2.1-2.1s-1-2.1-2.1-2.1-2.1,1-2.1,2.1c0,1.1,1,2.1,2.1,2.1ZM48.9,22.6c0-1.1-1-2.1-2.1-2.1-1.1,0-2.1,1-2.1,2.1s1,2.1,2.1,2.1c1.1,0,2.1-1,2-2.1h0ZM53.1,24.8c1.1,0,2.1-1,2.1-2.1s-.9-2.1-2.1-2.1c-1.2,0-2.1,1-2.1,2.1,0,1.1,1,2.1,2.1,2.1ZM46.8,26.9c-1.1,0-2.1,1-2.1,2.1s.9,2.1,2.1,2.1c1.2,0,2.1-1,2.1-2.1,0-1.1-1-2.1-2.1-2.1h0ZM55.2,28.9c0-1.1-1-2.1-2.1-2.1s-2.1.9-2.1,2.1,1,2.1,2.1,2.1c1.1,0,2.1-1,2.1-2.1ZM12.2,45.7c.7,0,1.4,0,2,0,.7,0,1.1-.4,1.1-1,0-.6-.4-1-1.1-1-1.4,0-2.7,0-4.1,0-.7,0-1.1.4-1.1,1s.4,1,1.1,1c.7,0,1.4,0,2,0h0ZM22.7,45.7c.7,0,1.4,0,2,0,.7,0,1.1-.4,1.1-1s-.4-1-1.1-1c-1.4,0-2.7,0-4.1,0-.7,0-1.1.4-1.1,1s.4,1,1.1,1c.7,0,1.4,0,2,0h0ZM33.1,43.6c-.7,0-1.4,0-2,0-.7,0-1.1.4-1.1,1s.4,1,1.1,1c1.4,0,2.7,0,4.1,0,.7,0,1.1-.4,1.1-1s-.4-1-1.1-1c-.7,0-1.4,0-2,0Z"/>
      <path class="st0" d="M38.4,16.4v20.9H7v-20.9h31.4ZM23.7,28.9c2.9-1,4.5-3.2,4.2-5.8-.3-2.6-2.4-4.5-4.9-4.7-2.5-.1-4.8,1.5-5.4,3.9-.4,1.5-.1,2.8.7,4.1s2,2,3.4,2.4c-1.8,0-3.6-.2-5.1,1.2-1.5,1.5-1.3,3.3-1.2,5.1h14.6c.6-3.9-1.1-7-6.2-6.3h0Z"/>
      <path class="st0" d="M50,43.6c-1.7,0-3.2-1.4-3.2-3.1s1.4-3.1,3.1-3.1c1.7,0,3.2,1.4,3.2,3.1s-1.4,3.1-3.1,3.1Z"/>
    </g>
  </g>
</svg>