<?xml version="1.0" encoding="UTF-8"?>
<svg id="Layer_1" xmlns="http://www.w3.org/2000/svg" version="1.1" viewBox="0 0 60 60">
  <!-- Generator: Adobe Illustrator 29.1.0, SVG Export Plug-In . SVG Version: 2.1.0 Build 142)  -->
  <defs>
    <style>
      .st0 {
        fill: #eb7230;
      }
    </style>
  </defs>
  <g id="Layer_11" data-name="Layer_1">
    <g>
      <path class="st0" d="M55,50.9c0,.6,0,1.1,0,1.6,0,.8-.5,1.3-1.3,1.3-1.3,0-2.5,0-3.8,0-.8,0-1.2-.5-1.2-1.2,0-.5,0-1,0-1.6H11.4c0,.5,0,1,0,1.5,0,.8-.5,1.3-1.3,1.3-1.2,0-2.4,0-3.6,0-.8,0-1.3-.5-1.3-1.3,0-.5,0-1,0-1.6h-1.8c-1.4,0-2.2-.8-2.2-2.3v-11.7c0-1.6.8-2.4,2.4-2.4h52.9c1.9,0,2.6.7,2.6,2.6v11.3c0,1.6-.8,2.4-2.3,2.4h-1.7ZM49.9,45.4c1.5,0,2.7-1.2,2.7-2.7,0-1.5-1.2-2.7-2.7-2.7-1.5,0-2.8,1.2-2.8,2.7,0,1.5,1.2,2.7,2.7,2.7h0ZM40.8,40c-1.5,0-2.7,1.2-2.7,2.7s1.3,2.7,2.8,2.7c1.5,0,2.7-1.2,2.7-2.7,0-1.5-1.2-2.7-2.7-2.7h0ZM7.8,43.7h2.2v-1.9h-2.2v1.9ZM22.7,41.8v1.9h2.1v-1.9h-2.1ZM14.9,41.8h-2.1v1.9h2.1v-1.9ZM17.7,41.8v1.9h2.2v-1.9h-2.2Z"/>
      <path class="st0" d="M14.3,32.5h-7.2v-5.9c0-.6.2-1.2.7-1.6.2-.1.3-.5.3-.7,0-5.8,0-11.6,0-17.4,0-.4,0-.7,0-1.1.3-1.2,1.4-2,2.7-1.9,1.2,0,2.2,1,2.4,2.3,0,.3,0,.6,0,.9v17.2c0,.4,0,.8.5,1.1.3.2.5.6.5.9,0,2.1,0,4.2,0,6.3h0Z"/>
      <path class="st0" d="M22.6,13.3c-.6-.6-1.2-1.2-1.8-1.9,8.3-8.7,23.6-9.4,32.9,0-.6.6-1.2,1.2-1.9,1.8-7.9-8.1-21.5-7.8-29.2,0Z"/>
      <path class="st0" d="M27.7,18.4c-.7-.6-1.3-1.2-1.9-1.8,5.8-6.2,16.7-6.5,22.8,0-.6.6-1.2,1.2-1.9,1.8-2.6-2.5-5.8-3.9-9.5-3.9-3.7,0-6.9,1.3-9.6,3.9h0Z"/>
      <path class="st0" d="M43.6,21.6c-.6.6-1.3,1.2-1.9,1.8-1.2-1.1-2.7-1.8-4.5-1.8-1.7,0-3.2.7-4.4,1.8-.6-.6-1.3-1.2-1.9-1.9,3-3.5,9.4-3.5,12.7,0h0Z"/>
      <path class="st0" d="M37.2,30.9c-1.6,0-3-1.3-2.9-3,0-1.6,1.3-2.9,3-2.9,1.6,0,2.9,1.3,2.9,2.9,0,1.6-1.3,2.9-3,2.9h0Z"/>
    </g>
  </g>
</svg>