<?xml version="1.0" encoding="UTF-8"?>
<svg id="Layer_1" xmlns="http://www.w3.org/2000/svg" version="1.1" viewBox="0 0 60 60">
  <!-- Generator: Adobe Illustrator 29.1.0, SVG Export Plug-In . SVG Version: 2.1.0 Build 142)  -->
  <defs>
    <style>
      .st0 {
        fill: #eb7230;
      }
    </style>
  </defs>
  <g id="Layer_11" data-name="Layer_1">
    <g>
      <path class="st0" d="M30.2,18.8h26.8c1.4,0,1.6.2,1.6,1.6v17.1c0,1.4-.3,1.7-1.6,1.7H3.2c-1.3,0-1.6-.3-1.6-1.6v-17.2c0-1.3.3-1.6,1.6-1.6,9,0,18,0,27,0ZM35.2,35.1h2.8c.9,0,1.3-.4,1.3-1.3v-5.6c0-.9-.4-1.3-1.3-1.3h-5.7c-.9,0-1.3.4-1.3,1.3v5.6c0,.9.4,1.2,1.3,1.2h2.9ZM44.3,35.1h2.8c.9,0,1.3-.4,1.3-1.2v-5.7c0-.8-.4-1.2-1.2-1.2h-5.8c-.8,0-1.2.4-1.2,1.2v5.8c0,.8.4,1.1,1.2,1.2h2.9ZM16.8,35.1h2.9c.8,0,1.2-.3,1.2-1.1v-5.9c0-.7-.4-1.1-1.1-1.1h-5.8c-.8,0-1.2.4-1.2,1.2v5.8c0,.8.4,1.2,1.2,1.2h2.8ZM21.9,31v2.8c0,.9.4,1.3,1.2,1.3h5.7c.8,0,1.2-.3,1.2-1.2v-5.8c0-.8-.4-1.2-1.2-1.2h-5.7c-.9,0-1.2.4-1.2,1.3v2.7h0ZM7.7,35.1h2.8c.8,0,1.2-.3,1.2-1.1v-5.9c0-.7-.4-1.1-1.2-1.1h-5.8c-.8,0-1.2.4-1.2,1.2v5.8c0,.8.4,1.2,1.3,1.2h2.9ZM51.5,27c0,1.7,1.4,3.1,3.1,3.1s3.1-1.4,3.1-3.1-1.4-3-3-3-3.1,1.3-3.1,3h0ZM54.5,22.9h.6q1.5,0,1.5-1.5c0-.4,0-.5-.5-.5h-2.6c-1.2,0-1-.1-1,1s0,1,1,1h1Z"/>
      <path class="st0" d="M9.8,41.2h.2c.5,0,1.2-.2,1.3,0,.2.5-.2,1.1-.3,1.7,0,0-.1.2-.3.2h-2.1c-.3,0-.3-.4-.4-.6-.3-.9,0-1.4,1.1-1.4h.5Z"/>
      <path class="st0" d="M50.5,43.3c-1.2,0-1.7-.5-1.7-1.7s0-.3.3-.3h2.7c0,0,.3,0,.3,0,0,.6-.2,1.1-.4,1.7,0,.4-.5.2-.8.2h-.5.1Z"/>
      <path class="st0" d="M35.4,29c.5,0,1.3-.3,1.7.1s0,1.2,0,1.8v1.5c0,.4,0,.6-.5.6h-3c-.4,0-.5,0-.5-.5v-3.1c0-.4.2-.5.5-.5h1.7Z"/>
      <path class="st0" d="M46.4,31.2c0,.5.3,1.3,0,1.7-.4.4-1.3,0-1.9,0s-1.5.3-1.9,0c-.4-.4,0-1.2,0-1.8s-.3-1.5,0-1.9c.4-.4,1.3-.1,1.9-.1s1.5-.3,1.9.1,0,1.2,0,1.8v.2Z"/>
      <path class="st0" d="M16.9,33c-.7,0-1.5.3-1.9,0-.4-.4-.1-1.3-.1-1.9s-.3-1.5.1-1.9c.4-.4,1.2-.1,1.8-.1s1.5-.2,1.9.1c.5.4.1,1.3.1,2s.3,1.5-.2,1.9c-.4.3-1.2,0-1.8,0h.1Z"/>
      <path class="st0" d="M28,31.2c0,.5.3,1.4-.1,1.8-.4.4-1.2,0-1.8,0h-1.5c-.4,0-.5,0-.5-.5v-3.1c0-.4.1-.5.5-.5h3.1c.3,0,.4.1.4.5v1.7h-.1Z"/>
      <path class="st0" d="M9.7,31.2c0,.5.3,1.4-.2,1.8-.4.4-1.2,0-1.8,0s-1.5.3-2,0c-.4-.4,0-1.3,0-1.9s-.3-1.5,0-1.9c.4-.3,1.2-.1,1.8-.1h1.4c.6,0,.8.2.7.8v1.4h.1Z"/>
      <path class="st0" d="M54.6,28c-.6,0-1-.5-1-1s.5-1,1-1,.9.4,1,1c0,.6-.4,1-1,1Z"/>
    </g>
  </g>
</svg>