<?xml version="1.0" encoding="UTF-8"?>
<svg id="Layer_1" xmlns="http://www.w3.org/2000/svg" version="1.1" viewBox="0 0 60 60">
  <!-- Generator: Adobe Illustrator 29.1.0, SVG Export Plug-In . SVG Version: 2.1.0 Build 142)  -->
  <defs>
    <style>
      .st0 {
        fill: #eb7230;
      }
    </style>
  </defs>
  <g id="Layer_11" data-name="Layer_1">
    <g>
      <path class="st0" d="M1.5,36.9c.2-.4.6-.7,1.1-.5.4.1.5.3.6,1.8h44.5c.6,0,1,.3,1,.8,0,.5-.3.8-1,.8H6.9v1.6h46.2v-1.6c-.5,0-1.1,0-1.7,0-.4,0-.8-.3-.8-.7s.2-.6.4-.8c.2-.1.5-.1.7-.1,1.5,0,2.9,0,4.4,0h.6v-16.4H12.8c-.3,0-.5,0-.8,0-.4,0-.6-.4-.7-.8,0-.5.2-.7.7-.8.3,0,.5,0,.8,0h40.3v-1.6H6.9v1.6c.5,0,1,0,1.5,0,.6,0,1,.3,1,.9,0,.5-.4.8-1,.8-1.5,0-3,0-4.5,0h-.7v11.5c0,.8-.5,1.2-1.1,1-.2,0-.4-.4-.6-.5v-13c.2-.5.6-.6,1.1-.6.8,0,1.7,0,2.6,0v-2.1c0-1,.2-1.3,1.2-1.3h47.2c1,0,1.2.2,1.2,1.2v2.1h2.5c1,0,1.2.3,1.2,1.3v17.2c0,1-.2,1.3-1.2,1.3h-2.2c0,0-.1,0-.3,0v1.9c0,1.2-.2,1.4-1.4,1.4H6.6c-1.2,0-1.4-.2-1.4-1.4v-1.9h-2.6c-.5,0-.9-.1-1.1-.6v-2.3h0Z"/>
      <path class="st0" d="M22.7,32.4c0,.4,0,.8,0,1.1,0,.5-.3.8-.8.8-1.6,0-3.1,0-4.7,0-.5,0-.8-.4-.8-.9,0-.4,0-.7,0-1-1-.2-1.5-.8-1.5-1.8v-4c0-.8.3-1.1,1-1.1,2.4,0,4.8,0,7.1,0s1.1.3,1.1,1.1v4.5c0,1-.2,1.2-1.2,1.3,0,0-.1,0-.3,0h0ZM21,32.7c.1-1.1.7-1.8,1.5-2.1,0-.9,0-1.9,0-2.9,0-.4-.1-.5-.5-.5-1.4,0-2.8,0-4.1,0h-1.3v3.2c.5.3,1.1.4,1.3.7.2.4.2,1,.2,1.5h2.8Z"/>
      <path class="st0" d="M26.8,32.5c0,0,0,0,0,0-.9-.2-1.4-.7-1.4-1.7v-4c0-.9.3-1.2,1.1-1.2h7c.9,0,1.1.3,1.1,1.1v4c0,1.5,0,1.5-1.5,1.7,0,.3,0,.7,0,1,0,.6-.3.9-.9.9-1.5,0-3,0-4.5,0-.6,0-.9-.3-.9-.9,0-.3,0-.7,0-1h0ZM32.8,27.3h-5.8v3.4c1.7-.3,1.4,1,1.5,1.9h2.9c.2-1.2.7-1.9,1.5-2.1v-3.3h0Z"/>
      <path class="st0" d="M37.1,32.5c-1-.2-1.5-.8-1.5-1.8v-3.9c0-.9.3-1.2,1.1-1.2h7c.8,0,1.1.3,1.1,1.1v4.4c0,1.1-.2,1.2-1.2,1.3,0,0-.1,0-.3,0,0,.4,0,.7,0,1,0,.6-.3.9-.9.9-1.5,0-3,0-4.6,0-.6,0-.8-.3-.9-.9,0-.3,0-.7,0-1h0ZM37.3,27.3v3.4c1.7-.3,1.5.9,1.5,1.9h2.9c.1-1.2.6-1.9,1.5-2v-3.4h-5.8,0Z"/>
      <path class="st0" d="M47.4,32.5c-1-.2-1.5-.8-1.5-1.8v-4c0-.8.3-1.1,1.1-1.1h7.1c.8,0,1.1.3,1.1,1.1v4.4c0,1-.2,1.2-1.2,1.3,0,0-.1,0-.3,0v.9c0,.7-.3,1-1,1-1.5,0-2.9,0-4.3,0-.7,0-1-.3-1-1,0-.3,0-.6,0-.9h0ZM53.5,27.3h-5.9v3.2c.5.3,1.1.4,1.3.7.2.4.1,1,.2,1.5h2.9c.1-1.2.6-1.8,1.5-2v-3.3h0Z"/>
      <path class="st0" d="M9.2,25.7h2.9c.6,0,1,.3,1,.8,0,.5-.4.8-1,.8h-6c-.6,0-1-.3-1-.9,0-.5.4-.8,1-.8h2.9Z"/>
      <path class="st0" d="M9.2,29.7h-3c-.6,0-1-.3-1-.8s.3-.8,1-.8c2,0,4,0,6,0,.6,0,1,.3,1,.8,0,.5-.4.8-1,.8h-2.9,0Z"/>
      <path class="st0" d="M9.3,30.3h2.9c.6,0,1,.3,1,.8,0,.5-.3.8-1,.8-2,0-4,0-6,0-.6,0-1-.3-1-.8s.4-.8,1-.8h3,0Z"/>
      <path class="st0" d="M9.1,34.2h-2.8c-.7,0-1.1-.3-1.1-.8s.4-.8,1-.8h5.9c.6,0,1,.3,1,.8,0,.5-.4.8-1,.8h-3,0Z"/>
    </g>
  </g>
</svg>