<?xml version="1.0" encoding="UTF-8"?>
<svg id="Layer_1" xmlns="http://www.w3.org/2000/svg" version="1.1" viewBox="0 0 60 60">
  <!-- Generator: Adobe Illustrator 29.1.0, SVG Export Plug-In . SVG Version: 2.1.0 Build 142)  -->
  <defs>
    <style>
      .st0 {
        fill: #eb7230;
        fill-rule: evenodd;
      }
    </style>
  </defs>
  <g id="Layer_11" data-name="Layer_1">
    <g id="Layer_x5F_1">
      <path class="st0" d="M19,49.5H3.1c-.4,0-.8-.3-.8-.8v-24.9c0-4.8,3.9-8.7,8.7-8.7s7.9,3.1,8.6,7.3h-3.9c-.4,0-.7.1-1,.3-.5-1.5-2-2.6-3.7-2.6s-3.9,1.7-3.9,3.9,1.7,3.9,3.9,3.9,3.1-1.1,3.7-2.6c.3.2.6.3,1,.3h4.1v23c0,.4-.3.8-.8.8h0ZM55.8,28h-4.9c1.5-2.6,2.9-5,4.5-7.8h.4c1.3,0,2.3,1,2.3,2.3v3.3c0,1.2-1,2.3-2.3,2.3h0ZM49.9,28h-5.4c1.5-2.7,2.9-5.1,4.5-7.8h5.3c-1.6,2.8-3,5.2-4.5,7.8h.1ZM43.6,28h-5.3c1.6-2.7,2.9-5.1,4.5-7.8h5.3c-1.6,2.8-3,5.1-4.5,7.8ZM37.3,28h-5.3c1.6-2.8,3-5.2,4.5-7.8h5.3c-1.6,2.7-2.9,5.1-4.5,7.8ZM30.9,28h-5.4c1.6-2.8,3-5.2,4.5-7.8h5.3c-1.5,2.6-2.9,5-4.5,7.8h.1ZM24.6,28h-.4c-1.2,0-2.3-1-2.3-2.3v-.9h-6.4c-.4,0-.8-.3-.8-.8s.3-.8.8-.8h6.4v-.9c0-1.3,1-2.3,2.3-2.3h4.9c-1.5,2.6-2.9,5-4.5,7.8v.2ZM14.2,36.4c.7,0,1.3-.6,1.3-1.3v-2.2c0-.7-.6-1.3-1.3-1.3h-6.3c-.7,0-1.3.6-1.3,1.3v2.2c0,.7.6,1.3,1.3,1.3h6.3ZM7.9,32.5h6.3c.2,0,.4.2.4.4v2.2c0,.2-.2.4-.4.4h-6.3c-.2,0-.4-.2-.4-.4v-2.2c0-.2.2-.4.4-.4ZM11.1,21c1.7,0,3,1.3,3,3s-1.3,3-3,3-3-1.3-3-3,1.3-3,3-3Z"/>
    </g>
  </g>
</svg>