<?xml version="1.0" encoding="UTF-8"?>
<svg id="Layer_1" xmlns="http://www.w3.org/2000/svg" version="1.1" viewBox="0 0 60 60">
  <!-- Generator: Adobe Illustrator 29.1.0, SVG Export Plug-In . SVG Version: 2.1.0 Build 142)  -->
  <defs>
    <style>
      .st0 {
        fill: #eb7230;
      }
    </style>
  </defs>
  <g id="Layer_11" data-name="Layer_1">
    <g>
      <path class="st0" d="M56.6,59.6H3.5c-.2-3.1-.3-6.1,2.4-8.4,1.4-1.2,3-1.8,4.8-1.8h38.5c3.5,0,6.4,2.2,7.1,5.6.3,1.5.2,3,.3,4.6h0ZM21.8,53.5c-.5,0-1,.5-1,1,0,.5.5,1,1,1,.6,0,1.1-.5,1-1.1,0-.5-.5-1-1-1h0ZM25.9,53.5c-.5,0-1,.5-1,1,0,.5.4,1,1,1,.6,0,1.1-.5,1.1-1s-.5-1-1-1h0ZM30,53.5c-.5,0-1,.4-1,1,0,.5.4,1,1,1.1.6,0,1.1-.4,1.1-1,0-.5-.4-1-1-1h0ZM34.1,55.5c.5,0,1-.4,1-1,0-.6-.5-1.1-1-1.1-.5,0-1,.5-1,1s.4,1,1,1h0ZM38.2,53.5c-.5,0-1,.4-1,1,0,.5.4,1,1,1.1.6,0,1.1-.4,1.1-1s-.5-1-1-1h0Z"/>
      <path class="st0" d="M.4,21.4C.5,13.8,3.3,6.8,8.8,1c.3-.3.8-.5,1.2-.5.8,0,1,1,.5,1.7-.7.8-1.5,1.6-2.2,2.5-4.2,5.4-6.2,11.6-5.9,18.4.3,6.8,2.8,12.8,7.5,17.8.2.2.4.4.6.7.4.5.4,1.1,0,1.4s-1,.4-1.4,0c-1-1.1-2-2.2-2.9-3.5C2.3,34.2.4,28.3.4,21.4h0Z"/>
      <path class="st0" d="M59.6,22.2c-.1,7.6-2.9,14.6-8.3,20.4-.1.2-.3.3-.5.4-.5.3-.9.3-1.3-.1-.4-.4-.4-.8,0-1.3.2-.3.5-.5.7-.8,4.4-4.8,6.9-10.3,7.3-16.8.6-8.3-2-15.5-7.6-21.6,0-.1-.2-.2-.3-.3-.4-.5-.4-1,0-1.4.4-.4,1-.4,1.5,0,1,1.1,2,2.2,2.9,3.5,3.8,5.3,5.7,11.2,5.7,18h0Z"/>
      <path class="st0" d="M15.6,6.1c.3.3.7.4.9.7.1.3,0,.7,0,1,0,.2-.3.4-.5.6-7.1,7.6-7.1,19.3,0,26.9.1.1.3.3.4.4.4.5.4,1,0,1.4-.4.4-1.1.4-1.5,0-1.1-1.4-2.3-2.7-3.2-4.2-5-8.3-3.7-19,3-26,.2-.3.6-.4,1-.7h0Z"/>
      <path class="st0" d="M51.4,22.2c0,5.4-2.1,10.5-6.1,14.7-.4.4-.8.6-1.3.4-.7-.3-.7-1.1-.2-1.7.9-1.2,1.9-2.3,2.7-3.5,4.6-7.5,3.6-17.2-2.4-23.7-.1-.2-.3-.3-.4-.5-.4-.5-.4-1,0-1.4.4-.4,1.1-.4,1.5,0,1.1,1.4,2.3,2.8,3.3,4.3,2,3.3,2.9,7,3,11.3h0Z"/>
      <path class="st0" d="M16.7,21.8c0-3.6,1.3-6.7,3.8-9.3.6-.6,1.4-.6,1.8.1.3.5,0,1-.3,1.4-1.5,1.6-2.5,3.4-2.9,5.6-.7,3.7.2,7.1,2.7,9.9.7.8.8,1.3.3,1.8-.5.5-1.1.3-1.8-.5-2.3-2.6-3.4-5.6-3.5-9h0Z"/>
      <path class="st0" d="M43.3,21.9c0,3.6-1.3,6.7-3.8,9.3-.6.6-1.3.6-1.7,0-.3-.5-.1-1,.3-1.4,1.5-1.6,2.5-3.5,2.9-5.6.7-3.7-.2-7-2.6-9.8,0,0-.1-.2-.2-.2-.6-.6-.6-1.2-.1-1.7.5-.4,1.1-.3,1.7.3,2.4,2.6,3.6,5.7,3.6,9.2h0Z"/>
      <path class="st0" d="M31,47.3h-2v-20.4h2v20.4Z"/>
      <path class="st0" d="M30,18.8c1.7,0,3.1,1.4,3,3.1,0,1.7-1.4,3-3.1,3-1.7,0-3.1-1.4-3-3.1,0-1.7,1.4-3,3.1-3h0Z"/>
    </g>
  </g>
</svg>