<?xml version="1.0" encoding="UTF-8"?>
<svg id="Whistleblower_Protection" xmlns="http://www.w3.org/2000/svg" version="1.1" viewBox="0 0 64 64">
  <!-- Generator: Adobe Illustrator 29.8.2, SVG Export Plug-In . SVG Version: 2.1.1 Build 3)  -->
  <defs>
    <style>
      .st0 {
        fill: #fd6909;
      }
    </style>
  </defs>
  <path class="st0" d="M60.79,34.39c-.19-.25-.48-.39-.79-.39h-25c0-2.21-1.79-4-4-4s-4,1.79-4,4c0,.2.04.38.06.57-5.8,1.71-10.06,7.08-10.06,13.43,0,7.72,6.28,14,14,14s14-6.28,14-14c0-.1,0-.2-.02-.29l13.33-4.34c.32-.1.57-.36.66-.69l2-7.42c.08-.3,0-.62-.18-.87ZM31,60c-6.62,0-12-5.38-12-12s5.38-12,12-12,12,5.38,12,12-5.38,12-12,12Z"/>
  <path class="st0" d="M31,39c-4.96,0-9,4.04-9,9s4.04,9,9,9,9-4.04,9-9-4.04-9-9-9ZM32,52c0,.55-.45,1-1,1s-1-.45-1-1v-1c0-.55.45-1,1-1s1,.45,1,1v1ZM32,48c0,.55-.45,1-1,1s-1-.45-1-1v-4c0-.55.45-1,1-1s1,.45,1,1v4Z"/>
  <path class="st0" d="M5.01,8.49c11.7-.15,17.21-3.05,18.99-4.25,1.78,1.2,7.29,4.1,18.99,4.25.03,3.11-.19,13.34-4.16,22.09-.23.5,0,1.1.5,1.32.5.23,1.1,0,1.32-.5,4.93-10.87,4.35-23.44,4.32-23.97s-.47-.95-1-.95c-14.29,0-19.26-4.2-19.3-4.24-.38-.34-.95-.34-1.33,0-.05.04-5.01,4.25-19.31,4.25-.53,0-.97.42-1,.95-.05.96-1.07,23.71,11.91,34.19.18.15.41.22.63.22.29,0,.58-.13.78-.37.35-.43.28-1.06-.15-1.41C5.45,31.4,4.97,12.88,5.01,8.49Z"/>
  <path class="st0" d="M33.31,15.28l-11.62,11.33-4.99-4.79c-.4-.38-1.03-.37-1.41.03s-.37,1.03.03,1.41l5.68,5.45c.19.19.44.28.69.28s.5-.09.7-.28l12.32-12c.4-.39.4-1.02.02-1.41-.38-.4-1.02-.4-1.41-.02h-.01Z"/>
</svg>