<?xml version="1.0" encoding="UTF-8"?>
<svg id="OBJECT" xmlns="http://www.w3.org/2000/svg" version="1.1" viewBox="0 0 512 512">
  <!-- Generator: Adobe Illustrator 29.8.2, SVG Export Plug-In . SVG Version: 2.1.1 Build 3)  -->
  <defs>
    <style>
      .st0 {
        fill: #fd6909;
      }
    </style>
  </defs>
  <path class="st0" d="M215.2,446.88c-4.53,2.28-9.87,2.28-14.4,0-83.5-42.59-136.27-128.19-136.8-221.92v-100.48c0-6.74,4.22-12.75,10.56-15.04l128-46.56c3.52-1.27,7.36-1.27,10.88,0l128,46.56c6.34,2.29,10.56,8.3,10.56,15.04v103.2c10.51-2.35,21.23-3.59,32-3.68,5.35,0,10.69.32,16,.96v-106.56c-.06-20.29-12.87-38.36-32-45.12L213.44,16.96c-3.52-1.27-7.36-1.27-10.88,0L48,73.28c-19.13,6.76-31.94,24.83-32,45.12v110.24c.29,119.1,74.74,225.41,186.56,266.4,3.52,1.27,7.36,1.27,10.88,0,22.11-8.02,43.12-18.77,62.56-32-10.21-11.49-18.47-24.57-24.48-38.72-11.46,8.52-23.61,16.07-36.32,22.56h0Z"/>
  <path class="st0" d="M320,240v-104.32l-112-40.8-112,40.8v89.28c.44,78.76,43.23,151.2,112,189.6,12.04-6.8,23.45-14.67,34.08-23.52-1.34-7.61-2.04-15.32-2.08-23.04.38-54.34,31.32-103.85,80-128ZM248.48,249.12l-24.48-25.12v84.16h-32v-84.16l-24,24-22.56-22.08,51.2-51.36c6.22-6.27,16.35-6.32,22.63-.09.03.03.06.06.09.09l51.2,51.36-22.08,23.2Z"/>
  <path class="st0" d="M384,256c-61.86,0-112,50.14-112,112s50.14,112,112,112,112-50.14,112-112-50.14-112-112-112ZM384,404c-6.22,6.27-16.35,6.32-22.63.09-.03-.03-.06-.06-.09-.09l-37.76-37.92,22.56-22.56,26.56,26.56,49.28-49.28,22.56,22.56-60.48,60.64Z"/>
</svg>