<?xml version="1.0" encoding="UTF-8"?>
<svg id="Layer_1" xmlns="http://www.w3.org/2000/svg" version="1.1" viewBox="0 0 510 510">
  <!-- Generator: Adobe Illustrator 29.8.2, SVG Export Plug-In . SVG Version: 2.1.1 Build 3)  -->
  <defs>
    <style>
      .st0 {
        fill: #fd6909;
        fill-rule: evenodd;
      }
    </style>
  </defs>
  <path class="st0" d="M180.14,242.43c12.16,2.89,23.75,7.69,34.41,14.26l22.36-9.94,26.34,26.34-9.9,22.36c6.57,10.66,11.37,22.25,14.26,34.45l22.81,8.78v37.26l-22.81,8.78c-2.89,12.16-7.73,23.75-14.26,34.41l9.9,22.36-26.34,26.34-22.36-9.91c-10.62,6.57-22.25,11.37-34.41,14.26l-8.78,22.81h-37.26l-8.78-22.81c-12.19-2.89-23.79-7.73-34.44-14.26l-22.36,9.91-26.34-26.34,9.94-22.36c-6.57-10.62-11.37-22.25-14.3-34.41l-22.81-8.78v-37.26l22.81-8.78c2.93-12.2,7.73-23.79,14.3-34.45l-9.94-22.36,26.34-26.34,22.36,9.94c10.66-6.57,22.25-11.37,34.41-14.26l8.82-22.85h37.26l8.78,22.85ZM152.71,281.43c-41.91,0-75.85,33.94-75.85,75.85s33.94,75.89,75.85,75.89,75.89-33.98,75.89-75.89-33.98-75.85-75.89-75.85ZM105.93,365.4c-3.12-3.12-3.12-8.19,0-11.31,3.12-3.12,8.19-3.12,11.31,0l18.62,18.61,52.66-47.77c3.27-2.97,8.33-2.72,11.3.55,2.97,3.27,2.72,8.33-.55,11.3l-58.3,52.89c-3.16,2.87-8.01,2.75-11.03-.27l-24-24ZM335.02,301c-31.27-51.43-74.58-94.75-126.01-126.01l52.9-91.63c67.47,40.58,124.16,97.27,164.74,164.74l-91.63,52.9ZM434.66,261.94c37.68,67.65,59.47,145.34,60.33,228.01.01,1.33-.51,2.61-1.45,3.56s-2.22,1.48-3.55,1.48c-17.84,0-78.05,0-95.79,0-2.74,0-4.97-2.21-5-4.95-.82-63.44-17.46-123.1-46.16-175.2l91.63-52.9ZM195.16,166.97c-52.1-28.7-111.76-45.34-175.2-46.17-2.74-.03-4.94-2.26-4.94-5,0-17.75,0-77.95,0-95.79,0-1.33.53-2.61,1.48-3.55.95-.94,2.23-1.46,3.56-1.45,82.67.86,160.35,22.65,228.01,60.33l-52.9,91.63Z"/>
</svg>