<?xml version="1.0" encoding="UTF-8"?>
<svg id="OBJECT" xmlns="http://www.w3.org/2000/svg" version="1.1" viewBox="0 0 32 32">
  <!-- Generator: Adobe Illustrator 29.8.2, SVG Export Plug-In . SVG Version: 2.1.1 Build 3)  -->
  <defs>
    <style>
      .st0 {
        fill: #fd6909;
      }
    </style>
  </defs>
  <path class="st0" d="M1,23.76v2.24c0,.29.13.57.34.76.22.19.51.28.8.23,3.44-.49,6.9-.8,10.36-.92v2.93h-4c-.55,0-1,.45-1,1s.45,1,1,1h15c.55,0,1-.45,1-1s-.45-1-1-1h-4v-2.93c3.46.12,6.92.43,10.36.92h.14c.24,0,.47-.09.66-.24.22-.19.34-.47.34-.76v-2.24c-9.98-.99-20.02-.99-30,0h0ZM17.5,29h-3v-2.97c1-.02,2-.02,3,0v2.97Z"/>
  <path class="st0" d="M30.66,7.24c-.22-.19-.51-.28-.8-.23-1.33.19-2.65.34-3.99.48.08.49.13,1,.13,1.51,0,5.51-4.49,10-10,10S6,14.51,6,9c0-.52.05-1.02.13-1.51-1.33-.13-2.66-.29-3.99-.48-.29-.04-.58.04-.8.23s-.34.47-.34.76v13.76c9.98-.98,20.02-.98,30,0v-13.76c0-.29-.13-.57-.34-.76Z"/>
  <path class="st0" d="M16,17c4.41,0,8-3.59,8-8S20.41,1,16,1s-8,3.59-8,8,3.59,8,8,8ZM16.21,13.33h-.42c-.55,0-1-.45-1-1s.45-1,1-1h.42c.55,0,1,.45,1,1s-.45,1-1,1ZM18.58,10.69c-.19.19-.45.29-.7.29s-.52-.1-.71-.3c-.62-.63-1.71-.63-2.33,0-.39.39-1.02.4-1.41,0-.39-.39-.4-1.02,0-1.41,1.38-1.39,3.79-1.39,5.17,0,.39.39.38,1.03,0,1.41h-.02ZM11.54,6.53c1.19-1.2,2.78-1.87,4.46-1.87s3.27.66,4.46,1.87c.39.39.38,1.03,0,1.42-.19.19-.45.29-.7.29s-.51-.1-.71-.3c-.81-.82-1.89-1.27-3.04-1.27s-2.23.45-3.04,1.27c-.39.39-1.02.4-1.41,0-.39-.39-.4-1.02,0-1.42h-.02Z"/>
</svg>