<svg id="Layer_1" enable-background="new 0 0 512 512" viewBox="0 0 512 512" xmlns="http://www.w3.org/2000/svg"><path d="m284.766 352.302c0 15.55 12.655 28.205 28.205 28.205h31.319c-7.635 8.054-18.374 12.845-29.822 12.845-22.636 0-41.05-18.414-41.05-41.05 0-22.616 18.414-41.02 41.05-41.02 11.458 0 22.207 4.791 29.832 12.845h-31.33c-15.549 0-28.204 12.635-28.204 28.175zm185.387-12.227h-157.183c-6.757 0-12.246 5.489-12.246 12.226 0 6.757 5.489 12.246 12.246 12.246h157.182c6.737 0 12.226-5.489 12.226-12.246.001-6.736-5.488-12.226-12.225-12.226zm-206.325-260.386h101.254c4.406 0 7.978-3.572 7.978-7.979 0-4.406-3.572-7.979-7.978-7.979h-101.254c-4.406 0-7.978 3.572-7.978 7.979s3.572 7.979 7.978 7.979zm66.369 47.413c-6.298 0-11.428 5.13-11.428 11.427 0 6.288 5.13 11.408 11.428 11.408 6.288 0 11.408-5.12 11.408-11.408-.001-6.297-5.121-11.427-11.408-11.427zm0 32.766c-6.298 0-11.428 5.12-11.428 11.428 0 6.288 5.13 11.398 11.428 11.398 6.288 0 11.408-5.11 11.408-11.398-.001-6.308-5.121-11.428-11.408-11.428zm-31.459-65.502c-6.298 0-11.428 5.12-11.428 11.408 0 6.298 5.13 11.428 11.428 11.428 6.288 0 11.398-5.13 11.398-11.428 0-6.288-5.11-11.408-11.398-11.408zm0 32.736c-6.298 0-11.428 5.13-11.428 11.427 0 6.288 5.13 11.408 11.428 11.408 6.288 0 11.398-5.12 11.398-11.408 0-6.297-5.11-11.427-11.398-11.427zm0 32.766c-6.298 0-11.428 5.12-11.428 11.428 0 6.288 5.13 11.398 11.428 11.398 6.288 0 11.398-5.11 11.398-11.398 0-6.308-5.11-11.428-11.398-11.428zm-31.458-32.766c-6.308 0-11.428 5.13-11.428 11.427 0 6.288 5.12 11.408 11.428 11.408 6.288 0 11.398-5.12 11.398-11.408-.001-6.297-5.11-11.427-11.398-11.427zm0 32.766c-6.308 0-11.428 5.12-11.428 11.428 0 6.288 5.12 11.398 11.428 11.398 6.288 0 11.398-5.11 11.398-11.398-.001-6.308-5.11-11.428-11.398-11.428zm0-65.502c-6.308 0-11.428 5.12-11.428 11.408 0 6.298 5.12 11.428 11.428 11.428 6.288 0 11.398-5.13 11.398-11.428-.001-6.288-5.11-11.408-11.398-11.408zm94.375 65.502c-6.298 0-11.428 5.12-11.428 11.428 0 6.288 5.13 11.398 11.428 11.398 6.288 0 11.408-5.11 11.408-11.398 0-6.308-5.12-11.428-11.408-11.428zm0-65.502c-6.298 0-11.428 5.12-11.428 11.408 0 6.298 5.13 11.428 11.428 11.428 6.288 0 11.408-5.13 11.408-11.428 0-6.288-5.12-11.408-11.408-11.408zm-31.458 0c-6.298 0-11.428 5.12-11.428 11.408 0 6.298 5.13 11.428 11.428 11.428 6.288 0 11.408-5.13 11.408-11.428-.001-6.288-5.121-11.408-11.408-11.408zm31.458 32.736c-6.298 0-11.428 5.13-11.428 11.427 0 6.288 5.13 11.408 11.428 11.408 6.288 0 11.408-5.12 11.408-11.408 0-6.297-5.12-11.427-11.408-11.427zm53.895 253.404h15.959v52.457c0 16.817-13.683 30.49-30.5 30.49h-165.367c-1.267 15.819-6.777 31.059-11.737 43.106-1.238 2.984-4.152 4.94-7.376 4.94h-133.03c-3.363 0-6.367-2.116-7.505-5.28l-42.297-117.609c-.04-.13-.09-.259-.13-.379-8.873-29.253-2.765-52.278 18.135-68.476v-187.643c0-14.322 11.647-25.969 25.969-25.969h119.756v-75.173c0-16.797 13.673-30.47 30.47-30.47h173.111c16.817 0 30.5 13.673 30.5 30.47v293.156h-15.958-51.54c-10.04-17.656-28.963-28.804-49.543-28.804-31.428 0-57.009 25.56-57.009 56.979 0 31.428 25.58 57.008 57.009 57.008 20.56 0 39.483-11.148 49.543-28.804h51.54zm-215.618 33.555c-1.597-1.507-2.505-3.603-2.505-5.799v-100.014c0-8.673-7.056-15.729-15.729-15.729-8.683 0-15.759 7.056-15.759 15.729v67.987c0 4.411-3.573 7.984-7.974 7.984h-80.294c-14.322 0-25.969-11.657-25.969-25.979v-15.58c-7.086 10.659-7.974 23.963-2.914 40.75l40.321 112.131h122.021c12.515-32.167 14.391-57.338-11.198-81.48zm26.358-281.949c0-5.519-4.511-10.01-10.05-10.01h-138.569c-5.519 0-10.01 4.491-10.01 10.01v191.675 34.453c0 5.529 4.491 10.02 10.01 10.02h72.319v-60.012c0-17.466 14.222-31.678 31.708-31.678 17.476 0 31.688 14.212 31.688 31.678v60.012h2.854c5.539 0 10.05-4.491 10.05-10.02v-149.148zm15.949 69.005h144.457v-155.805h-144.457v86.8zm-95.281-34.717c-22.52 0-44.117 9.07-62.457 26.229-3.217 3.01-3.385 8.058-.375 11.276 1.571 1.679 3.696 2.528 5.828 2.528 1.953 0 3.911-.713 5.449-2.153 15.33-14.342 33.157-21.923 51.555-21.923 18.424 0 36.25 7.579 51.551 21.919 3.215 3.013 8.264 2.85 11.277-.365s2.849-8.264-.365-11.278c-18.313-17.161-39.912-26.233-62.463-26.233zm46.878 46.788c-14.012-11.73-30.222-17.931-46.879-17.931-16.671 0-32.874 6.203-46.858 17.937-3.375 2.831-3.816 7.865-.983 11.24s7.865 3.814 11.24.982c11.073-9.291 23.729-14.202 36.601-14.202 12.865 0 25.533 4.913 36.636 14.208 1.494 1.251 3.311 1.862 5.117 1.862 2.28 0 4.544-.973 6.122-2.858 2.829-3.379 2.383-8.411-.996-11.238zm-16.162 20.712c-9.402-6.401-20.023-9.786-30.717-9.786-10.675 0-21.286 3.385-30.688 9.786-3.642 2.48-4.584 7.443-2.103 11.085 2.479 3.642 7.443 4.583 11.085 2.104 6.839-4.658 14.142-7.018 21.707-7.018 7.584 0 14.897 2.361 21.735 7.018 1.375.936 2.937 1.384 4.483 1.384 2.551 0 5.057-1.22 6.601-3.488 2.481-3.642 1.539-8.605-2.103-11.085z"/></svg>