<svg id="Solid" enable-background="new 0 0 256 256" height="512" viewBox="0 0 256 256" width="512" xmlns="http://www.w3.org/2000/svg"><g><path d="m165.566 54.1763h-27.5415c-.1602 2.7076-1.26 5.3694-3.3243 7.4337-2.1682 2.1682-5.051 3.3623-8.1173 3.3623s-5.949-1.1941-8.1172-3.3623c-2.0057-2.0057-3.1646-4.6254-3.3289-7.4337h-27.7369v14.6797h78.1661z"/><path d="m121.577 48.4868c-2.7647 2.7647-2.7647 7.2472 0 10.0119 1.3824 1.3824 3.1941 2.0735 5.0059 2.0735s3.6236-.6912 5.006-2.0735c2.7647-2.7647 2.7647-7.2472 0-10.0119-1.3824-1.3824-3.1942-2.0735-5.0059-2.0735-1.8119 0-3.6236.6912-5.006 2.0735z"/><path d="m126.5829 13.4371c11.1152 0 21.5636 4.356 29.4207 12.266l3.9021-3.8758c-8.8972-8.9574-20.7316-13.8902-33.3228-13.8902s-24.4253 4.9328-33.3225 13.8902l3.9021 3.8758c7.857-7.91 18.3054-12.266 29.4204-12.266z"/><path d="m151.0179 30.6896c-6.5406-6.4985-15.2185-10.0778-24.435-10.0778s-17.8941 3.5793-24.4347 10.0778l3.8769 3.9016c5.503-5.4678 12.8039-8.4793 20.5579-8.4793 7.7542 0 15.0552 3.0116 20.5581 8.4793z"/><path d="m142.4966 39.2033c-4.2649-4.2211-9.9167-6.5463-15.9137-6.5463-5.9971 0-11.6488 2.3251-15.9137 6.5463l3.8693 3.9091c3.2283-3.1958 7.5056-4.9554 12.0444-4.9554s8.8161 1.7596 12.0444 4.9554z"/><path d="m87.4 198.847h78.166v8.882h-78.166z"/><path d="m87.4 73.256h78.166v8.882h-78.166z"/><path d="m152.181 139.3159c0-1.2833.5603-2.5027 1.534-3.3386l11.851-10.1732v-39.2659h-78.1661v39.0942l12.0507 10.3448c.9737.8359 1.534 2.0553 1.534 3.3386s-.5603 2.5027-1.534 3.3386l-12.0507 10.3448v41.4481h78.1661v-41.6196l-11.851-10.1732c-.9737-.8359-1.534-2.0553-1.534-3.3386z"/><path d="m20.872 54.1763v164.1637c0 3.3725 2.7436 6.1161 6.1161 6.1161s6.1161-2.7435 6.1161-6.1161v-164.1637h-12.2304z"/><path d="m42.3677 149.6118v-20.592c0-2.43 1.9699-4.4 4.4-4.4h2.9682v-70.4435h-12.2318v164.1637c0 3.3725 2.7436 6.1161 6.1161 6.1161 3.3722 0 6.1158-2.7435 6.1158-6.1161v-64.3282h-2.9682c-2.4301 0-4.4001-1.9699-4.4001-4.4z"/><path d="m54.1359 218.3401c0 3.3725 2.7436 6.1161 6.1161 6.1161s6.1161-2.7435 6.1161-6.1161v-64.3282h-12.2322z"/><path d="m54.136 54.176h12.232v70.444h-12.232z"/><path d="m71.3172 165.4057c-.1831 0-.3663-.0151-.5491-.0381v52.9724c0 3.3725 2.7436 6.1161 6.1161 6.1161 3.3722 0 6.1158-2.7435 6.1158-6.1161v-61.5638l-8.816 7.5679c-.8138.6987-1.8345 1.0616-2.8668 1.0616z"/><path d="m74.184 114.2874 8.816 7.5679v-67.679h-12.2319v59.0877c.1828-.023.366-.0381.5491-.0381 1.0322.0001 2.0531.3631 2.8668 1.0615z"/><path d="m178.9818 164.3443-9.0157-7.7394v61.7352c0 3.3725 2.7435 6.1161 6.1161 6.1161s6.1161-2.7435 6.1161-6.1161v-52.9529c-.1165.0093-.2331.0186-.3496.0186-1.0323-.0001-2.0533-.363-2.8669-1.0615z"/><path d="m181.8485 113.226c.1165 0 .2331.0093.3496.0186v-59.0683h-12.2321v67.8505l9.0157-7.7394c.8138-.6985 1.8346-1.0614 2.8668-1.0614z"/><path d="m186.5981 218.3401c0 3.3725 2.7435 6.1161 6.1158 6.1161 3.3725 0 6.1161-2.7435 6.1161-6.1161v-64.3282h-12.2319z"/><path d="m186.598 54.176h12.232v70.444h-12.232z"/><path d="m203.23 124.6198h3.168c2.4301 0 4.4 1.97 4.4 4.4v20.592c0 2.43-1.9699 4.4-4.4 4.4h-3.168v64.3282c0 3.3725 2.7436 6.1161 6.1161 6.1161s6.1161-2.7435 6.1161-6.1161v-164.1637h-12.2322z"/><path d="m219.8621 54.1763v164.1637c0 3.3725 2.7435 6.1161 6.1158 6.1161 3.3725 0 6.1161-2.7435 6.1161-6.1161v-164.1637z"/><path d="m96.5847 139.3159-25.2667-21.6899v11.3938h-24.5503v20.592h24.5503v11.3939z"/><path d="m156.581 139.3159 25.2667 21.6898v-11.3939h24.5503v-20.592h-24.5503v-11.3938z"/></g></svg>