<svg enable-background="new 0 0 512 512" viewBox="0 0 512 512" xmlns="http://www.w3.org/2000/svg"><g id="_x33_9_Smoke_Detector"><g><path d="m255.976 12.068c-135.591 0-241.864 44.384-241.864 101.012v77.002c0 43.858 60.549 70.88 102.637 83.028l10.235 31.088c.287.861.813 1.483 1.435 2.057 9.756 26.975 62.319 47.014 127.556 47.014 65.284 0 117.751-19.992 127.603-46.967.622-.574 1.148-1.244 1.435-2.104l10.235-31.136c62.415-18.079 102.638-48.162 102.638-82.98v-77.002c.001-56.628-106.272-101.012-241.91-101.012zm0 300.309c-21.81 0-38.119-8.083-38.119-15.305s16.309-15.257 38.119-15.257c21.857 0 38.166 8.035 38.166 15.257s-16.309 15.305-38.166 15.305zm148.265-96.947-22.575 68.298c-13.439-24.87-63.802-42.853-125.69-42.853-61.841 0-112.204 17.983-125.643 42.853l-22.527-68.202c-2.87-9.9.669-20.327 8.847-25.923 34.149-23.387 84.942-36.827 139.322-36.827 54.427 0 105.22 13.439 139.369 36.827 8.179 5.597 11.718 15.975 8.897 25.827zm38.597-57.249c-.909 1.53-2.487 2.391-4.161 2.391-.813 0-1.627-.239-2.391-.67-13.583-7.844-31.327-15.066-51.319-20.805-2.535-.717-3.97-3.396-3.253-5.931.718-2.535 3.348-4.017 5.931-3.252 20.996 6.026 38.979 13.344 53.423 21.714 2.296 1.34 3.109 4.257 1.77 6.553zm45.484 3.157c-39.315-57.154-162.9-72.219-232.345-72.219-68.298 0-193.653 16.022-232.298 72.219v-48.258c0-49.549 106.416-91.446 232.298-91.446 125.929 0 232.345 41.897 232.345 91.446z"/><path d="m261.069 423.2c7.09-16.137 6.474-31.688-1.691-42.669-1.574-2.123-4.577-2.564-6.693-.983-2.12 1.576-2.56 4.573-.986 6.691 8.357 11.236 3.889 24.046-.248 34.997-3.779 8.157-12.629 27.258 5.838 40.541 2.158 1.55 5.142 1.039 6.674-1.091 1.546-2.146 1.056-5.133-1.088-6.677-11.964-8.605-6.62-19.019-1.806-30.809z"/><path d="m306.799 417.787c-1.574-2.118-4.582-2.564-6.693-.983-2.12 1.576-2.56 4.573-.986 6.691 8.603 11.565 3.297 27.008.617 33.11-7.79 16.812-10.597 31.23 4.974 42.428 2.158 1.55 5.142 1.039 6.674-1.091 1.546-2.146 1.056-5.133-1.088-6.677-11.125-8.001-7.454-18.596-2.742-28.762.122-.555 13.625-25.378-.756-44.716z"/><path d="m211.957 417.784c-1.574-2.12-4.577-2.562-6.693-.983-2.12 1.576-2.56 4.573-.986 6.691 8.603 11.567 3.297 27.01.612 33.115-7.783 16.815-10.593 31.225 4.979 42.423 2.13 1.53 5.121 1.068 6.674-1.091 1.546-2.146 1.056-5.133-1.088-6.677-11.121-7.996-7.454-18.587-2.746-28.748.119-.544 13.627-25.39-.752-44.73z"/></g></g><g id="Layer_1"/></svg>