<svg id="Layer_1" height="512" viewBox="0 0 55 55" width="512" xmlns="http://www.w3.org/2000/svg" data-name="Layer 1"><path d="m49.62 6.74h-44.23a2.8 2.8 0 0 0 -2.8 2.79v35.94a2.8 2.8 0 0 0 2.8 2.79h44.23a2.8 2.8 0 0 0 2.79-2.79v-35.94a2.8 2.8 0 0 0 -2.79-2.79zm-32.42 9.93a.75.75 0 1 1 1.5 0v3.87a.75.75 0 0 1 -1.5 0zm-3-2.22a.75.75 0 0 1 1.5 0v8.31a.75.75 0 0 1 -1.5 0zm-3 2.22a.75.75 0 0 1 1.5 0v3.87a.75.75 0 0 1 -1.5 0zm-1.63 2.83a.75.75 0 0 1 -1.5 0v-1.79a.75.75 0 0 1 1.5 0zm5.33 20.32a5 5 0 1 1 5-5 5 5 0 0 1 -5 5zm6.84-20.32a.75.75 0 0 1 -1.5 0v-1.79a.75.75 0 0 1 1.5 0zm9 23.11h-2.27a.75.75 0 0 1 0-1.5h2.29a.75.75 0 1 1 0 1.5zm0-5h-2.27a.75.75 0 0 1 0-1.5h2.29a.75.75 0 1 1 0 1.5zm0-5h-2.27a.75.75 0 0 1 0-1.5h2.29a.75.75 0 0 1 0 1.5zm0-5h-2.27a.75.75 0 0 1 0-1.5h2.29a.75.75 0 0 1 0 1.5zm7.3 15.1h-2.27a.75.75 0 1 1 0-1.5h2.29a.75.75 0 0 1 0 1.5zm0-5h-2.27a.75.75 0 1 1 0-1.5h2.29a.75.75 0 0 1 0 1.5zm0-5h-2.27a.75.75 0 0 1 0-1.5h2.29a.75.75 0 0 1 0 1.5zm0-5h-2.27a.75.75 0 0 1 0-1.5h2.29a.75.75 0 0 1 0 1.5zm7.3 15.1h-2.3a.75.75 0 0 1 0-1.5h2.3a.75.75 0 0 1 0 1.5zm0-5h-2.3a.75.75 0 0 1 0-1.5h2.3a.75.75 0 0 1 0 1.5zm0-5h-2.3a.75.75 0 0 1 0-1.5h2.3a.75.75 0 0 1 0 1.5zm0-5h-2.3a.75.75 0 0 1 0-1.5h2.3a.75.75 0 0 1 0 1.5zm3-5.29a.76.76 0 0 1 -.75.75h-21.42a.75.75 0 0 1 -.75-.75v-11.03a.75.75 0 0 1 .75-.75h21.49a.76.76 0 0 1 .75.75z"/></svg>