<svg id="Layer_1" viewBox="0 0 512 512" xmlns="http://www.w3.org/2000/svg" data-name="Layer 1"><path d="m220.085 493.161c-38.013-7.512-71.858-26.731-97.568-53.717 15.279-16.044 33.392-29.31 53.575-39.033 4.054 18.255 9.326 34.838 15.59 49.238 7.965 18.34 17.604 33.194 28.403 43.512zm-11.055-129.402c-10.035-12.047-19.786-24.35-29.282-36.822.652 19.587 2.608 38.324 5.641 55.729 10.233-3.912 20.835-7.03 31.777-9.213-2.722-3.203-5.443-6.435-8.136-9.694zm-42.123-45.099h-95.103c1.446 42.265 17.093 80.929 42.35 111.345 16.866-17.546 36.992-31.946 59.357-42.293-3.94-21.373-6.265-44.646-6.604-69.052zm59.896 65.877c-13.55 2.155-26.589 5.783-38.977 10.687 3.94 18.425 9.156 35.093 15.392 49.408 12.501 28.743 28.772 47.707 46.488 51.364v-89.83c-2.75-.964-5.244-2.58-7.342-4.734-5.301-5.499-10.488-11.168-15.562-16.895zm120.954-78.491h92.438c-1.162-35.036-12.076-67.549-30.104-94.932-1.474-2.239-3.005-4.422-4.564-6.605-.567 1.956-1.19 3.912-1.871 5.868-5.783 16.923-15.647 34.328-24.973 49.578-9.638 15.732-20.098 31.096-30.926 46.091zm-214.413-46.091c-9.326-15.25-19.219-32.655-25.001-49.578-.652-1.956-1.275-3.912-1.871-5.868-1.559 2.183-3.089 4.366-4.535 6.605-18.028 27.383-28.97 59.896-30.132 94.932h92.438c-10.829-14.995-21.26-30.359-30.898-46.091zm202.592 140.457c-4.054 18.255-9.354 34.838-15.591 49.238-7.965 18.369-17.603 33.222-28.431 43.512 36.482-7.2 69.108-25.172 94.422-50.485 1.077-1.077 2.126-2.154 3.146-3.231-15.25-16.044-33.392-29.31-53.546-39.033zm-9.326-17.745c3.062-17.405 5.018-36.142 5.669-55.729-9.496 12.5-19.275 24.774-29.282 36.822-2.693 3.26-5.415 6.491-8.164 9.694 10.942 2.183 21.572 5.301 31.776 9.213zm-2.438 12.558c-12.388-4.904-25.427-8.532-38.977-10.687-5.074 5.726-10.261 11.396-15.562 16.895-2.069 2.154-4.564 3.77-7.313 4.734v89.83c17.688-3.657 33.987-22.621 46.488-51.364 6.208-14.315 11.423-30.983 15.364-49.408zm14.343-7.512c22.365 10.347 42.463 24.747 59.357 42.293 25.257-30.416 40.904-69.08 42.321-111.345h-95.103c-.34 24.406-2.665 47.679-6.576 69.052zm53.206-181.417c-16.696 48.841-90.595 144.227-131.159 186.378-1.247 1.275-2.778 1.927-4.563 1.927s-3.316-.652-4.536-1.927c-40.592-42.151-114.491-137.537-131.188-186.378-17.178-50.315-5.782-108.454 34.158-148.394 27.921-27.921 64.743-41.896 101.565-41.896s73.644 13.975 101.565 41.896c39.968 39.94 51.335 98.079 34.157 148.394zm-46.148-46.829c0-49.238-40.309-89.546-89.575-89.546s-89.546 40.309-89.546 89.546 40.309 89.575 89.546 89.575 89.575-40.309 89.575-89.575zm-125.064-46.431c-4.649 0-8.419 3.77-8.419 8.418v76.224c0 4.649 3.77 8.419 8.419 8.419s8.419-3.77 8.419-8.419v-76.224c0-4.648-3.77-8.418-8.419-8.418zm81.383 9.014c5.556 5.527 9.014 13.209 9.014 21.628s-3.458 16.129-9.014 21.657c-5.556 5.556-13.209 9.014-21.657 9.014h-13.805v23.329c0 4.649-3.771 8.419-8.419 8.419s-8.419-3.77-8.419-8.419v-76.224c0-4.648 3.77-8.418 8.419-8.418h22.224c8.447 0 16.101 3.458 21.657 9.014zm-7.824 21.628c0-3.77-1.559-7.228-4.082-9.751-2.495-2.495-5.953-4.054-9.751-4.054h-13.805v27.638h13.805c3.798 0 7.256-1.559 9.751-4.054 2.523-2.523 4.082-5.981 4.082-9.78z"/></svg>