<svg id="Layer_1" enable-background="new 0 0 512 512" height="512" viewBox="0 0 512 512" width="512" xmlns="http://www.w3.org/2000/svg"><g><path d="m471.192 473.607h-18.12l-.205-3.523h-16.011l-.2 3.523h-18.131c-3.313 0-6 2.687-6 6s2.687 6 6 6h52.666c3.313 0 6-2.687 6-6s-2.685-6-5.999-6z"/><path d="m284.432 154.712c2.178 3.066 4.224 6.511 6.115 10.325 2.152 4.351 4.024 9.056 5.625 14.018 5.604-1.613 10.888-3.593 15.715-5.937-.374-.389-.734-.789-1.117-1.172-7.743-7.733-16.739-13.468-26.338-17.234z"/><path d="m224.315 259.974c20.344-3.898 43.054-3.899 63.384-.003 1.978-8.697 3.132-17.972 3.479-27.347h-70.35c.349 9.376 1.505 18.652 3.487 27.35z"/><path d="m317.69 183.649c-5.612 2.769-11.813 5.071-18.395 6.927 2.145 9.563 3.386 19.753 3.734 30.048h30.162c-1.051-13.76-5.702-26.79-13.504-38.002-.643.34-1.305.682-1.997 1.027z"/><path d="m256.001 196.237c-10.765 0-21.522-.984-31.689-2.932-1.979 8.687-3.135 17.951-3.482 27.319h70.349c-.348-9.368-1.501-18.634-3.477-27.322-10.172 1.95-20.934 2.935-31.701 2.935z"/><path d="m257.123 149.363c-.748-.011-1.496-.01-2.244 0-8.119.644-16.313 8.205-22.642 20.999l-.002.004c-1.771 3.573-3.328 7.413-4.69 11.443 18.291 3.434 38.64 3.433 56.931-.004-1.36-4.03-2.914-7.871-4.682-11.444-6.343-12.795-14.548-20.357-22.671-20.998z"/><path d="m319.781 451.369v-73.187c0-2.433-2.048-4.489-4.473-4.489h-118.587c-2.44 0-4.502 2.056-4.502 4.489v73.187h7.04v-64.659c0-3.313 2.687-6 6-6h101.481c3.313 0 6 2.687 6 6v64.659z"/><path d="m211.259 392.71h89.481v58.659h-89.481z"/><path d="m200.111 173.119c4.832 2.346 10.123 4.328 15.735 5.942 1.604-4.963 3.479-9.669 5.636-14.021 1.888-3.816 3.933-7.263 6.109-10.33-9.606 3.766-18.61 9.503-26.364 17.239-.383.382-.743.781-1.116 1.17z"/><path d="m178.682 464.767c0 8.734 7.104 15.839 15.838 15.839h122.96c8.749 0 15.867-7.105 15.867-15.839v-1.398h-154.665z"/><path d="m121.034 456.416h-107.789c-2.893 0-5.245 2.333-5.245 5.202v24.098c0 2.82 2.402 5.202 5.245 5.202h107.789c2.843 0 5.245-2.382 5.245-5.202v-24.098c0-2.869-2.352-5.202-5.245-5.202zm-38.379 23.236h-58.491c-3.313 0-6-2.687-6-6s2.687-6 6-6h58.491c3.313 0 6 2.687 6 6s-2.686 6-6 6zm27.46 0h-4.85c-3.313 0-6-2.687-6-6s2.687-6 6-6h4.85c3.313 0 6 2.687 6 6s-2.686 6-6 6z"/><path d="m121.034 363.383h-107.789c-2.893 0-5.245 2.333-5.245 5.202v24.098c0 2.819 2.402 5.202 5.245 5.202h107.789c2.843 0 5.245-2.382 5.245-5.202v-24.098c0-2.869-2.352-5.202-5.245-5.202zm-38.379 23.236h-58.491c-3.313 0-6-2.687-6-6s2.687-6 6-6h58.491c3.313 0 6 2.687 6 6s-2.686 6-6 6zm27.46 0h-4.85c-3.313 0-6-2.687-6-6s2.687-6 6-6h4.85c3.313 0 6 2.687 6 6s-2.686 6-6 6z"/><path d="m192.316 270.652c.642-.339 1.302-.679 1.992-1.023 5.619-2.77 11.826-5.073 18.413-6.929-2.15-9.573-3.395-19.772-3.744-30.076h-30.17c1.05 13.766 5.703 26.806 13.509 38.028z"/><path d="m385.749 455.199c0 1.563 1.326 2.884 2.896 2.884h112.459c1.57 0 2.896-1.321 2.896-2.884v-5.737h-118.251z"/><path d="m121.034 409.884h-107.789c-2.843 0-5.245 2.382-5.245 5.202v24.098c0 2.885 2.353 5.231 5.245 5.231h107.789c2.893 0 5.245-2.347 5.245-5.231v-24.098c0-2.819-2.402-5.202-5.245-5.202zm-92.02 23.266h-4.85c-3.313 0-6-2.687-6-6s2.687-6 6-6h4.85c3.313 0 6 2.687 6 6s-2.687 6-6 6zm81.101 0h-58.491c-3.313 0-6-2.687-6-6s2.687-6 6-6h58.491c3.313 0 6 2.687 6 6s-2.686 6-6 6z"/><path d="m501.104 373.694h-112.459c-1.569 0-2.896 1.321-2.896 2.884v60.885h118.251v-60.885c0-1.564-1.326-2.884-2.896-2.884z"/><path d="m319.683 270.653c7.806-11.222 12.459-24.262 13.509-38.029h-30.162c-.348 10.303-1.59 20.502-3.737 30.074 6.574 1.854 12.767 4.153 18.372 6.919.701.349 1.369.694 2.018 1.036z"/><path d="m200.112 280.158c.375.39.734.79 1.118 1.174 7.751 7.734 16.754 13.469 26.359 17.235-2.177-3.067-4.221-6.515-6.109-10.331-2.155-4.352-4.029-9.056-5.632-14.017-5.611 1.613-10.902 3.594-15.736 5.939z"/><path d="m279.795 282.91c1.766-3.573 3.319-7.414 4.678-11.443-18.283-3.434-38.629-3.434-56.925.002 1.362 4.029 2.918 7.87 4.688 11.443 6.336 12.808 14.54 20.37 22.666 21.002.37.005.739.026 1.109.026.362 0 .725-.021 1.087-.026 8.131-.625 16.346-8.189 22.697-21.004z"/><path d="m151.678 238.274h15.651c-.497-3.833-.773-7.718-.773-11.646 0-23.867 9.302-46.301 26.192-63.17l.002-.002c16.877-16.839 38.866-25.508 61.019-26.058.738-.061 1.479-.096 2.226-.097h.01c.747 0 1.49.035 2.229.096 22.16.545 44.151 9.215 61.018 26.061 16.891 16.869 26.192 39.304 26.192 63.17 0 3.929-.276 7.813-.773 11.646h15.681c32.684 0 59.273-26.553 59.273-59.191 0-32.655-26.59-59.221-59.273-59.221-1.444 0-2.882.054-4.271.161-2.694.204-5.224-1.434-6.123-4.001-8.302-23.74-30.799-39.689-55.98-39.689-9.939 0-19.817 2.53-28.566 7.316-1.474.805-3.214.958-4.803.42s-2.88-1.715-3.561-3.249c-9.498-21.39-30.771-35.211-54.197-35.211-32.7 0-59.304 26.553-59.304 59.191 0 3.131.249 6.238.761 9.5.496 3.164-1.58 6.16-4.717 6.807-27.358 5.64-47.216 30.023-47.216 57.978-.001 32.635 26.603 59.189 59.303 59.189z"/><path d="m311.887 280.158c-4.826-2.345-10.11-4.326-15.716-5.94-1.6 4.96-3.471 9.664-5.621 14.015-1.892 3.818-3.94 7.266-6.121 10.334 9.6-3.766 18.596-9.502 26.341-17.238.383-.382.743-.782 1.117-1.171z"/><path d="m192.312 182.621c-7.803 11.212-12.454 24.242-13.505 38.002h30.17c.35-10.294 1.593-20.482 3.74-30.044-6.576-1.853-12.773-4.153-18.382-6.918-.702-.35-1.373-.696-2.023-1.04z"/><path d="m328.869 51.515c-7.812-3.783-16.626-4.359-24.812-1.621-3.144 1.051-4.839 4.451-3.788 7.593 1.051 3.143 4.451 4.837 7.593 3.788 5.2-1.738 10.803-1.37 15.796 1.049 3.856 1.851 7.023 4.793 9.158 8.508 1.109 1.931 3.13 3.011 5.208 3.011 1.014 0 2.042-.257 2.984-.799 2.873-1.651 3.863-5.319 2.212-8.192-3.349-5.826-8.318-10.442-14.351-13.337z"/><path d="m299.343 35.546c11.921-3.952 24.752-3.119 36.123 2.341 8.796 4.247 16.025 10.979 20.905 19.47 1.11 1.93 3.13 3.011 5.208 3.011 1.014 0 2.042-.257 2.984-.799 2.873-1.651 3.863-5.319 2.212-8.192-6.089-10.593-15.111-18.995-26.104-24.302-14.199-6.818-30.216-7.855-45.104-2.919-3.146 1.042-4.851 4.438-3.808 7.583 1.044 3.145 4.442 4.849 7.584 3.807z"/><path d="m319.253 289.818c-.604.604-1.23 1.174-1.848 1.757h109.529c6.583 0 11.939 5.333 11.939 11.888v58.231h12v-58.231c0-13.172-10.739-23.888-23.939-23.888h-98.874c-2.654 3.596-5.586 7.024-8.807 10.243z"/><path d="m73.125 303.463c0-6.555 5.356-11.888 11.939-11.888h109.531c-.617-.582-1.241-1.15-1.845-1.753-3.222-3.221-6.156-6.65-8.811-10.247h-98.875c-13.2 0-23.939 10.716-23.939 23.888v47.92h12z"/><path d="m255.994 315.977c-.746 0-1.487-.036-2.225-.097-1.252-.031-2.504-.096-3.754-.179v45.993h12v-45.993c-1.26.084-2.522.149-3.784.18-.739.061-1.48.096-2.227.096-.004 0-.006 0-.01 0z"/></g></svg>