<svg id="Layer_1" enable-background="new 0 0 66 66" height="512" viewBox="0 0 66 66" width="512" xmlns="http://www.w3.org/2000/svg"><g><path d="m54.84 43.05c-.64-.64-1.68-.64-2.32 0l-2.14 2.14c-.24.24-.62.3-.92.12-1.53-.93-3.05-2.11-4.48-3.54-1.35-1.35-2.48-2.78-3.39-4.23-.19-.3-.13-.68.11-.93l2.19-2.19c.64-.64.64-1.68 0-2.32l-2.91-2.91c-.56-.56-1.43-.63-2.07-.21-.09.06-.17.13-.25.21l-2.09 2.12c-.55.56-.86 1.31-.87 2.09-.06 3.53 2.07 8.09 5.91 11.94 3.85 3.85 8.42 5.98 11.95 5.92.79-.01 1.53-.32 2.09-.87.85-.84 2.11-2.1 2.11-2.1.15-.15.27-.34.35-.52.25-.6.13-1.32-.35-1.8z"/><path d="m62.98 24.44h-14.28c-.56 0-1.02.45-1.02 1.02v9.17c0 .56.45 1.02 1.02 1.02h2.26v3.5l4.4-3.5h7.63c.56 0 1.02-.45 1.02-1.02v-9.17c-.01-.57-.46-1.02-1.03-1.02zm-4.6 6.6h-1.54v1.54c0 .55-.45 1-1 1s-1-.45-1-1v-1.54h-1.54c-.55 0-1-.45-1-1s.45-1 1-1h1.54v-1.54c0-.55.45-1 1-1s1 .45 1 1v1.54h1.54c.55 0 1 .45 1 1s-.45 1-1 1z"/><path d="m11.07 18.45c.21.03.42.02.63-.03.72-.2 2.23-.96 3.71-3.81l.27-.52c.51-.99 1.86-1.16 2.61-.33l.39.43c.1.11 2.73 2.9 7.16 2.9h.24c3.76 0 6.11 1.73 7.39 3.44.56-2.79.63-7.18-3.08-10.39-8.43-7.3-13.55 1.37-13.55 1.37s-7.57.39-6.27 6.97c.17-.04.33-.06.5-.03z"/><path d="m21.96 39.67c-1.77 0-3.38-.49-4.82-1.29v1.18c-.71.18-1.4.4-2.08.64l.04.13c1.01 2.92 3.76 4.89 6.85 4.89s5.84-1.96 6.85-4.89l.04-.13c-.68-.25-1.37-.47-2.08-.64v-1.17c-1.42.79-3.03 1.28-4.8 1.28z"/><path d="m35 43.61v4.95c1.46.43 2.53 1.77 2.53 3.37 0 1.95-1.58 3.53-3.53 3.53s-3.53-1.58-3.53-3.53c0-1.6 1.07-2.94 2.53-3.37v-6.46c-.73-.49-1.5-.93-2.3-1.31-1.25 3.63-4.69 6.23-8.74 6.23s-7.49-2.61-8.74-6.23c-.35.17-.7.36-1.04.55v7.17c2.16.46 3.79 2.38 3.79 4.68 0 .55-.45 1-1 1s-1-.45-1-1c0-1.54-1.25-2.79-2.79-2.79s-2.79 1.25-2.79 2.79c0 .55-.45 1-1 1s-1-.45-1-1c0-2.3 1.63-4.22 3.79-4.68v-5.88c-4.55 3.32-7.66 8.49-8.18 14.42-.08.93.63 1.74 1.57 1.74h36.78c.94 0 1.65-.81 1.57-1.74-.46-5.37-3.05-10.12-6.92-13.44z"/><path d="m11.48 29.16c.19-.05.36-.16.51-.29 1.79 4.55 5.57 8.6 9.97 8.6 4.39 0 8.18-4.06 9.97-8.6.16.13.32.23.51.29 1.16.33 2.53-.87 3.04-2.69.52-1.82 0-3.56-1.17-3.89-.43-.12-.89-.03-1.32.22-.01-.08-.01-.21-.03-.37-.18.51-.31.8-.31.8s-1.18-4.21-6.69-4.15-8.78-3.56-8.78-3.56c-2.72 5.25-6 4.97-6 4.96-.13.87-.22 1.79-.26 2.32-.43-.25-.89-.34-1.33-.22-1.16.33-1.69 2.07-1.17 3.89.54 1.82 1.9 3.02 3.06 2.69zm13.38-5.22c.83 0 1.5.67 1.5 1.5s-.67 1.5-1.5 1.5-1.5-.67-1.5-1.5.67-1.5 1.5-1.5zm-1.21 5.96c.39-.39 1.02-.39 1.41 0s.39 1.02 0 1.41c-.83.83-1.93 1.29-3.1 1.29s-2.27-.46-3.1-1.29c-.39-.39-.39-1.02 0-1.41s1.02-.39 1.41 0c.91.9 2.48.91 3.38 0zm-4.58-5.96c.83 0 1.5.67 1.5 1.5s-.67 1.5-1.5 1.5-1.5-.67-1.5-1.5.67-1.5 1.5-1.5z"/><circle cx="33.96" cy="51.94" r="2"/></g></svg>