<svg height="512pt" viewBox="-48 0 512 512" width="512pt" xmlns="http://www.w3.org/2000/svg"><path d="m287.464844 482h-15.035156v-47.917969c-20.433594 6.738281-42.261719 10.386719-64.929688 10.386719s-44.496094-3.648438-64.929688-10.386719v47.917969h-15.035156c-8.28125 0-15 6.714844-15 15s6.71875 15 15 15h159.929688c8.28125 0 15-6.714844 15-15s-6.71875-15-15-15zm0 0"/><path d="m207.5 0c-114.421875 0-207.5 92.960938-207.5 207.238281 0 114.273438 93.078125 207.242188 207.5 207.242188s207.5-92.96875 207.5-207.242188c0-114.277343-93.078125-207.238281-207.5-207.238281zm95.273438 263.546875-46.757813 37.40625c-2.765625 2.210937-6.074219 3.285156-9.363281 3.289063-4.398438 0-8.757813-1.929688-11.722656-5.632813-5.175782-6.46875-4.125-15.90625 2.34375-21.082031l16.609374-13.289063h-78.53125v57.207031c0 8.28125-6.714843 15-15 15-8.285156 0-15-6.71875-15-15v-183.644531l-13.285156 16.609375c-5.175781 6.46875-14.617187 7.519532-21.085937 2.34375-6.46875-5.175781-7.515625-14.613281-2.339844-21.082031l37.40625-46.761719c3.453125-4.316406 8.582031-6.8125 14.101563-6.875h.203124.207032c5.515625.0625 10.644531 2.558594 14.097656 6.875l37.410156 46.761719c5.171875 6.46875 4.125 15.90625-2.34375 21.082031-2.765625 2.214844-6.074218 3.285156-9.359375 3.289063-4.402343 0-8.761719-1.929688-11.722656-5.632813l-13.289063-16.609375v96.441407h78.53125l-16.609374-13.289063c-6.46875-5.175781-7.519532-14.613281-2.34375-21.082031 5.175781-6.46875 14.617187-7.519532 21.085937-2.34375l46.757813 37.40625c4.371093 3.496094 6.875 8.710937 6.875 14.308594 0 5.59375-2.503907 10.808593-6.875 14.304687zm0 0"/></svg>