<?xml version="1.0" encoding="UTF-8"?>
<svg xmlns="http://www.w3.org/2000/svg" id="Layer_1" data-name="Layer 1" viewBox="0 0 64 64" width="512" height="512"><path d="M57.39,52H54.61A3.61,3.61,0,0,1,51,48.39V42.82a4.2,4.2,0,0,1-2,3.56v6A3.61,3.61,0,0,1,45.39,56H42.61A3.61,3.61,0,0,1,39,52.39v-6l0,0a4.21,4.21,0,0,1-2,3v6A3.61,3.61,0,0,1,33.39,59H30.61A3.61,3.61,0,0,1,27,55.39v-6a4.21,4.21,0,0,1-2-3l0,0v6A3.61,3.61,0,0,1,21.39,56H18.61A3.61,3.61,0,0,1,15,52.39v-6a4.2,4.2,0,0,1-2-3.56v5.57A3.61,3.61,0,0,1,9.39,52H6.61a3.65,3.65,0,0,1-1.2-.22L3,61H61l-2.41-9.22A3.65,3.65,0,0,1,57.39,52Z"/><circle cx="32" cy="31" r="3"/><path d="M30.61,57h2.78A1.61,1.61,0,0,0,35,55.39V48a2.18,2.18,0,0,0,2-2.17V38.18A2.19,2.19,0,0,0,34.82,36H29.18A2.19,2.19,0,0,0,27,38.18v7.64A2.18,2.18,0,0,0,29,48v7.4A1.61,1.61,0,0,0,30.61,57Z"/><circle cx="44" cy="28" r="3"/><path d="M42.61,54h2.78A1.61,1.61,0,0,0,47,52.39V45a2.18,2.18,0,0,0,2-2.17V35.18A2.19,2.19,0,0,0,46.82,33H41.18A2.19,2.19,0,0,0,39,35.18v7.64A2.18,2.18,0,0,0,41,45v7.4A1.61,1.61,0,0,0,42.61,54Z"/><circle cx="20" cy="28" r="3"/><path d="M18.61,54h2.78A1.61,1.61,0,0,0,23,52.39V45a2.18,2.18,0,0,0,2-2.17V35.18A2.19,2.19,0,0,0,22.82,33H17.18A2.19,2.19,0,0,0,15,35.18v7.64A2.18,2.18,0,0,0,17,45v7.4A1.61,1.61,0,0,0,18.61,54Z"/><circle cx="8" cy="24" r="3"/><path d="M5,41v7.4A1.61,1.61,0,0,0,6.61,50H9.39A1.61,1.61,0,0,0,11,48.39V41a2.18,2.18,0,0,0,2-2.17V31.18A2.19,2.19,0,0,0,10.82,29H5.18A2.19,2.19,0,0,0,3,31.18v7.64A2.18,2.18,0,0,0,5,41Z"/><circle cx="56" cy="24" r="3"/><path d="M58.82,29H53.18A2.19,2.19,0,0,0,51,31.18v7.64A2.18,2.18,0,0,0,53,41v7.4A1.61,1.61,0,0,0,54.61,50h2.78A1.61,1.61,0,0,0,59,48.39V41a2.18,2.18,0,0,0,2-2.17V31.18A2.19,2.19,0,0,0,58.82,29Z"/><path d="M42,13A10,10,0,1,0,32,23,10,10,0,0,0,42,13Zm-9.29.71A1,1,0,0,1,32,14H28a1,1,0,0,1,0-2h3V8a1,1,0,0,1,1-1h0a1,1,0,0,1,1,1v5A1,1,0,0,1,32.71,13.71Z"/></svg>
