<?xml version="1.0" encoding="iso-8859-1"?>
<!-- Generator: Adobe Illustrator 16.0.0, SVG Export Plug-In . SVG Version: 6.00 Build 0)  -->
<!DOCTYPE svg PUBLIC "-//W3C//DTD SVG 1.1//EN" "http://www.w3.org/Graphics/SVG/1.1/DTD/svg11.dtd">
<svg version="1.1" id="Capa_1" xmlns="http://www.w3.org/2000/svg" xmlns:xlink="http://www.w3.org/1999/xlink" x="0px" y="0px"
	 width="124.33px" height="124.329px" viewBox="0 0 124.33 124.329" style="enable-background:new 0 0 124.33 124.329;"
	 xml:space="preserve">
<g>
	<g>
		<path d="M96.051,21.401H28.279c-5.448,0-9.881,4.433-9.881,9.881v92.878h9.881V31.283H96.05v92.878h9.881V31.283
			C105.932,25.834,101.5,21.401,96.051,21.401z M57.443,29.805c-1.819,0-3.294-1.475-3.294-3.294c0-1.82,1.476-3.295,3.294-3.295
			c1.82,0,3.294,1.475,3.294,3.295C60.737,28.33,59.263,29.805,57.443,29.805z M66.887,29.805c-1.82,0-3.294-1.475-3.294-3.294
			c0-1.82,1.474-3.295,3.294-3.295c1.819,0,3.294,1.475,3.294,3.295C70.182,28.33,68.707,29.805,66.887,29.805z"/>
		<path d="M56.029,18.967l-0.689,2.097h13.65L68.3,18.966L56.029,18.967L56.029,18.967z M58.17,20.678h-2.242l0.434-1.322h3.129
			C59.051,19.795,58.611,20.235,58.17,20.678z"/>
		<path d="M62.126,6.299c-3.005,0-5.44,2.436-5.44,5.44v6.683h10.958V11.74c0-3.005-2.436-5.44-5.44-5.44H62.126z M66.595,11.895
			c0,0.258-0.209,0.466-0.467,0.466s-0.465-0.208-0.465-0.466c0-1.886-1.535-3.42-3.419-3.42h-0.079
			c-0.258,0-0.466-0.208-0.466-0.466c0-0.258,0.208-0.465,0.466-0.465h0.078C64.643,7.543,66.595,9.496,66.595,11.895z"/>
		<path d="M52.203,9.738l2.565,0.515c0.48,0.096,0.947-0.215,1.043-0.694c0.097-0.48-0.215-0.947-0.694-1.043L52.552,8
			c-0.48-0.097-0.947,0.216-1.044,0.695c-0.021,0.104-0.022,0.208-0.007,0.308C51.555,9.359,51.827,9.663,52.203,9.738z"/>
		<path d="M55.223,3.614l1.634,2.044c0.306,0.382,0.863,0.444,1.246,0.138c0.382-0.305,0.444-0.862,0.139-1.245l-1.634-2.043
			c-0.306-0.382-0.863-0.444-1.246-0.139c-0.257,0.205-0.369,0.523-0.323,0.827C55.061,3.345,55.122,3.489,55.223,3.614z"/>
		<path d="M61.42,3.636c0.064,0.418,0.419,0.742,0.855,0.752c0.489,0.012,0.896-0.376,0.907-0.865l-0.006-2.615
			C63.188,0.418,62.801,0.012,62.311,0c-0.489-0.013-0.895,0.375-0.906,0.864l0.006,2.616C61.41,3.533,61.413,3.585,61.42,3.636z"/>
		<path d="M67.628,5.911l1.729-1.964c0.323-0.367,0.288-0.927-0.08-1.25c-0.367-0.323-0.927-0.288-1.25,0.08L66.298,4.74
			c-0.18,0.205-0.248,0.47-0.211,0.72c0.031,0.198,0.129,0.389,0.291,0.531C66.746,6.313,67.306,6.277,67.628,5.911z"/>
		<path d="M68.492,9.855c0.072,0.484,0.524,0.816,1.008,0.743l2.586-0.394c0.484-0.073,0.816-0.526,0.744-1.01
			c-0.074-0.484-0.525-0.816-1.011-0.742l-2.586,0.394C68.75,8.92,68.417,9.373,68.492,9.855z"/>
		<circle cx="62.242" cy="46.903" r="8.937"/>
		<path d="M77.632,74.281c-2.227-6.354-4.34-12.373-8.855-15.68c-1.218-1.086-2.744-1.86-4.309-2.243l-2.226,2.24l-2.159-2.266
			c-0.007,0.003-0.015,0.003-0.021,0.003c-1.278,0.307-2.528,0.878-3.611,1.664c-0.009,0.007-0.019,0.009-0.028,0.014
			c-5.125,3.145-7.36,9.52-9.726,16.268c-0.903,2.574-1.835,5.234-2.949,7.786c-0.767,1.756,0.035,3.802,1.791,4.568
			c0.453,0.196,0.923,0.288,1.387,0.288c1.337,0,2.612-0.776,3.181-2.082c1.154-2.643,2.09-5.28,2.989-7.841v6.851
			c0,0.936,0.181,1.805,0.499,2.604c-0.024,0.182-0.042,0.361-0.042,0.548l0.003,33.226c0,2.264,1.835,4.1,4.101,4.1
			c2.264,0,4.1-1.836,4.1-4.101l-0.002-28.513c0.162,0.007,0.324,0.021,0.488,0.021c0.032,0,0.064-0.003,0.096-0.003l-0.001,28.495
			c0,2.265,1.835,4.101,4.1,4.101l0,0c2.265,0,4.101-1.836,4.101-4.101v-33.02c0.537-0.996,0.851-2.122,0.851-3.357l-0.042-6.848
			c0.854,2.427,1.787,5.347,2.876,7.838c0.569,1.308,1.844,2.082,3.181,2.082c0.465,0,0.936-0.092,1.387-0.288
			c1.756-0.768,2.559-2.813,1.791-4.568C79.466,79.517,78.535,76.855,77.632,74.281z M62.264,76.286h-0.042l-2.155-2.949
			l2.155-14.406h0.042l2.153,14.406L62.264,76.286z"/>
	</g>
</g>
<g>
</g>
<g>
</g>
<g>
</g>
<g>
</g>
<g>
</g>
<g>
</g>
<g>
</g>
<g>
</g>
<g>
</g>
<g>
</g>
<g>
</g>
<g>
</g>
<g>
</g>
<g>
</g>
<g>
</g>
</svg>
