<svg id="presentation_board" viewBox="0 0 64 64" xmlns="http://www.w3.org/2000/svg" data-name="presentation board"><path d="m57 11h-23v-2c0-.552-.448-1-1-1h-2c-.552 0-1 .448-1 1v2h-23c-1.654 0-3 1.346-3 3v32c0 1.654 1.346 3 3 3h16.326l-2.679 6.625c-.266.657.218 1.375.927 1.375h1.622c.408 0 .775-.248.927-.626l2.974-7.374h9.807l2.974 7.374c.153.378.52.626.927.626h1.622c.709 0 1.193-.718.927-1.375l-2.679-6.625h16.326c1.654 0 3-1.346 3-3v-32c0-1.654-1.346-3-3-3zm-51 3c0-.552.448-1 1-1h50c.552 0 1 .448 1 1v30h-52zm15 5h-10c-.553 0-1-.447-1-1s.447-1 1-1h10c1.317.022 1.312 1.979 0 2zm6.413 6.558 3.345-6.771c.336-.684 1.455-.683 1.793 0 0 0 3.346 6.771 3.346 6.771.339.636-.179 1.464-.896 1.443h-6.69c-.718.022-1.234-.808-.896-1.442zm10.587 12.734c-5.671-.18-5.672-8.403 0-8.584 5.671.18 5.672 8.403 0 8.584zm-8-7.292v6c0 .553-.447 1-1 1h-6c-.553 0-1-.447-1-1v-6c0-.553.447-1 1-1h6c.553 0 1 .447 1 1z"/></svg>