<?xml version="1.0" encoding="UTF-8"?>
<svg id="Layer_1" xmlns="http://www.w3.org/2000/svg" version="1.1" viewBox="0 0 512 512">
  <!-- Generator: Adobe Illustrator 29.8.2, SVG Export Plug-In . SVG Version: 2.1.1 Build 3)  -->
  <defs>
    <style>
      .st0 {
        fill: #fd6909;
      }
    </style>
  </defs>
  <path class="st0" d="M233.43,126.99c10.01-10.01,10.01-26.22,0-36.15l-39.49-39.49c-10.01-10.01-26.22-10.01-36.15,0l-38.94,38.94,75.71,75.71,38.87-39.02Z"/>
  <path class="st0" d="M262.36,44.37h.31c4.19,0,7.6-3.26,7.76-7.45l.78-20.71c.16-4.27-3.18-7.91-7.45-8.07-4.27-.23-7.84,3.18-8.07,7.45l-.78,20.71c-.16,4.34,3.18,7.91,7.45,8.07Z"/>
  <path class="st0" d="M225.82,40.34c1.55,2.09,3.88,3.26,6.36,3.26,1.55,0,3.1-.47,4.5-1.47,3.49-2.48,4.27-7.37,1.78-10.86l-13.03-18.31c-2.48-3.49-7.37-4.27-10.86-1.78s-4.27,7.37-1.78,10.86l13.03,18.31Z"/>
  <path class="st0" d="M293.16,45.23c2.25,0,4.5-1.01,5.97-2.87l14.35-17.53c2.72-3.34,2.25-8.22-1.09-10.94s-8.22-2.25-10.94,1.09l-14.27,17.61c-2.72,3.34-2.25,8.22,1.09,10.94,1.4,1.16,3.18,1.71,4.89,1.71Z"/>
  <path class="st0" d="M421.47,278.88c-10.01-10.01-26.22-10.01-36.15,0l-38.94,38.94,75.71,75.71,38.94-38.94c10.01-10.01,10.01-26.22,0-36.15l-39.56-39.56Z"/>
  <path class="st0" d="M305.49,89.44l14.58,91.62c2.02,12.8,14.12,21.57,26.92,19.55l91.77-14.66c32.04-5.12,53.76-35.14,48.64-67.1-5.04-31.73-34.52-53.45-66.25-48.87-5.59-31.5-35.3-52.83-67.03-47.71-32.04,5.04-53.76,35.14-48.64,67.18h0Z"/>
  <path class="st0" d="M202.55,239.55l9.31,58.41c1.32,8.15,9,13.73,17.14,12.41l58.49-9.31c20.4-3.26,34.21-22.42,31.03-42.74-3.18-20.25-22.03-34.06-42.2-31.11-3.57-20.01-22.5-33.67-42.67-30.41-20.56,3.18-34.37,22.26-31.11,42.74h0Z"/>
  <path class="st0" d="M497.88,236.3l-20.71-.78c-4.19-.23-7.91,3.18-8.07,7.45s3.18,7.91,7.45,8.07l20.71.78h.31c4.19,0,7.6-3.26,7.76-7.45.23-4.27-3.1-7.91-7.45-8.07h0Z"/>
  <path class="st0" d="M471.51,217.37c1.55,2.09,3.88,3.26,6.28,3.26,1.55,0,3.1-.47,4.5-1.47l18.31-13.03c3.49-2.48,4.27-7.37,1.78-10.86s-7.37-4.27-10.78-1.78l-18.31,13.03c-3.49,2.48-4.27,7.37-1.78,10.86h0Z"/>
  <path class="st0" d="M481.05,267.87c-3.34-2.72-8.22-2.25-10.94,1.09s-2.25,8.22,1.09,10.94l17.53,14.35c1.47,1.16,3.18,1.78,4.89,1.78,2.25,0,4.5-1.01,5.97-2.87,2.72-3.34,2.25-8.22-1.09-10.94l-17.45-14.35Z"/>
  <path class="st0" d="M296.65,366.7c-40.18,40.18-105.35,44.61-148.25,7.29-24.67-21.49-37-51.43-37-81.14-.08-27.46,10.4-55,31.34-75.95l40.65-40.03-75.71-75.71-38.17,37.7C27.62,180.75,6.67,235.6,6.67,290.44c.08,56.09,21.88,112.17,65.63,154.45,84.71,81.61,220.32,77.34,303.48-5.82l35.22-34.6-75.71-75.71-38.63,37.93Z"/>
</svg>