<?xml version="1.0" encoding="UTF-8"?>
<svg id="Layer_5" xmlns="http://www.w3.org/2000/svg" version="1.1" viewBox="0 0 512 512">
  <!-- Generator: Adobe Illustrator 29.8.2, SVG Export Plug-In . SVG Version: 2.1.1 Build 3)  -->
  <defs>
    <style>
      .st0 {
        fill: #fd6909;
      }
    </style>
  </defs>
  <path class="st0" d="M115.29,376h25.42c1.36-4.88,2.38-10.24,2.9-16h-31.21c.52,5.76,1.54,11.12,2.9,16Z"/>
  <path class="st0" d="M103.83,312c2.02-4.95,4.23-9.3,6.41-13.06-8.1,2.72-15.38,7.22-21.36,13.06h14.95Z"/>
  <path class="st0" d="M128,403.16c2.01-2.9,4.3-6.65,6.54-11.16h-13.1c2.25,4.51,4.54,8.26,6.55,11.16Z"/>
  <path class="st0" d="M115.29,328c-1.36,4.88-2.38,10.24-2.9,16h31.21c-.52-5.76-1.54-11.12-2.9-16h-25.42Z"/>
  <path class="st0" d="M145.76,405.06c8.1-2.72,15.38-7.22,21.36-13.06h-14.95c-2.02,4.95-4.23,9.3-6.41,13.06Z"/>
  <path class="st0" d="M224,264H32c-4.41,0-8,3.59-8,8v160c0,4.41,3.59,8,8,8h90.66l62.94,47.2c2.46,1.83,6.4-.13,6.4-3.2v-44h32c4.41,0,8-3.59,8-8v-160c0-4.41-3.59-8-8-8ZM40,280h16v16h-16v-16ZM56,424h-16v-16h16v16ZM128,424c-39.7,0-72-32.3-72-72s32.3-72,72-72,72,32.3,72,72-32.3,72-72,72ZM216,424h-16v-16h16v16ZM216,296h-16v-16h16v16Z"/>
  <path class="st0" d="M167.12,312c-5.98-5.85-13.26-10.34-21.36-13.06,2.18,3.77,4.39,8.11,6.41,13.06h14.95Z"/>
  <path class="st0" d="M88.88,392c5.98,5.85,13.26,10.34,21.36,13.06-2.18-3.77-4.39-8.11-6.41-13.06h-14.95Z"/>
  <path class="st0" d="M159.7,344h23.66c-.82-5.65-2.46-11.02-4.84-16h-21.3c1.16,4.98,2.05,10.3,2.47,16Z"/>
  <path class="st0" d="M128,300.84c-2.01,2.9-4.31,6.65-6.54,11.16h13.1c-2.24-4.51-4.54-8.26-6.55-11.16Z"/>
  <path class="st0" d="M96.3,360h-23.66c.82,5.65,2.46,11.02,4.84,16h21.3c-1.16-4.98-2.05-10.3-2.47-16Z"/>
  <path class="st0" d="M98.78,328h-21.3c-2.38,4.98-4.02,10.35-4.84,16h23.66c.42-5.7,1.31-11.02,2.47-16Z"/>
  <path class="st0" d="M157.22,376h21.3c2.38-4.98,4.02-10.35,4.84-16h-23.66c-.42,5.7-1.31,11.02-2.47,16Z"/>
  <path class="st0" d="M376,144v-22.14c-4.88,2.88-12.86,6.14-24,6.14s-19.12-3.26-24-6.14v22.14c0,13.23,10.77,24,24,24s24-10.77,24-24Z"/>
  <path class="st0" d="M333.66,106.34c.16.14,6.19,5.66,18.34,5.66s18.18-5.51,18.43-5.74l2.31-2.16,19.26-.1v8c2.82,0,5.49.58,8,1.47v-9.47c0-26.47-21.53-48-48-48s-48,21.53-48,48v9.47c2.51-.9,5.18-1.47,8-1.47v-8h19.31l2.34,2.34Z"/>
  <path class="st0" d="M339.69,181.86c-.66,1.13-1.36,2.22-2.14,3.26l14.46,18.07,14.46-18.08c-.78-1.04-1.5-2.13-2.14-3.26-3.9,1.28-7.99,2.14-12.32,2.14s-8.41-.86-12.31-2.14h0Z"/>
  <path class="st0" d="M392,128v16c4.41,0,8-3.59,8-8s-3.59-8-8-8Z"/>
  <path class="st0" d="M480,24H224c-4.41,0-8,3.59-8,8v216h8c10.42,0,19.22,6.71,22.53,16h97.47v44c0,2.21,1.79,4,4,4,1.4,0,2.11-.19,2.74-.57l79.05-47.43h50.22c4.41,0,8-3.59,8-8V32c0-4.41-3.59-8-8-8ZM248,56h-16v-16h16v16ZM440,248h-176v-24c0-17.86,12.14-33.2,29.51-37.31l23.24-5.5c3.76-1.08,6.98-3.74,9.02-7.24-4.38-3.85-8-8.54-10.38-13.95h-3.39c-13.23,0-24-10.77-24-24v-32c0-35.29,28.71-64,64-64s64,28.71,64,64v32c0,13.23-10.77,24-24,24h-3.39c-2.38,5.41-5.98,10.1-10.37,13.94,2.05,3.5,5.34,6.19,9.36,7.34l22.89,5.41c17.38,4.12,29.51,19.46,29.51,37.32v24ZM472,248h-16v-16h16v16ZM472,56h-16v-16h16v16Z"/>
  <path class="st0" d="M406.8,202.26l-23.24-5.5c-1.58-.46-3.1-1.03-4.57-1.7l-26.99,33.75-26.96-33.7c-1.37.61-2.78,1.14-4.25,1.56l-23.59,5.59c-10.13,2.4-17.2,11.34-17.2,21.74v8h144v-8c0-10.41-7.07-19.34-17.2-21.74Z"/>
  <path class="st0" d="M304,136c0,4.41,3.59,8,8,8v-16c-4.41,0-8,3.59-8,8Z"/>
  <path class="st0" d="M112,168c0-30.88,25.12-56,56-56v-16c-39.7,0-72,32.3-72,72h16Z"/>
  <path class="st0" d="M168,64c-57.34,0-104,46.66-104,104h16c0-48.52,39.48-88,88-88v-16Z"/>
  <path class="st0" d="M168,48v-16c-74.99,0-136,61.01-136,136h16c0-66.17,53.83-120,120-120Z"/>
  <path class="st0" d="M400,344c0,30.88-25.12,56-56,56v16c39.7,0,72-32.3,72-72h-16Z"/>
  <path class="st0" d="M344,448c57.34,0,104-46.66,104-104h-16c0,48.52-39.48,88-88,88v16Z"/>
  <path class="st0" d="M344,464v16c74.99,0,136-61.01,136-136h-16c0,66.17-53.83,120-120,120Z"/>
</svg>