<?xml version="1.0" encoding="UTF-8"?>
<svg id="Layer_1" xmlns="http://www.w3.org/2000/svg" version="1.1" viewBox="0 0 512 512">
  <!-- Generator: Adobe Illustrator 29.8.2, SVG Export Plug-In . SVG Version: 2.1.1 Build 3)  -->
  <defs>
    <style>
      .st0 {
        fill: #fd6909;
      }
    </style>
  </defs>
  <path class="st0" d="M284.22,170.51c1.72-.72,3.45-1.4,5.19-2.05l.4-77.29h36.26L256.01,0l-70.06,91.17h36.78l-.4,77.2c12.03,4.51,23.31,10.44,33.63,17.57,8.78-6.07,18.21-11.23,28.25-15.43h0Z"/>
  <path class="st0" d="M279.76,206.29c15.07,15.89,26.53,34.97,33.13,56.03,9.11-5.92,20.23-9.42,32.23-9.42h71.16v35.67l94.01-67.93-94.01-67.93v35.61l-71.16.06c-24.02,0-46.44,6.57-65.37,17.92h0Z"/>
  <path class="st0" d="M140.99,412.03l-46.97-.23v-35.67L0,444.07l94.01,67.93v-35.44h46.97c35.27,0,67.69-11.69,93.17-31.16-14.71-16.79-26.09-36.31-33.17-57.64-14.94,14.91-36.31,24.27-60,24.27h0Z"/>
  <path class="st0" d="M417.99,512l94.01-67.93-94.01-67.93v35.67l-46.97.23c-45.07,0-81.73-33.81-81.73-75.38v-32.58c0-63.8-54.91-115.7-122.41-115.7l-71.16-.06v-35.61L1.7,220.64l94.01,67.93v-35.67h71.16c30.81,0,55.87,22.96,55.87,51.17v32.58c0,77.15,66.52,139.91,148.28,139.91h46.97v35.44h0Z"/>
</svg>