<svg id="Layer_1_7_" enable-background="new 0 0 48 48" height="512" viewBox="0 0 48 48" width="512" xmlns="http://www.w3.org/2000/svg"><path d="m28 21v2h-8v-2zm16-14v8c0 2.209-1.791 4-4 4h-32c-2.209 0-4-1.791-4-4v-8c0-2.209 1.791-4 4-4h32c2.209 0 4 1.791 4 4zm-33 3c0-.553-.447-1-1-1s-1 .447-1 1v2c0 .553.447 1 1 1s1-.447 1-1zm20 1c0-3.859-3.141-7-7-7s-7 3.141-7 7 3.141 7 7 7 7-3.141 7-7zm8-1c0-.553-.447-1-1-1s-1 .447-1 1v2c0 .553.447 1 1 1s1-.447 1-1zm-15-4c-2.757 0-5 2.243-5 5s2.243 5 5 5 5-2.243 5-5-2.243-5-5-5zm-13 24v1c0 .552.448 1 1 1h1v-2c0-.352.072-.686.184-1h-1.184c-.552 0-1 .448-1 1zm7-4v1h12v-1c0-.552-.448-1-1-1h-10c-.552 0-1 .448-1 1zm-2 11c-.352 0-.686-.072-1-.184v7.184c0 .552.448 1 1 1h16c.552 0 1-.448 1-1v-7.184c-.314.112-.647.184-1 .184zm20-8h-1.184c.112.314.184.648.184 1v2h1c.552 0 1-.448 1-1v-1c0-.552-.448-1-1-1zm-4 0h-16c-.552 0-1 .448-1 1v4c0 .552.448 1 1 1h16c.552 0 1-.448 1-1v-4c0-.552-.448-1-1-1z"/></svg>