<?xml version="1.0" encoding="UTF-8"?>
<svg id="Layer_1" xmlns="http://www.w3.org/2000/svg" version="1.1" viewBox="0 0 512 512">
  <!-- Generator: Adobe Illustrator 29.8.2, SVG Export Plug-In . SVG Version: 2.1.1 Build 3)  -->
  <defs>
    <style>
      .st0 {
        fill: #fd6909;
      }
    </style>
  </defs>
  <path class="st0" d="M498.77,308.56c25.23,31.1-103.64,99.98-157.69,123.19-44.11,18.93-79.65,9.81-126.51,6.18-24.49-1.9-38.58,3.49-48.9,11.39l-.06-.06-98.96-98.96c10.32-10.91,17.15-21.66,30.05-29.93,18.65-11.93,42.72-19.98,78.72-20.92,50.37-1.33,89.69,23.36,136.32,22.2,24.32-.62,28.4,17.77,17.8,32.74-5.3,7.48-14.29,14.12-26.25,17.06-17.12,4.2-45.55,1.3-70.64-4.36-6.86-1.56-9.81,10.09-2.69,11.71,24.04,5.44,55.19,9.47,76.2,4.31,15.82-3.88,30.7-14.17,37.5-29.31,50.71-4.48,74.13-21.94,122.4-43.2,13.66-6.01,26.79-9.33,32.71-2.04h0ZM57.24,357.88c-6.15-6.18-16.24-6.18-22.39,0l-20.24,20.21c-6.15,6.18-6.15,16.24,0,22.42l99.86,99.86c6.18,6.15,16.24,6.15,22.42,0l20.21-20.24c6.18-6.15,6.18-16.24,0-22.39l-99.87-99.86ZM171.71,186.75c0-34.5,17.66-65.42,45.5-86.26h134.76c27.84,20.83,45.47,51.76,45.47,86.26,0,140.77-225.72,140.77-225.72,0h0ZM250.74,218.13c0,15.48,12.78,27.18,27.84,29.59v9.41c0,3.32,2.69,5.98,6.01,5.98s6.01-2.67,6.01-5.98v-9.41c15.05-2.41,27.84-14.12,27.84-29.59,0-40.56-52.07-20.32-52.07-45.04,0-4,1.9-7.62,4.99-10.32,11.37-9.81,31.46-3.09,31.46,10.32,0,3.32,2.69,5.98,6.01,5.98s6.01-2.66,6.01-5.98c0-13.63-11.05-24.07-24.24-26.45v-9.44c0-3.32-2.69-6.01-6.01-6.01s-6.01,2.69-6.01,6.01v9.44c-13.18,2.38-24.24,12.81-24.24,26.45,0,38.01,52.1,16.61,52.1,45.04,0,4.82-2.32,9.24-6.07,12.5-13.64,11.79-37.64,3.68-37.64-12.5,0-3.32-2.69-6.01-6.01-6.01s-5.98,2.69-5.98,6.01h0ZM329.11,64.5l24.32-43.4c-10.4-10.77-35.52-10.77-45.92,0-10.38-10.77-35.49-10.77-45.89,0-10.4-10.77-35.49-10.77-45.89,0l24.32,43.4h89.07ZM209.49,88.5h150.18c3.32,0,6.01-2.69,6.01-6.01s-2.69-5.98-6.01-5.98h-150.18c-3.32,0-6.01,2.67-6.01,5.98s2.69,6.01,6.01,6.01ZM398.79,111.69c0-28.52,23.1-51.62,51.59-51.62s51.62,23.1,51.62,51.62-23.1,51.62-51.62,51.62-51.59-23.13-51.59-51.62ZM429.29,123.06c0,8.93,6.69,16.02,15.11,18.25v2.89c0,3.32,2.67,6.01,5.98,6.01s6.01-2.69,6.01-6.01v-2.89c8.42-2.24,15.11-9.33,15.11-18.25,0-23.98-28.26-14.82-28.26-24.43,0-1.33.68-2.55,1.79-3.51,4.39-3.8,12.5-1.3,12.5,3.51,0,3.32,2.69,6.01,6.01,6.01s6.01-2.69,6.01-6.01c0-7.91-5.75-14.26-13.15-16.47v-2.98c0-3.32-2.69-6.01-6.01-6.01s-5.98,2.69-5.98,6.01v2.98c-7.4,2.21-13.15,8.56-13.15,16.47,0,22.9,28.23,12.53,28.23,24.43,0,1.79-.88,3.46-2.32,4.71-5.64,4.88-15.87,1.64-15.87-4.71,0-3.32-2.67-6.01-5.98-6.01s-6.01,2.69-6.01,6.01h0ZM67.17,111.69c0-28.52,23.1-51.62,51.59-51.62s51.62,23.1,51.62,51.62-23.1,51.62-51.62,51.62-51.59-23.13-51.59-51.62ZM97.67,123.06c0,8.93,6.69,16.02,15.11,18.25v2.89c0,3.32,2.69,6.01,5.98,6.01s6.01-2.69,6.01-6.01v-2.89c8.42-2.24,15.11-9.33,15.11-18.25,0-23.98-28.23-14.82-28.23-24.43,0-1.33.65-2.55,1.76-3.51,4.39-3.8,12.5-1.3,12.5,3.51,0,3.32,2.69,6.01,6.01,6.01s6.01-2.69,6.01-6.01c0-7.91-5.75-14.26-13.15-16.47v-2.98c0-3.32-2.69-6.01-6.01-6.01s-5.98,2.69-5.98,6.01v2.98c-7.4,2.21-13.15,8.56-13.15,16.47,0,22.9,28.23,12.53,28.23,24.43,0,1.79-.88,3.46-2.32,4.71-5.64,4.88-15.87,1.64-15.87-4.71,0-3.32-2.67-6.01-5.98-6.01s-6.01,2.69-6.01,6.01h0ZM450.38,184.03c-3.32,0-5.98,2.69-5.98,6.01v69.82l-3.66-6.46c-1.64-2.86-5.3-3.88-8.16-2.24-2.89,1.62-3.88,5.27-2.27,8.14l14.65,25.8c2.38,4.62,8.48,4.62,10.86,0l14.63-25.8c1.64-2.86.62-6.52-2.24-8.13-2.86-1.64-6.52-.62-8.16,2.24l-3.66,6.46v-69.82c0-3.32-2.69-6.01-6.01-6.01h0ZM118.76,184.03c-3.29,0-5.98,2.69-5.98,6.01v69.82l-3.66-6.46c-1.64-2.86-5.3-3.88-8.16-2.24-2.86,1.62-3.88,5.27-2.24,8.14l14.63,25.8c2.38,4.62,8.48,4.62,10.86,0l14.63-25.8c1.64-2.86.62-6.52-2.24-8.13-2.86-1.64-6.52-.62-8.16,2.24l-3.66,6.46v-69.82c0-3.32-2.69-6.01-6.01-6.01h0ZM417.75,49.61c3.32,0,6.01-2.67,6.01-5.98v-19.02c0-3.32-2.69-5.98-6.01-5.98s-5.98,2.67-5.98,5.98v19.02c0,3.32,2.69,5.98,5.98,5.98ZM483.01,49.61c3.32,0,6.01-2.67,6.01-5.98v-19.02c0-3.32-2.69-5.98-6.01-5.98s-5.98,2.67-5.98,5.98v19.02c0,3.32,2.67,5.98,5.98,5.98ZM450.38,37.99c3.32,0,6.01-2.69,6.01-5.98V12.99c0-3.32-2.69-5.98-6.01-5.98s-5.98,2.66-5.98,5.98v19.02c0,3.29,2.67,5.98,5.98,5.98ZM151.38,49.61c3.32,0,6.01-2.67,6.01-5.98v-19.02c0-3.32-2.69-5.98-6.01-5.98s-5.98,2.67-5.98,5.98v19.02c0,3.32,2.69,5.98,5.98,5.98ZM86.16,49.61c3.29,0,5.98-2.67,5.98-5.98v-19.02c0-3.32-2.69-5.98-5.98-5.98s-6.01,2.67-6.01,5.98v19.02c0,3.32,2.69,5.98,6.01,5.98ZM118.76,37.99c3.32,0,6.01-2.69,6.01-5.98V12.99c0-3.32-2.69-5.98-6.01-5.98s-5.98,2.66-5.98,5.98v19.02c0,3.29,2.69,5.98,5.98,5.98Z"/>
</svg>