<?xml version="1.0" encoding="UTF-8"?>
<svg id="Layer_1" xmlns="http://www.w3.org/2000/svg" version="1.1" viewBox="0 0 512 512">
  <!-- Generator: Adobe Illustrator 29.8.2, SVG Export Plug-In . SVG Version: 2.1.1 Build 3)  -->
  <defs>
    <style>
      .st0 {
        fill: #fd6909;
      }
    </style>
  </defs>
  <path class="st0" d="M241,0c-57.82,3.32-112.05,25.79-155.33,64.36l66.94,66.94c25.19-20.97,55.78-33.64,88.39-36.62V0Z"/>
  <path class="st0" d="M131.39,152.5l-66.93-66.93C25.85,128.84,3.35,183.07.01,240.9h94.68c3-32.62,15.7-63.21,36.7-88.4h0Z"/>
  <path class="st0" d="M94.71,270.9H0c3.59,62.86,29.78,121.47,74.7,166.39,2.93,2.93,6.78,4.4,10.62,4.4s7.69-1.47,10.62-4.4l45.51-45.52c5.87-5.87,5.87-15.38,0-21.25-11.88-11.88-41.79-45.13-46.76-99.63h0Z"/>
  <path class="st0" d="M393.62,139.09c3.77-5.93,2.92-13.69-2.05-18.66-4.97-4.97-12.73-5.82-18.66-2.05-12.93,8.23-127.03,81.08-150.24,104.3-18.38,18.38-18.38,48.28,0,66.66s48.28,18.38,66.66,0c23.22-23.22,96.07-137.31,104.3-150.24h0Z"/>
  <path class="st0" d="M507.2,307.8c2.47-12.08,4.09-24.41,4.8-36.9h-55.11c19.41,8.46,36.58,21.15,50.31,36.9Z"/>
  <path class="st0" d="M400.6,289.2c-61.43,0-111.4,49.97-111.4,111.4s49.97,111.4,111.4,111.4,111.4-49.97,111.4-111.4-49.97-111.4-111.4-111.4h0ZM432.73,415.6h-32.13c-8.28,0-15-6.72-15-15v-48.2c0-8.28,6.72-15,15-15s15,6.72,15,15v33.2h17.13c8.28,0,15,6.72,15,15s-6.72,15-15,15Z"/>
  <path class="st0" d="M418.93,155.19c-4.18,6.57-10.5,16.45-18.08,28.14,9,17.87,14.6,37.33,16.46,57.57h94.68c-3.34-57.84-25.84-112.06-64.44-155.33l-25.97,25.97c6.64,13.7,5.97,30.12-2.64,43.65Z"/>
  <path class="st0" d="M356.71,93.06c13.53-8.61,29.95-9.28,43.65-2.64l25.97-25.97C383.06,25.84,328.84,3.34,271,0v94.68c20.24,1.86,39.7,7.46,57.57,16.46,11.69-7.58,21.57-13.9,28.14-18.08Z"/>
</svg>