<?xml version="1.0" encoding="UTF-8"?>
<svg id="glphy" xmlns="http://www.w3.org/2000/svg" version="1.1" viewBox="0 0 64 64">
  <!-- Generator: Adobe Illustrator 29.8.2, SVG Export Plug-In . SVG Version: 2.1.1 Build 3)  -->
  <defs>
    <style>
      .st0 {
        fill: #fd6909;
      }
    </style>
  </defs>
  <circle class="st0" cx="32" cy="11.82" r="7.82"/>
  <path class="st0" d="M18.36,37.15h27.28c.55,0,1-.45,1-1v-7.64c-.04-3.93-3.25-7.08-7.18-7.04-.23,0-.47.02-.7.04-4.07,2.81-9.45,2.81-13.52,0h-.88c-3.87,0-7,3.13-7,7v7.64c0,.55.45,1,1,1Z"/>
  <path class="st0" d="M22.13,50.26l-3.38-.26-1.34-2s-.06-.07-.08-.11l-.7-1.06c-.3-.46-.92-.59-1.39-.28-.11.07-.21.17-.28.28l-2.12,3.17-3.38.26c-.38.03-.72.27-.86.62-.12.34-.05.73.19,1l2.62,2.87-1.05,3.94c-.14.53.18,1.08.71,1.22.24.06.5.03.72-.08l4-2.13,4,2.13c.49.26,1.09.08,1.35-.41.12-.22.15-.49.09-.73l-1-3.94c.53-.59,2.1-2.33,2.61-2.87.34-.43.27-1.06-.16-1.41-.16-.13-.35-.2-.55-.21Z"/>
  <path class="st0" d="M9.73,47.85c.55,0,1-.45,1-1,0-.19-.05-.37-.15-.53-8.03-12.32-2.58-30.23,10.94-36.09.5-.23.72-.83.49-1.33s-.83-.72-1.33-.49h0c-9.65,4.44-15.85,14.08-15.87,24.71,0,5.04,1.41,9.98,4.07,14.26.18.29.5.47.85.47Z"/>
  <path class="st0" d="M42.48,10.23c13.52,5.86,18.97,23.77,10.94,36.09-.29.47-.15,1.09.32,1.38.47.29,1.09.15,1.38-.32,2.66-4.28,4.07-9.22,4.07-14.26-.02-10.63-6.22-20.27-15.87-24.71-.5-.23-1.1-.01-1.33.49-.23.5-.01,1.1.49,1.33Z"/>
  <path class="st0" d="M38.64,53.93l-1.22-4.6,3.58-3.91c.37-.41.34-1.04-.07-1.41-.17-.15-.38-.24-.6-.26l-4.6-.35-2.86-4.29c-.31-.46-.93-.58-1.39-.27-.11.07-.2.16-.27.27l-2.9,4.29-4.6.35c-.55.02-.99.48-.97,1.03,0,.24.1.46.26.64l3.54,3.91-1.22,4.6-.2.74c-.14.53.18,1.08.71,1.22.05.01.11.02.17.03.46.13,1.28-.51,1.67-.66l4.33-2.33,5.4,2.88c.49.26,1.09.08,1.35-.41.12-.22.15-.49.09-.73l-.2-.74Z"/>
  <path class="st0" d="M51,44.75c.36,0,.69-.19.87-.5,1.91-3.4,2.92-7.23,2.91-11.13-.01-8.15-4.35-15.68-11.4-19.77-.49-.26-1.09-.07-1.35.42-.24.46-.09,1.03.35,1.31,9.68,5.38,13.36,18.64,7.75,28.18-.27.48-.1,1.09.38,1.36.15.08.32.13.49.13Z"/>
  <path class="st0" d="M21.58,15.08c.47-.3.6-.91.31-1.38-.28-.44-.85-.59-1.31-.35-7.05,4.09-11.39,11.62-11.4,19.77,0,3.9,1,7.73,2.91,11.13.28.48.89.65,1.37.37s.65-.89.37-1.37h0c-5.61-9.53-1.93-22.79,7.75-28.17Z"/>
  <path class="st0" d="M54.54,50.26l-3.35-.26-2.19-3.18c-.3-.46-.92-.59-1.39-.28-.11.07-.21.17-.28.28l-.74,1.11s-.06.08-.08.12l-1.26,1.95-3.38.26c-.38.03-.72.27-.86.62-.37.73.59,1.42,1,1.91l1.82,2c-.19.73-.84,3.16-1.05,3.94-.14.53.17,1.08.71,1.23.25.07.51.04.73-.09l4-2.13,4,2.13c.49.26,1.09.07,1.35-.42.12-.22.14-.48.08-.72l-1-3.94,2.62-2.87c.36-.41.32-1.05-.09-1.41-.18-.16-.4-.24-.64-.25Z"/>
</svg>