<?xml version="1.0" encoding="UTF-8"?>
<svg xmlns="http://www.w3.org/2000/svg" version="1.1" viewBox="0 0 590.6 590.6">
  <!-- Generator: Adobe Illustrator 28.7.1, SVG Export Plug-In . SVG Version: 1.2.0 Build 142)  -->
  <g>
    <g id="Layer_1">
      <g>
        <path d="M512.4,527.9H82.9c-1.5-25-2.1-49.5,19.3-67.9,11.1-9.6,24-14.4,38.7-14.4,25.1,0,50.2,0,75.3,0,78.7,0,157.4,0,236.2,0,28.6,0,52,17.6,57.6,45,2.4,11.9,1.7,24.5,2.5,37.4ZM230.9,478.6c-4.4.1-8.1,3.9-8,8.3,0,4.4,3.7,8.1,8.2,8.2,4.6,0,8.5-3.9,8.3-8.5-.2-4.4-4-8-8.4-7.9ZM264.1,478.6c-4.4,0-8.1,3.7-8.2,8.1,0,4.4,3.6,8.2,8,8.3,4.6.1,8.5-3.8,8.5-8.4,0-4.4-3.8-8.1-8.2-8.1ZM297.3,478.6c-4.4-.1-8.2,3.5-8.4,7.9-.2,4.4,3.3,8.3,7.7,8.6,4.6.3,8.6-3.5,8.7-8.1,0-4.4-3.6-8.2-8-8.3ZM330,495.1c4.4,0,8.2-3.5,8.4-7.9.2-4.6-3.7-8.6-8.3-8.5-4.4,0-8.1,3.8-8.1,8.2,0,4.4,3.6,8.2,8.1,8.2ZM363.3,478.6c-4.4,0-8.2,3.6-8.3,8-.1,4.4,3.4,8.3,7.9,8.5,4.6.2,8.6-3.6,8.6-8.3,0-4.4-3.7-8.1-8.1-8.2Z"/>
        <path d="M57.7,219.4c1.2-62,23.5-118.4,68.5-165.5,2.2-2.3,6.3-4.2,9.3-3.9,6.3.5,8.4,8.3,4,13.6-5.7,6.8-12,13.2-17.5,20.3-33.9,43.9-49.8,93.7-47.4,148.9,2.4,55.2,22.7,103.4,60.3,144.2,1.6,1.8,3.3,3.5,4.9,5.3,3.1,3.9,2.9,8.5-.5,11.6-3.4,3.1-8.1,3.3-11.5-.5-8.1-9.1-16.5-18.1-23.6-27.9-30.9-42.6-46-90.5-46.4-146Z"/>
        <path d="M536.6,225.9c-1.1,61.5-23.1,117.7-67.5,164.9-1.2,1.3-2.3,2.6-3.7,3.6-3.8,2.7-7.5,2.4-10.7-.9-3-3.1-3.3-6.8-.8-10.3,1.7-2.4,3.9-4.4,5.8-6.5,35.2-38.5,55.5-83.6,59.3-135.6,5-67.2-15.9-125.5-61.8-174.8-.8-.9-1.7-1.7-2.4-2.7-3.3-3.9-3.3-8.4,0-11.6,3.4-3.4,8.4-3.6,11.9.3,8.1,9.1,16.5,18.1,23.6,27.9,30.8,42.5,45.8,90.2,46.4,145.7Z"/>
        <path d="M180.5,95.4c2.8,2.2,5.9,3.4,6.9,5.6,1,2.3.5,5.6-.2,8.2-.5,1.8-2.5,3.2-3.9,4.7-57.2,61.7-57.3,155.9-.1,217.6,1.1,1.1,2.2,2.2,3.1,3.4,3.3,4,3.2,8.3,0,11.6-3.3,3.2-8.7,3.5-11.9-.5-9-11.2-18.9-22-26.2-34.3-40.2-67.5-29.8-153.7,24.6-210.5,2-2.1,4.7-3.5,7.8-5.8Z"/>
        <path d="M470.5,225.7c-.8,44-16.8,84.8-49.2,119.1-3.1,3.3-6.5,5.2-10.9,3.2-5.4-2.4-6-8.5-1.8-13.8,7.5-9.4,15.7-18.4,21.9-28.5,37.4-60.4,29.4-139.3-19-191.3-1.2-1.3-2.4-2.5-3.5-3.8-3.2-4-3.2-8.3.1-11.6,3.3-3.2,8.7-3.4,11.9.6,9.1,11.4,18.8,22.4,26.4,34.8,16.5,26.9,23.8,56.8,24.1,91.4Z"/>
        <path d="M189.7,222.6c.7-29,10.5-54.2,30.4-75.2,4.8-5.1,11.3-4.6,14.2.9,2.3,4.4.3,7.8-2.8,11.1-12,12.8-20,27.8-23.3,45.1-5.7,30.3,1.8,57.1,22.1,80.4,5.6,6.4,6.4,10.8,2.4,14.6-4.2,3.9-8.9,2.8-14.8-3.7-18.6-20.9-27.7-45.4-28.2-73.1Z"/>
        <path d="M404.5,223c-.7,28.9-10.4,54-30.4,75.1-4.7,4.9-10.9,4.7-13.9-.3-2.5-4.3-1-7.8,2.1-11.1,12.2-12.9,20.3-28,23.7-45.5,5.7-30-1.6-56.5-21.4-79.6-.6-.7-1.1-1.3-1.7-1.9-4.7-5.2-5.1-9.9-1.1-13.5,3.8-3.5,8.6-2.7,13.4,2.5,19.4,21,28.8,46,29.3,74.4Z"/>
        <path d="M305.2,428.8h-16v-165.1h16v165.1Z"/>
        <path d="M297.3,198c13.7,0,24.7,11.4,24.6,25.1-.2,13.4-11.5,24.4-24.9,24.3-13.7-.1-24.8-11.4-24.6-25.2.2-13.4,11.4-24.4,24.9-24.3Z"/>
      </g>
    </g>
  </g>
</svg>