<?xml version="1.0" encoding="UTF-8"?>
<svg id="Layer_1" xmlns="http://www.w3.org/2000/svg" version="1.1" viewBox="0 0 60 60">
  <!-- Generator: Adobe Illustrator 29.1.0, SVG Export Plug-In . SVG Version: 2.1.0 Build 142)  -->
  <defs>
    <style>
      .st0 {
        fill: #606060;
      }
    </style>
  </defs>
  <g id="Layer_11" data-name="Layer_1">
    <path class="st0" d="M9.5,13.8h-1.3V3.3c0-.3.3-.6.6-.6s.6.3.6.6v10.5h0ZM12.1,3.3c0-.3-.3-.6-.6-.6s-.6.3-.6.6v10.5h1.3V3.3h0ZM7,45h6.3c.2,0,.3,0,.3-.3v-3.5l-6.8,3.5c0,.2,0,.3.3.3h-.1ZM6.7,43.2l6.8-3.5v-2.8l-6.8,3.5v2.8ZM6.7,39l6.8-3.5v-2.8l-6.8,3.5v2.7h0ZM6.7,34.8l6.8-3.5v-2.7l-6.8,3.5v2.8h0ZM6.7,30.6l6.8-3.5v-2.8l-6.8,3.5v2.8ZM6.7,26.4l6.8-3.5v-2.7l-6.8,3.5v2.7ZM13.3,18.4h-6.3c-.2,0-.3.1-.3.3v3.5l6.8-3.5c0-.2-.1-.3-.3-.3h.1ZM12.6,15.1h-4.8v2h4.8v-2ZM8.4,60.1h3.5v-13.9h-3.5v13.9ZM28.2,2.6c-.3,0-.7,0-.8.5l-2.3,10.7h1.3l2.2-10.4c0-.4-.2-.7-.5-.8h0ZM22.4,13.8l-2.3-10.7c-.2-.8-1.4-.6-1.3.3l2.2,10.4h1.4ZM24.4,3.3c0-.4-.3-.6-.6-.6s-.6.3-.6.6v10.5h1.3V3.3h0ZM21.4,17.1h4.8v-2h-4.8s0,2,0,2ZM20.1,28.9h7.5v-10.5h-7.5v10.5ZM21.4,40.3c0,1.1.8,2.1,1.9,2.4,1.5.4,3.1-.8,3-2.4v-10.1h-4.9v10.1h0ZM23,43.9v16.2h1.6v-16.2c-.5,0-1.1,0-1.6,0ZM38.5,3.3c0-.4-.3-.6-.6-.6s-.6.3-.6.6v10.5h1.3V3.3h-.1ZM38.9,15.1h-2.1v4h2.1v-4ZM40.5,20.4h-5.4c-.3,0-.6.3-.6.6v11.7c0,.3.3.6.6.6h5.4c.3,0,.6-.3.6-.6v-11.7c0-.3-.3-.6-.6-.6ZM37,60.1h1.6v-15.6h-1.6v15.6ZM35.6,43.2h4.4v-8.6h-4.4v8.6ZM50.3,18.4v1.3h2.2v-1.3c0-.4.3-.6.6-.6h1v-6.2h-.9v2.8c0,.4-.3.6-.6.6s-.6-.3-.6-.6v-2.8h-1v2.8c0,.4-.3.6-.6.6s-.6-.3-.6-.6v-2.8h-.9v6.2h1c.3,0,.6.3.6.7h-.2ZM52.9,22.3h2.4v-3.2h-1.5v1.3c0,.4-.3.6-.6.6h-3.5c-.4,0-.6-.3-.6-.6v-1.3h-1.5v3.2h2.4c.3,0,.6.3.6.6s-.3.6-.6.6h-2.3l.4,1.4h1.9c.8,0,.8,1.3,0,1.3h-1.5l.8,2.9h4.4l.8-2.9h-1.5c-.8,0-.8-1.3,0-1.3h1.9l.4-1.4h-2.2c-.4,0-.6-.3-.6-.6s.3-.6.6-.6h-.2ZM50.6,60.1h1.6v-29.7h-1.6v29.7Z"/>
  </g>
</svg>