<?xml version="1.0" encoding="UTF-8"?>
<svg xmlns="http://www.w3.org/2000/svg" version="1.1" viewBox="0 0 590.6 590.6">
  <!-- Generator: Adobe Illustrator 28.7.1, SVG Export Plug-In . SVG Version: 1.2.0 Build 142)  -->
  <g>
    <g id="Layer_1">
      <g>
        <path d="M107.5,417.8c40.7-39.9,57.5-78.5,83.8-128.7,15.3-29,26.8-59.5,36.7-90.8,17.1-54.1,54.2-88.3,108.8-103.5,1.6-.4,3.3-.4,4.8-.6.5.9,1,1.4,1.1,2,1.1,5.2,2.1,10.3,3.3,16.3-47.2,12.2-80.6,40.3-97.5,86.4-10,27.3-10,55.1-1.5,82.8,16.6,54.3,69.8,92.9,125.1,93.2,57.2.3,124.7-41.8,133.5-120.4,6,.5,12,.9,19.2,1.5-1.2,7.2-2.1,14-3.5,20.6-5,22.6-15.9,42.3-29.4,61.1-38,52.7-77.4,104.3-124.7,149.1-16.4,15.5-34.4,29.3-52.5,42.8-29.5,22-62.7,27.1-98.6,20.7-40.2-7.2-48.9-14.6-73.7-34.1-15.2-11.9-27.6-27.1-35.7-44.7-8.4-18.2-13.2-39.8,1.1-53.8Z"/>
        <path d="M474,267.6c1.3.9,2.4,1.6,3.4,2.3,3.8,3,7.6,6,11.9,9.4-2.1,2.6-4,5.1-6.1,7.4-9.4,10.4-18.5,20.9-28.2,30.9-30.9,31.8-68.3,43.5-111,31.8-42.7-11.7-69.6-40.6-79.5-83.8-7.6-32.9-.7-63.7,20.1-90.4,12.5-15.9,27-30.3,40.7-45.2,2.2-2.4,5-4.3,8-6.9,4.1,5.4,7.9,10.4,11.6,15.4-46.4,38.4-44.7,100.8-9,137.2,35.9,36.6,99.8,38.8,138.2-8.2Z"/>
        <path d="M346.8,189.8c-4.5-4.8-8.8-9.3-12.7-13.4,10.3-12.5,20.8-24.1,30-36.6,13.4-18.2,23.3-38.2,28-60.5.5-2.4-.3-5.8-1.8-7.7-7.8-9.7-7.2-21.7,2.1-29.3,8.7-7.1,21.1-5.7,28.2,3.3,7.1,9,5.2,20.8-4.2,28.6-2,1.7-3.6,4.6-4.2,7.2-9.7,43.2-33.7,77.8-65.4,108.4Z"/>
        <path d="M416,291c-2.3-7.2-4.2-12.9-5.8-17.8,11.5-7,22.9-13,33.2-20.5,20.1-14.8,35.7-34.1,49.5-54.8,1.2-1.7,1.4-4.8.8-6.9-3.1-11.7,2.8-22.5,14.2-25.7,10.1-2.8,20.9,3.7,24,14.5,3,10.3-3.5,21.8-14.7,24.2-4.5,1-6.8,3.3-9.1,6.7-18.3,26.5-39.2,50.5-66.9,67.4-7.8,4.8-16.4,8.4-25.2,12.8Z"/>
        <path d="M365.3,223.1c-3-7.1-5.3-12.7-7.8-18.7,30.3-14.7,47.9-40.7,62.5-69.4,1.7-3.3,2.2-6,.3-9.9-5-10,.1-22.1,10.3-26.3,10.2-4.3,22.1.7,26.2,11,4.2,10.4-1,21.5-11.5,26.1-2.9,1.3-5.8,4.1-7.2,6.9-12.7,25.4-28,48.8-50.9,66.2-6.7,5.1-14.1,9.1-22,14Z"/>
        <path d="M368,267c-3.3-5.9-6.3-11.2-8.9-15.8,13.9-10.3,28-19.6,40.7-30.5,11-9.4,20.6-20.5,30.5-31.1,1.4-1.5,2.2-4.6,1.8-6.6-2.4-11.9,3.8-22.4,15.3-25,10.4-2.3,21.3,5.1,23.6,16,2.2,10.4-5.4,21.6-16.4,23.2-4.5.6-7.1,2.7-9.7,5.9-20.4,24.9-44.7,45.3-72.4,61.7-1.2.7-2.6,1.3-4.6,2.3Z"/>
        <path d="M487,150.9c-1.7-1.3-2.9-2.4-4.2-3.4-3.7-2.8-7.3-5.6-11.1-8.5,2.5-2.9,3.8-4.5,5.2-6.1,3.5-4.1,5.8-7.6,3.2-13.9-3.7-9,2.7-19.7,12.2-23.3,9.4-3.6,20.1.6,24.7,9.6,4.7,9.2,2.2,22-7.4,25.5-9.5,3.5-14,10.7-19.8,17.3-.7.8-1.5,1.5-2.7,2.8Z"/>
        <path d="M436.1,66.5c-.5-10.9,8.5-20.7,19.3-21,10.6-.3,20.2,8.4,20.7,19,.5,10.8-8.5,20.7-19.3,21.1-10.6.3-20.2-8.5-20.7-19.1Z"/>
      </g>
    </g>
  </g>
</svg>