<?xml version="1.0" encoding="UTF-8"?>
<svg id="Layer_1" xmlns="http://www.w3.org/2000/svg" version="1.1" viewBox="0 0 60 60">
  <!-- Generator: Adobe Illustrator 29.1.0, SVG Export Plug-In . SVG Version: 2.1.0 Build 142)  -->
  <defs>
    <style>
      .st0 {
        fill: #606060;
      }
    </style>
  </defs>
  <g id="Layer_11" data-name="Layer_1">
    <g>
      <path class="st0" d="M51.5,27.5h4.3v1.9h-4.3v-1.9Z"/>
      <path class="st0" d="M51.5,35.3h4.3v1.9h-4.3v-1.9Z"/>
      <path class="st0" d="M41.3,35.3h4.3v1.9h-4.3v-1.9Z"/>
      <path class="st0" d="M41.3,27.5h4.3v1.9h-4.3v-1.9Z"/>
      <path class="st0" d="M31.2,27.5h4.3v1.9h-4.3v-1.9Z"/>
      <path class="st0" d="M31.2,35.3h4.3v1.9h-4.3v-1.9Z"/>
      <path class="st0" d="M31.2,43h4.3v1.9h-4.3v-1.9Z"/>
      <path class="st0" d="M41.3,43h4.3v1.9h-4.3v-1.9Z"/>
      <path class="st0" d="M51.5,43h4.3v1.9h-4.3v-1.9Z"/>
      <path class="st0" d="M51.5,50.7h4.3v1.9h-4.3v-1.9Z"/>
      <path class="st0" d="M41.3,50.7h4.3v1.9h-4.3v-1.9Z"/>
      <path class="st0" d="M31.2,50.7h4.3v1.9h-4.3v-1.9Z"/>
      <path class="st0" d="M55.7,21.8H4.5c-2.2,0-3.9,1.8-3.9,3.9v28.8c0,2.2,1.8,3.9,3.9,3.9h51.2c2.2,0,3.9-1.8,3.9-3.9v-28.8c0-2.2-1.8-3.9-3.9-3.9ZM26.9,53.3c0,.4-.3.7-.7.7H3.7c-.4,0-.7-.3-.7-.7v-26.5c0-.4.3-.7.7-.7h22.5c.4,0,.7.3.7.7,0,0,0,26.5,0,26.5ZM37,53.3c0,.4-.3.7-.7.7h-5.7c-.4,0-.7-.3-.7-.7v-3.3c0-.4.3-.7.7-.7h5.7c.4,0,.7.3.7.7v3.3ZM37,45.6c0,.4-.3.7-.7.7h-5.7c-.4,0-.7-.3-.7-.7v-3.3c0-.4.3-.7.7-.7h5.7c.4,0,.7.3.7.7v3.3ZM37,37.9c0,.4-.3.7-.7.7h-5.7c-.4,0-.7-.3-.7-.7v-3.3c0-.4.3-.7.7-.7h5.7c.4,0,.7.3.7.7v3.3ZM37,30.1c0,.4-.3.7-.7.7h-5.7c-.4,0-.7-.3-.7-.7v-3.3c0-.4.3-.7.7-.7h5.7c.4,0,.7.3.7.7v3.3ZM47.1,53.3c0,.4-.3.7-.7.7h-5.7c-.4,0-.7-.3-.7-.7v-3.3c0-.4.3-.7.7-.7h5.7c.4,0,.7.3.7.7v3.3ZM47.1,45.6c0,.4-.3.7-.7.7h-5.7c-.4,0-.7-.3-.7-.7v-3.3c0-.4.3-.7.7-.7h5.7c.4,0,.7.3.7.7v3.3ZM47.1,37.9c0,.4-.3.7-.7.7h-5.7c-.4,0-.7-.3-.7-.7v-3.3c0-.4.3-.7.7-.7h5.7c.4,0,.7.3.7.7v3.3ZM47.1,30.1c0,.4-.3.7-.7.7h-5.7c-.4,0-.7-.3-.7-.7v-3.3c0-.4.3-.7.7-.7h5.7c.4,0,.7.3.7.7v3.3ZM57.2,53.3c0,.4-.3.7-.7.7h-5.7c-.4,0-.7-.3-.7-.7v-3.3c0-.4.3-.7.7-.7h5.7c.4,0,.7.3.7.7v3.3ZM57.2,45.6c0,.4-.3.7-.7.7h-5.7c-.4,0-.7-.3-.7-.7v-3.3c0-.4.3-.7.7-.7h5.7c.4,0,.7.3.7.7v3.3ZM57.2,37.9c0,.4-.3.7-.7.7h-5.7c-.4,0-.7-.3-.7-.7v-3.3c0-.4.3-.7.7-.7h5.7c.4,0,.7.3.7.7v3.3ZM57.2,30.1c0,.4-.3.7-.7.7h-5.7c-.4,0-.7-.3-.7-.7v-3.3c0-.4.3-.7.7-.7h5.7c.4,0,.7.3.7.7v3.3Z"/>
      <path class="st0" d="M4.4,27.5v25.1h21.1v-25.1s-21.1,0-21.1,0ZM14.9,29.2c2.7,0,4.8,2.2,4.8,4.8s-2.2,4.8-4.8,4.8-4.8-2.2-4.8-4.8,2.2-4.8,4.8-4.8h0ZM22.8,50.2c0,.4-.3.7-.7.7H7.7c-.4,0-.7-.3-.7-.7v-4.8c0-3,2.5-5.5,5.5-5.5h4.7c3,0,5.5,2.5,5.5,5.5v4.8h0Z"/>
      <path class="st0" d="M21.4,45.4v4.1h-13v-4.1c0-2.3,1.9-4.1,4.1-4.1h4.7c2.3,0,4.1,1.9,4.1,4.1h0Z"/>
      <circle class="st0" cx="14.9" cy="34.1" r="3.4"/>
      <path class="st0" d="M48.5,9.2c.3.3.3.7,0,1s-.3.2-.5.2-.4,0-.5-.2c-4.7-4.7-10.8-7.2-17.4-7.2s-12.8,2.6-17.4,7.2c-.3.3-.7.3-1,0s-.3-.7,0-1C16.6,4.3,23.1,1.6,30.1,1.6s13.5,2.7,18.4,7.6h0Z"/>
      <path class="st0" d="M42.2,12.5c.3.3.3.7,0,1,0,.1-.3.2-.5.2s-.4,0-.5-.2c-3-3-6.9-4.6-11.1-4.6s-8.2,1.6-11.1,4.6c-.3.3-.7.3-1,0s-.3-.7,0-1c3.2-3.2,7.6-5,12.1-5s8.9,1.8,12.1,5Z"/>
      <path class="st0" d="M35.9,15.9c.3.3.3.7,0,1,0,.1-.3.2-.5.2s-.4,0-.5-.2c-1.3-1.3-3-2-4.8-2s-3.6.7-4.8,2c-.3.3-.7.3-1,0s-.3-.7,0-1c1.6-1.6,3.6-2.4,5.8-2.4s4.3.9,5.8,2.4Z"/>
    </g>
  </g>
</svg>