<?xml version="1.0" encoding="UTF-8"?>
<svg id="Layer_1" xmlns="http://www.w3.org/2000/svg" version="1.1" viewBox="0 0 60 60">
  <!-- Generator: Adobe Illustrator 29.1.0, SVG Export Plug-In . SVG Version: 2.1.0 Build 142)  -->
  <defs>
    <style>
      .st0 {
        fill: #606060;
      }
    </style>
  </defs>
  <g id="Layer_11" data-name="Layer_1">
    <path class="st0" d="M9.9,19.3c0-.6-.5-1-1.1-1s-1,.5-1,1l-.8,18.2h3.7s-.8-18.2-.8-18.2Z"/>
    <path class="st0" d="M54.9,39.4H5.1c-1.6,0-2.9,1.3-2.9,2.9h55.6c0-1.6-1.3-2.9-2.9-2.9Z"/>
    <path class="st0" d="M52.2,19.3c0-.6-.5-1-1.1-1s-1,.5-1,1l-.8,18.2h3.7s-.8-18.2-.8-18.2Z"/>
    <path class="st0" d="M5.1,58.6h49.9c1.6,0,2.9-1.3,2.9-2.9H2.2c0,1.6,1.3,2.9,2.9,2.9h0Z"/>
    <path class="st0" d="M2.2,53.8h55.6v-9.6H2.2v9.6ZM54,46.1h1.9v1.9h-1.9v-1.9ZM50.1,46.1h1.9v1.9h-1.9v-1.9ZM46.3,46.1h1.9v1.9h-1.9v-1.9ZM42.5,46.1h1.9v1.9h-1.9v-1.9ZM38.6,46.1h1.9v1.9h-1.9v-1.9ZM34.8,46.1h1.9v1.9h-1.9v-1.9ZM14.7,46.1c1.6,0,2.9,1.3,2.9,2.9s-1.3,2.9-2.9,2.9-2.9-1.3-2.9-2.9,1.3-2.9,2.9-2.9ZM7,46.1c1.6,0,2.9,1.3,2.9,2.9s-1.3,2.9-2.9,2.9-2.9-1.3-2.9-2.9,1.3-2.9,2.9-2.9Z"/>
    <circle class="st0" cx="7" cy="49" r="1"/>
    <circle class="st0" cx="14.7" cy="49" r="1"/>
    <circle class="st0" cx="30" cy="10.7" r="2.9"/>
    <path class="st0" d="M37.4,15.9c1.6-3.3,1.6-7.1,0-10.4l-1.7.8c1.4,2.8,1.4,6,0,8.7l1.7.8h0Z"/>
    <path class="st0" d="M44.2,18.6l1.4,1.3c4.8-5.3,4.8-13.3,0-18.6l-1.4,1.3c4.1,4.5,4.1,11.4,0,16Z"/>
    <path class="st0" d="M24.3,15c-1.4-2.8-1.4-6,0-8.7l-1.7-.8c-1.6,3.3-1.6,7.1,0,10.4l1.7-.8h0Z"/>
    <path class="st0" d="M15.8,18.6c-4.1-4.5-4.1-11.4,0-16l-1.4-1.3c-4.8,5.3-4.8,13.3,0,18.6,0,0,1.4-1.3,1.4-1.3Z"/>
    <path class="st0" d="M15.6,30.8l4.8,3.8v-1.9h6.7v-3.8h-6.7v-1.9s-4.8,3.8-4.8,3.8Z"/>
    <path class="st0" d="M32.9,32.7h6.7v1.9l4.8-3.8-4.8-3.8v1.9h-6.7s0,3.8,0,3.8Z"/>
  </g>
</svg>