<?xml version="1.0" encoding="UTF-8"?>
<svg id="Layer_1" xmlns="http://www.w3.org/2000/svg" version="1.1" viewBox="0 0 60 60">
  <!-- Generator: Adobe Illustrator 29.1.0, SVG Export Plug-In . SVG Version: 2.1.0 Build 142)  -->
  <defs>
    <style>
      .st0 {
        fill: #606060;
      }
    </style>
  </defs>
  <g id="Layer_11" data-name="Layer_1">
    <g>
      <path class="st0" d="M38.7,24.8v25.5q0,.5-.5.5h-16.4c-.4,0-.5,0-.5-.4V15q0-.5.5-.5h16.4q.5,0,.5.5v9.9h0ZM25.7,28.5h1.7c.3,0,.4-.1.4-.4v-2.2c0-.2,0-.3-.3-.3h-3.5c-.2,0-.4,0-.4.3v2.2c0,.3.1.4.4.4h1.7ZM34.5,28.5h1.7c.3,0,.4-.1.4-.4v-2.2c0-.3,0-.3-.4-.3h-3.5c-.3,0-.4,0-.4.4v2.2c0,.3,0,.4.4.4h1.8ZM34.5,25.3h1.8c.3,0,.4-.1.4-.4v-2.2c0-.3,0-.4-.4-.4h-3.5c-.3,0-.4,0-.4.4v2.2c0,.3,0,.4.4.4h1.7ZM25.6,25.3h1.8c.2,0,.3,0,.3-.3v-2.3c0-.2,0-.3-.3-.3h-3.5c-.3,0-.3.1-.3.4v2.3c0,.2,0,.3.3.3h1.7Z"/>
      <path class="st0" d="M30.1,13.8H3.3c-.3,0-.5-.2-.5-.5v-3.1c0-.3,0-.4.4-.4h53.5c.8,0,.8-.1.8.8v2.8q0,.4-.5.4h-26.9ZM29.8,12.8c0-.2-.2-.5-.3-.7v-.4c.3-.5,0-1-.5-1.1h-.9s-.3.1-.3.2v1.8s.1.2.2.2c0,0,.2,0,.2-.2v-.4c0-.2.1-.3.3-.3.4,0,.5.3.6.6,0,.2.2.3.5.2h.2ZM24,11.6h.1s.1.2.2.3c.2.3.3.5.5.8,0,.1.3.2.4.2,0-.1.1-.3.1-.4v-1.1c0-.2.2-.7-.2-.7s-.1.5-.2.7v.5c-.2,0-.2-.2-.3-.3-.2-.3-.4-.6-.6-.9,0,0-.2-.1-.3-.1,0,0-.1.1-.1.2v1.9s.1.2.2.2c0,0,.2,0,.2-.1v-1.2ZM33.8,11.9h0s-.2-.2-.2-.3c-.2-.3-.4-.6-.6-.9,0,0-.2-.1-.3-.1,0,0,0,.1,0,.2v1.8s0,.2.2.2c0,0,.2-.1.2-.2v-1.1c0,0,.2.2.3.2.2.3.3.6.5.8,0,.1.2.1.4.2,0-.1,0-.2,0-.3v-1.5c0-.1,0-.2-.2-.3,0,.1-.2.2-.2.3v1h-.1ZM37,11.7h0v.8c0,.2,0,.3.3.3h1.1s.2-.1.3-.2c0,0-.2-.2-.3-.2h-.7c-.2,0-.3-.1-.3-.3s0-.3.3-.3h.6s.2-.1.3-.2c0,0-.2-.2-.3-.2h-.6c-.2,0-.3,0-.3-.3s.2-.3.3-.3h.6s.2-.1.2-.2l-.2-.2h-1.1c-.2,0-.3,0-.3.3v1ZM21.5,11.7v.9s.1.2.2.2h1.2s.2-.1.3-.2c0,0-.2-.2-.3-.2h-.7c-.2,0-.3-.1-.3-.3s0-.3.3-.3h.6s.2-.1.3-.2l-.2-.2h-.6c-.1,0-.2-.2-.3-.3,0,0,.2-.2.3-.2h.7s.2-.1.2-.2l-.2-.2h-1.1c-.2,0-.3.1-.3.3v.8h-.1ZM30,12.7c.3.2.4,0,.5-.2,0-.3.2-.4.6-.4s.4.1.5.4c0,0,.1.2.2.2h.2v-.2c-.2-.6-.5-1.2-.8-1.8,0-.2-.4-.2-.5,0-.3.7-.5,1.3-.8,2h0ZM34.6,11.7c0,.2,0,.4.2.6.3.6,1.2.7,1.6.2,0-.1,0-.3,0-.4,0,0-.3,0-.4.1-.2.2-.4.3-.7.1-.4-.2-.5-.8-.2-1.2.2-.3.5-.3.9,0h.3v-.3c-.2-.3-.7-.4-1.1-.3s-.7.6-.7,1.1h0ZM26.4,11.9h0v.6c0,.1.1.2.2.3,0,0,.2-.2.2-.3v-1.1c0-.3,0-.5.4-.5,0,0,.2-.1.3-.2,0,0-.2-.2-.3-.2h-1.3s-.2.1-.2.2l.2.2c.4,0,.5.2.4.5v.5h0Z"/>
      <path class="st0" d="M2.7,32.6V15c0-.3.2-.5.5-.5h1.2c.3,0,.4.1.3.4h0v35.6c0,.2,0,.4-.3.4h-1.4c-.2,0-.3,0-.3-.3v-17.9h0Z"/>
      <path class="st0" d="M57.4,32.6v17.7q0,.4-.5.4h-1.2c-.3,0-.4,0-.4-.4V15q0-.6.5-.6h1.2c.3,0,.4,0,.3.4v17.8h.1Z"/>
      <path class="st0" d="M15.7,27.8v-12.9c0-.2,0-.5.1-.5h.9v35.9c0,.3,0,.5-.4.4h-.1c-.3,0-.5-.2-.5-.5v-19.6c0-.9,0-1.9,0-2.8Z"/>
      <path class="st0" d="M44.4,25.5v24.8c0,.2,0,.4,0,.5h-.9V15c0-.2,0-.5,0-.5h.9s0,.2,0,.4v10.7h0Z"/>
      <path class="st0" d="M10.6,32.2h4.4c.1,0,.3.3.3.4s-.2.3-.3.4H6.4c-.2,0-.4-.2-.3-.4,0-.2.2-.3.4-.4h4.3-.2Z"/>
      <path class="st0" d="M49.6,33.1h-4c-.2,0-.4,0-.5,0,0,0-.2-.3,0-.4,0,0,.2-.3.3-.3h8.4c.3,0,.5,0,.5.4s-.2.4-.5.4h-4.1Z"/>
      <path class="st0" d="M49.6,42.4h-4c-.2,0-.4,0-.5-.2,0,0,0-.3,0-.5,0,0,.3-.2.4-.2h8.3c.3,0,.5,0,.5.4s-.2.4-.5.4h-4.2Z"/>
      <path class="st0" d="M10.6,42.4h-4.2c-.3,0-.5-.3-.4-.5,0,0,.3-.3.4-.4h8.2c.4,0,.7.2.7.4,0,.3-.3.5-.7.5h-4Z"/>
      <path class="st0" d="M53,39.3h-7.5c-.2,0-.4,0-.5-.3s0-.6.5-.6h8.3c.3,0,.4.2.4.5s-.2.4-.4.4h-.9.1Z"/>
      <path class="st0" d="M10.3,39.3h-3.8c-.3,0-.5,0-.5-.4s.3-.4.5-.4h8.3c.3,0,.4.2.4.4,0,.3-.2.4-.5.4h-4.4,0Z"/>
      <path class="st0" d="M48.6,35.4h5c.4,0,.6.2.6.4s-.2.4-.6.4h-8.1c-.4,0-.6-.2-.5-.4,0-.3.3-.4.5-.4h3.1Z"/>
      <path class="st0" d="M12.1,36.2h-5.6c-.4,0-.6-.2-.6-.4,0-.3.3-.4.5-.4h8.3c.3,0,.4,0,.4.4s-.2.4-.5.4h-2.7.2Z"/>
      <path class="st0" d="M49.6,16.8h4.2c.3,0,.4.2.4.4s-.2.3-.4.4h-8.5c-.2,0-.4-.2-.4-.4,0-.3.2-.4.4-.4h4.3Z"/>
      <path class="st0" d="M49.6,30h-4.3c0,0-.3-.2-.3-.4s.2-.3.3-.4h8.3c.5,0,.7.1.7.4s-.2.4-.7.4h-4Z"/>
      <path class="st0" d="M49.6,48.5h-4.2c-.2,0-.4-.2-.3-.4,0,0,.2-.3.3-.4h8.4c.3,0,.5.2.4.4,0,.2-.2.4-.4.4h-4.2Z"/>
      <path class="st0" d="M49.5,20.7h-4.2c0,0-.3-.2-.3-.4s.2-.3.3-.4h8.6c0,.1.3.3.3.4s-.2.3-.3.4h-4.4Z"/>
      <path class="st0" d="M49.6,23h4.3c0,.1.3.3.4.4,0,.1-.2.3-.4.4h-8.5c0,0-.3-.2-.3-.4s0-.3.3-.4h4.4-.2Z"/>
      <path class="st0" d="M49.6,26.1h4.2c.2,0,.4.3.4.4,0,.2-.2.3-.4.4h-8.6c0-.1-.3-.3-.3-.4s.2-.3.3-.4h4.4Z"/>
      <path class="st0" d="M10.6,17.6h-4.2c-.2,0-.4-.2-.4-.4s.2-.4.4-.4h8.3c.3,0,.5,0,.6.4,0,.3-.2.4-.6.4h-4.1Z"/>
      <path class="st0" d="M10.6,48.5h-4.3c0,0-.3-.3-.3-.4s.2-.3.3-.4h8.6c.1,0,.3.3.3.4s-.2.3-.3.4h-4.3Z"/>
      <path class="st0" d="M10.6,23h4.3c.1,0,.3.3.3.4s-.2.3-.3.4H6.3c0-.1-.3-.3-.3-.4s.2-.3.3-.4h4.3Z"/>
      <path class="st0" d="M10.5,26.9h-4.2c0-.1-.3-.3-.3-.4s.2-.3.3-.4h8.4c.1.1.4.3.4.4,0,.2-.2.3-.4.4h-4.2Z"/>
      <path class="st0" d="M10.5,30h-4.2c0,0-.3-.2-.3-.4s.2-.3.3-.4h8.6c.1.1.3.3.3.4s-.2.3-.3.4h-4.4Z"/>
      <path class="st0" d="M49.6,45.5h-4.1c-.2,0-.4,0-.5-.2-.2-.2,0-.5.2-.6h8.6c.2,0,.4.2.4.4s-.2.4-.4.4h-1.2c-1,0-2,0-3,0Z"/>
      <path class="st0" d="M10.6,20.7h-4.2c0,0-.3-.2-.3-.4s.2-.3.3-.4h8.5c.2,0,.4.2.4.4s-.1.4-.4.4h-4.3Z"/>
      <path class="st0" d="M10.6,44.6h4.2c.1,0,.3.2.3.4s-.2.3-.3.4H6.2c0,0-.3-.3-.3-.4s.2-.3.3-.4h4.4Z"/>
      <path class="st0" d="M41.3,33.1h-.8c-.3,0-.5,0-.5-.4s.2-.4.5-.4h1.9c.3,0,.5,0,.5.4s-.2.4-.5.4h-1.1Z"/>
      <path class="st0" d="M18.3,38.4h1.4c.3,0,.5.2.5.5s-.2.4-.5.4h-2c-.3,0-.4-.2-.4-.4s.2-.4.4-.4h.6Z"/>
      <path class="st0" d="M40.9,38.4h1.4c.3,0,.5,0,.5.5s-.2.4-.5.4h-1.9c-.3,0-.4-.2-.4-.4,0-.3.2-.4.4-.4h.6,0Z"/>
      <path class="st0" d="M41.3,42.4h-.9c-.3,0-.5-.2-.5-.5s.2-.4.5-.4h2c.2,0,.4.2.4.4,0,.3-.2.4-.4.4h-1.1Z"/>
      <path class="st0" d="M19.4,36.2h-1.5c-.3,0-.5-.2-.5-.4,0-.3.2-.4.5-.4h1.7c.4,0,.7.2.7.5s-.2.5-.6.5h-.2v-.2Z"/>
      <path class="st0" d="M18.8,42.4h-1c-.2,0-.4,0-.5-.4,0-.3.2-.4.4-.4h1.9c.3,0,.5,0,.6.4,0,.3-.1.5-.5.5h-.9Z"/>
      <path class="st0" d="M41.3,30h-1c-.3,0-.5-.1-.5-.4s.2-.4.5-.4h2c.3,0,.4.2.4.4,0,.3-.2.4-.4.4h-1Z"/>
      <path class="st0" d="M18.8,32.2h.9c.3,0,.5,0,.5.4s-.2.4-.4.4h-2c-.3,0-.4-.2-.4-.4,0-.3.2-.4.4-.4h1Z"/>
      <path class="st0" d="M18.8,23h.9c.3,0,.5.1.5.4s-.2.4-.5.4h-2c-.3,0-.5-.2-.4-.4,0-.3.2-.4.4-.4h1.1Z"/>
      <path class="st0" d="M41.3,26.9h-.9c-.3,0-.5-.1-.5-.4s.2-.4.5-.4h1.9c.3,0,.5.1.5.4s-.2.4-.5.4h-1Z"/>
      <path class="st0" d="M41.4,19.9h.9c.3,0,.5.1.5.4s-.2.4-.5.4h-2c-.3,0-.4-.1-.4-.4s.2-.4.4-.4h1.1Z"/>
      <path class="st0" d="M41.3,35.3h1c.3,0,.5,0,.4.4,0,.3-.2.4-.5.4h-1.9c-.3,0-.5,0-.5-.4s.2-.4.5-.4h1Z"/>
      <path class="st0" d="M18.8,45.5h-1c-.3,0-.4-.2-.5-.4,0-.3.2-.4.4-.4h2c.3,0,.4,0,.4.4s-.2.4-.4.4h-1,.1Z"/>
      <path class="st0" d="M18.8,20.7h-1c-.3,0-.4-.1-.4-.4s.2-.4.4-.4h2c.3,0,.4.2.4.4,0,.3-.2.4-.4.4h-1Z"/>
      <path class="st0" d="M41.3,45.5h-1c-.3,0-.5,0-.5-.4s.2-.4.5-.4h2c.3,0,.5,0,.4.4,0,.3-.2.4-.5.4h-.9Z"/>
      <path class="st0" d="M41.4,23h.9c.3,0,.5.1.5.4s-.2.4-.5.4h-1.9c-.3,0-.5-.1-.5-.4s.2-.4.5-.4h1Z"/>
      <path class="st0" d="M18.8,26.1h1c.3,0,.5.1.5.4s-.2.4-.5.4h-1.9c-.3,0-.5-.1-.5-.4s.2-.4.5-.4h.9Z"/>
      <path class="st0" d="M18.8,47.7h.9c.3,0,.5,0,.5.4s-.2.4-.4.4h-2c-.3,0-.5,0-.4-.4,0-.3.2-.4.5-.4h1-.1Z"/>
      <path class="st0" d="M18.8,16.8h1c.3,0,.5.1.5.4s-.2.4-.5.4h-1.9c-.3,0-.5-.2-.5-.4,0-.3.2-.4.5-.4h.9Z"/>
      <path class="st0" d="M18.8,30h-.9c-.3,0-.5-.1-.5-.4s.2-.4.5-.4h1.9c.3,0,.5.1.5.4s-.2.4-.5.4h-1Z"/>
      <path class="st0" d="M41.3,16.8h1c.3,0,.5.1.5.4s-.2.4-.5.4h-1.9c-.3,0-.5-.1-.5-.4s.2-.4.5-.4h.9Z"/>
      <path class="st0" d="M41.4,47.7h.9c.3,0,.4,0,.4.4s-.2.4-.4.4h-2c-.3,0-.5,0-.5-.4s.2-.4.5-.4h1.1Z"/>
      <path class="st0" d="M25.7,27.3h-1c0-.3-.1-.6-.1-1,0,0,.2-.2.3-.2h1.9v1.1h-1.1ZM25.8,26.6c-.2-.2-.2-.4-.4-.4s-.3,0-.3.3,0,.4.3.4.2-.2.4-.3ZM26.2,26.6l-.3-.3c0,.1-.2.2-.2.3,0,.2,0,.4.2.3l.3-.3ZM25,26.3h-.1v.8h.1c.1-.3.1-.5,0-.8ZM26.5,27.1v-.9c-.2.3-.2.6,0,.9Z"/>
      <path class="st0" d="M34.5,27.3h-.9c-.2,0-.3,0-.3-.3h0c0-.6.3-.9.9-.9h1.1c.3,0,.4.1.4.4,0,1,0,.8-.8.9h-.4ZM34.1,26.3v.2c0,.2,0,.3,0,.5,0-.1.2-.3.2-.4h0c0,.1.2.3.3.4,0,0,.3,0,.3-.2v-.4s-.2,0-.4-.1h-.5ZM33.7,27.1h0v-.8h0v.8ZM35.3,26.2c-.2.3-.2.7,0,.8v-.8Z"/>
      <path class="st0" d="M34.5,24.1h-1.3c-.4,0-.3-.2-.3-.5s0-.4.3-.4h2.7c.3,0,.3.2.3.4s0,.5-.3.5h-1.4Z"/>
      <path class="st0" d="M25.6,23.3h1.3c.3,0,.4.2.4.4,0,.3,0,.5-.4.5h-2.7c-.4,0-.3-.2-.3-.5s0-.4.4-.4h1.3Z"/>
      <path class="st0" d="M28.7,11.6c-.2,0-.4,0-.4-.3s.2-.3.4-.3.5,0,.5.3-.3.3-.5.3Z"/>
      <path class="st0" d="M30.8,11.8c0-.1,0-.3.1-.4h.1c0,.2.1.3.2.5-.1,0-.2,0-.3.1h0c0-.1-.1-.2-.1-.2Z"/>
    </g>
  </g>
</svg>