<?xml version="1.0" encoding="UTF-8"?>
<svg id="Layer_1" xmlns="http://www.w3.org/2000/svg" version="1.1" viewBox="0 0 60 60">
  <!-- Generator: Adobe Illustrator 29.1.0, SVG Export Plug-In . SVG Version: 2.1.0 Build 142)  -->
  <defs>
    <style>
      .st0 {
        fill: #606060;
      }
    </style>
  </defs>
  <g id="Layer_11" data-name="Layer_1">
    <g>
      <path class="st0" d="M.7,10.1c.4-1,1.2-1.3,2.2-1.3,18,0,36.1,0,54.1,0s1.8.4,2,1.3c0,.2,0,.3,0,.5v9.2c0,0,0,.1,0,.3H1.5c-.3,0-.5,0-.8,0v-10h0ZM49,17.8c.4,0,.8,0,1.2,0,.9,0,1.6-.8,1.6-1.6,0-.9-.6-1.6-1.5-1.7-.9,0-1.8,0-2.6,0-.9,0-1.5.8-1.5,1.7,0,.9.7,1.6,1.6,1.6.4,0,.8,0,1.2,0h0ZM42.3,17.8h0c.4,0,.8,0,1.2,0,.9,0,1.6-.8,1.6-1.6,0-.9-.6-1.6-1.5-1.7-.9,0-1.8,0-2.6,0-.9,0-1.5.8-1.5,1.8,0,.9.7,1.5,1.6,1.6.4,0,.8,0,1.1,0h0Z"/>
      <path class="st0" d="M5.8,23.5h48.3c0,.1,0,.2,0,.3,0,2.9,0,5.8-.1,8.7-.4,6.5-3.2,12-8,16.4-3.6,3.2-7.8,5.2-12.6,5.9-13.1,1.9-24.6-6.8-27.1-18.9-.3-1.4-.5-2.9-.5-4.4,0-2.6,0-5.2,0-7.9h0ZM40.6,37.5c0-5.8-4.7-10.6-10.6-10.7-5.9-.1-10.7,4.7-10.8,10.6,0,5.8,4.7,10.7,10.6,10.7,5.8,0,10.6-4.7,10.7-10.6h0Z"/>
      <path class="st0" d="M29.9,44.8c-4,0-7.3-3.3-7.3-7.3,0-4,3.3-7.3,7.3-7.3,4,0,7.3,3.3,7.3,7.3,0,4-3.3,7.3-7.3,7.3h0ZM30,34c-1.9,0-3.5,1.5-3.5,3.4,0,1.9,1.6,3.5,3.5,3.5,1.9,0,3.5-1.6,3.5-3.5s-1.5-3.4-3.4-3.5Z"/>
    </g>
  </g>
</svg>