<?xml version="1.0" encoding="UTF-8"?>
<svg id="Layer_1" xmlns="http://www.w3.org/2000/svg" version="1.1" viewBox="0 0 60 60">
  <!-- Generator: Adobe Illustrator 29.1.0, SVG Export Plug-In . SVG Version: 2.1.0 Build 142)  -->
  <defs>
    <style>
      .st0 {
        fill: #606060;
      }
    </style>
  </defs>
  <g id="Layer_11" data-name="Layer_1">
    <g>
      <path class="st0" d="M5.4,17.7c1-.4,1.9-.7,2.9-1.1,9.9-3.6,19.8-7.2,29.8-10.9,2.2-.8,4.2-.5,6.2.5,2.2,1.1,3.9,2.8,5.3,4.8,1.7,2.4,3,5,4,7.8.6,1.6,0,2.7-1.6,3.3-5,1.8-10,3.6-15,5.5-4.7,1.7-9.4,3.4-14.1,5.1-2.5.9-4.3.1-5.4-2.3-1-2.2-1.9-4.5-3.4-6.4-1.7-2.1-3.7-4-6.1-5.2-.8-.4-1.8-.7-2.7-1.1h0Z"/>
      <path class="st0" d="M49.7,24.2c-.1,1.7-.5,3.3-1.5,4.7-.7,1-1.5,1.7-2.6,2.1-8.1,2.9-16.1,5.8-24.2,8.7,0,0-.2,0-.3,0,.4-1.1.8-2.1,1.1-3.2.2-.7.3-1.4.3-2,0-.4.2-.6.5-.7,5.4-1.9,10.8-3.9,16.2-5.9,3.2-1.2,6.4-2.3,9.6-3.5.2,0,.4-.2.7-.2h0Z"/>
      <path class="st0" d="M59.3,54.7c-1.2,0-2.3,0-3.4,0-1.2,0-2.1-1.2-2.1-2.4,0-2.5,0-5.1,0-7.6v-8c0-1.8,1-2.7,2.8-2.7h2.8v20.8h0Z"/>
      <path class="st0" d="M31.5,37.4c4-1.4,7.8-2.8,11.8-4.2-.3.9-.5,1.8-.8,2.5-.5,1.1-.4,2.2,0,3.3.6,1.4,1.1,2.8,1.6,4.2.7,2-.2,4-2,4.7-1.9.7-3.9-.3-4.7-2.3-.7-1.8-1.3-3.5-1.9-5.3-.1-.4-.4-.7-.7-.9-1-.7-2-1.3-3.2-2.1h0ZM42.7,44.3c0-1.1-.9-2-2-2-1.1,0-2,.9-2,2,0,1.1.9,2,2,2,1.1,0,2-.9,2-2Z"/>
      <path class="st0" d="M8.8,20.5c.8.6,1.6,1.3,2.5,1.9-2.1.8-2.6,2.5-2.7,4.4-.1,3.7,1.1,7,3.6,9.8.6.6,1.4,1.2,2.2,1.6,1.6.8,3.3.2,4-1.5.4-.9.6-1.9.8-2.8.7.2,1.5.3,2.3.5,0,3.1-1.6,6.3-4.3,6.8-1.7.4-3.2-.1-4.6-1-2.7-1.8-4.4-4.4-5.4-7.3-1-2.9-1.4-5.8-.6-8.8.4-1.4,1.1-2.6,2.3-3.6h0Z"/>
      <path class="st0" d="M9.7,27.1c.1-.5.2-1.4.6-2.2.2-.4.6-.8,1-1.1.5-.3,1.1-.2,1.5.3,1.5,1.6,2.3,3.6,3.2,5.6.5,1,1,2,1.5,2.9,0,.1.1.3.1.4,0,.9,0,1.9-.4,2.8-.4,1.4-1.6,1.9-2.9,1.1-.7-.4-1.3-.9-1.8-1.6-1.9-2.3-2.8-4.9-2.9-8.3h0ZM15.7,31.4c-.1-1.4-.5-2.5-1.5-3.3-.9-.7-1.9-.4-2.3.5-.6,1.4.3,3.8,1.6,4.4.8.4,1.7.1,2-.7.1-.3.2-.7.2-.9h0Z"/>
      <path class="st0" d="M52.5,47.6h-7.9c1.7-2.2,1-4.4,0-6.6h7.9v6.6h0Z"/>
      <path class="st0" d="M4.9,30.4c-1.6-2.2-3.1-4.5-3.9-7.1-.2-.6-.3-1.2-.4-1.8,0-.5,0-1.1.3-1.5.2-.6.8-.9,1.5-1,1.8-.2,3.4.2,5.1.9-2.9,3.1-3.1,6.7-2.5,10.6Z"/>
      <path class="st0" d="M41.6,44.5c-.3.2-.6.5-.9.5-.5,0-.8-.3-.7-.8,0-.3.5-.7.7-.7.3,0,.6.4.9.6,0,.1,0,.2,0,.3Z"/>
      <path class="st0" d="M13.2,29c1,.5,1.6,2.1,1.1,3-1-.5-1.6-2.1-1.1-3Z"/>
    </g>
  </g>
</svg>