<?xml version="1.0" encoding="UTF-8"?>
<svg id="Layer_1" xmlns="http://www.w3.org/2000/svg" version="1.1" viewBox="0 0 60 60">
  <!-- Generator: Adobe Illustrator 29.1.0, SVG Export Plug-In . SVG Version: 2.1.0 Build 142)  -->
  <defs>
    <style>
      .st0 {
        fill: #606060;
      }
    </style>
  </defs>
  <g id="Layer_11" data-name="Layer_1">
    <g>
      <path class="st0" d="M3.6,1.8h37.7c1.3.4,1.8,1.3,1.8,2.7,0,15.5,0,31.1,0,46.6s-.8,2.6-2.6,2.6H4.5c-1.8,0-2.6-.8-2.6-2.6,0-15.5,0-31,0-46.5,0-1.3.5-2.2,1.8-2.7h0ZM6.3,33.1v13c0,2,1.3,3.2,3.2,3.2h26c2,0,3.2-1.3,3.2-3.2v-25.9c0-2-1.3-3.2-3.3-3.2H9.5c-2,0-3.3,1.3-3.3,3.3v12.9h0ZM22.4,14.2h13c2,0,3.2-1.3,3.3-3.3v-1.3c0-2.1-1.2-3.3-3.3-3.3H9.6c-2.1,0-3.3,1.2-3.3,3.3v1.3c0,2.1,1.2,3.3,3.4,3.3h12.8Z"/>
      <path class="st0" d="M58.1,29c-.4.6-.8,1.2-1.2,1.8-.2.3-.4.4-.7.4-2.2,0-4.4,0-6.6,0-.2,0-.4-.2-.6-.3,0,0,0,0,0,0-1-1.2-1.4-2.5-1.3-4,.1-1.4,0-2.8,0-4.2,0,0,0,0,0-.2h10.4v6.6h0ZM52.9,27.4c.4,0,.9,0,1.3,0,.5,0,.9-.4.9-.8,0-.5-.3-.8-.9-.8-.9,0-1.8,0-2.6,0-.5,0-.9.4-.9.8,0,.5.3.8.9.8.4,0,.9,0,1.3,0h0Z"/>
      <path class="st0" d="M48,41.9c.1,0,.1,0,.2,0,1.7-.1,1.9,0,1.9,1.7v11.4c0,.2,0,.4,0,.7,0,.5.5.9,1,.9.5,0,.9-.4,1-.9,0-.2,0-.4,0-.6v-18.8h1.6c0,.1,0,.2,0,.3v18.9c0,2.1-2.2,3.4-4,2.3-.8-.5-1.2-1.1-1.3-2,0-.4,0-.8,0-1.2v-10.5c0-.2.1-.5-.3-.6,0,0-.1-.2-.1-.3v-1.3h0Z"/>
      <path class="st0" d="M6.3,55.4h13.7c-.4.8-.8,1.6-1.2,2.4-.1.2-.5.4-.7.4-3.6,0-7.2,0-10.8,0-.5,0-.9-.3-.9-.8,0-.6,0-1.3,0-1.9h0Z"/>
      <path class="st0" d="M25,55.4h13.7c0,.7,0,1.3,0,2,0,.5-.4.7-1,.7h-4c-2.2,0-4.4,0-6.5,0-.6,0-1-.2-1.2-.8-.3-.6-.6-1.3-1-2h0Z"/>
      <path class="st0" d="M44.8,38.9h1.6v8.2h-1.6v-8.2Z"/>
      <path class="st0" d="M49.9,34.5v-1.6h6v1.6h-6Z"/>
      <path class="st0" d="M51,20.7h-1.6c0-1.2,0-2.4,0-3.6,0-.5.3-.7.8-.8.4,0,.8.3.8.8,0,1.2,0,2.4,0,3.6h0Z"/>
      <path class="st0" d="M56.5,20.7h-1.6c0-1.2,0-2.4,0-3.6,0-.5.3-.7.8-.8.4,0,.8.3.8.8,0,1.2,0,2.4,0,3.6h0Z"/>
      <path class="st0" d="M22.5,47.7h-12.9c-1.2,0-1.7-.5-1.7-1.7v-25.8c0-1.2.5-1.7,1.7-1.7h25.8c1.2,0,1.7.5,1.7,1.7v25.8c0,1.1-.5,1.6-1.6,1.6h-12.9,0ZM19.7,35.3c0,.1,0,.2,0,.3,0,1.6.2,3.3.2,4.9,0,.8,0,1.6.1,2.5,0,.4.2.7.6.9s.7-.1,1-.5c0,0,0-.2.1-.2,2.2-3.7,4.4-7.5,6.6-11.2.6-1,.3-1.5-.9-1.5h-2.1c0-.2,0-.4.1-.5.6-2.1,1.1-4.1,1.7-6.2.2-.8-.1-1.3-1-1.3h-6.5c-.7,0-.9.2-1.1.9-.9,3.6-1.7,7.2-2.6,10.8-.2.8.1,1.2.9,1.2h2.6ZM10.9,20.2c-.2,0-.4,0-.7,0-.4,0-.7.3-.7.8,0,.5.2.8.7.8.4,0,.9,0,1.3,0,.5,0,.7-.4.7-.8,0-.4-.3-.7-.7-.8-.2,0-.4,0-.7,0h0ZM34,21.9h.6c.5,0,.8-.4.9-.8,0-.5-.3-.8-.8-.8-.4,0-.8,0-1.2,0-.5,0-.7.3-.7.8,0,.5.3.7.7.8.2,0,.4,0,.6,0h0ZM11,44.4h0c-.2,0-.4,0-.6,0-.5,0-.8.4-.8.8s.3.8.8.8c.4,0,.8,0,1.2,0,.5,0,.7-.4.7-.8s-.3-.7-.7-.8c-.2,0-.4,0-.6,0h0ZM34,46h.6c.5,0,.8-.4.9-.8,0-.5-.3-.8-.8-.8-.4,0-.8,0-1.2,0-.5,0-.7.3-.7.8s.3.7.7.8c.2,0,.4,0,.6,0h0Z"/>
      <path class="st0" d="M22.5,12.5h-12.9c-1.2,0-1.7-.5-1.7-1.7v-1.5c0-.9.6-1.4,1.5-1.4,1.4,0,2.9,0,4.3,0h21.5c1.3,0,1.8.5,1.8,1.8v1.3c0,1-.6,1.5-1.5,1.5h-13,0ZM13.7,9.4h-2.1c-.6,0-1,.3-.9.8,0,.5.4.8.9.8,1.4,0,2.8,0,4.2,0,.6,0,.9-.4.9-.8s-.4-.8-.9-.8c-.7,0-1.4,0-2.1,0h0ZM22.5,9.4h-2c-.6,0-1,.3-1,.8,0,.5.3.8.9.8,1.4,0,2.8,0,4.2,0,.6,0,.9-.4.9-.8s-.4-.8-1-.8h-2,0ZM31.3,9.4h-2c-.6,0-1,.3-1,.8s.3.8.9.8c1.4,0,2.8,0,4.2,0,.6,0,.9-.4.9-.8,0-.5-.4-.8-.9-.8-.7,0-1.4,0-2.1,0h0Z"/>
      <path class="st0" d="M25.5,24.1c-.6,2-1.1,4-1.6,6,0,.2-.1.5-.2.7-.2.7.1,1.1.9,1.2.6,0,1.2,0,1.9,0-1.6,2.7-3.2,5.4-4.8,8.1,0-.2,0-.4,0-.5,0-1.6-.2-3.2-.2-4.8,0-1-.3-1.2-1.3-1.3h-1.9s0,0-.2,0c.7-3.2,1.5-6.3,2.3-9.5h5.2Z"/>
    </g>
  </g>
</svg>