<?xml version="1.0" encoding="UTF-8"?>
<svg id="Layer_1" xmlns="http://www.w3.org/2000/svg" version="1.1" viewBox="0 0 60 60">
  <!-- Generator: Adobe Illustrator 29.1.0, SVG Export Plug-In . SVG Version: 2.1.0 Build 142)  -->
  <defs>
    <style>
      .st0 {
        fill: #606060;
      }
    </style>
  </defs>
  <g id="Layer_11" data-name="Layer_1">
    <g>
      <path class="st0" d="M17.6,3.8c9.5,0,17.1,7.7,17.1,17.1,0,9.5-7.7,17-17.2,17-9.5,0-17.1-7.7-17-17.1C.6,11.3,8.2,3.8,17.6,3.8h0ZM17.6,32.5c6.5,0,11.8-5.2,11.8-11.6,0-6.5-5.2-11.7-11.7-11.7-6.5,0-11.8,5.2-11.8,11.6,0,6.5,5.2,11.7,11.7,11.7h0Z"/>
      <path class="st0" d="M3.4,50.7c2.5-4.3,4.9-8.6,7.4-12.9,2.2.9,4.5,1.3,6.9,1.3,2.4,0,4.7-.4,7-1.3,2.5,4.3,4.9,8.5,7.5,12.9H3.4ZM19.4,45.8v-1.2h-3.3v1.2h3.3Z"/>
      <path class="st0" d="M3.6,52.1h28.1c-1.1,1.3-2.1,2.5-3.1,3.7-.1.1-.4.2-.6.2H7.3c-.2,0-.5-.1-.7-.3-1-1.1-1.9-2.3-3-3.6h0Z"/>
      <path class="st0" d="M52.5,36.8c-.5-.5-.9-1-1.4-1.5,3.9-4,5.8-8.9,5.8-14.5,0-5.6-2-10.5-5.8-14.6.5-.5,1-.9,1.5-1.4,8.8,7.9,8.8,23.7,0,31.9Z"/>
      <path class="st0" d="M46.5,10.6c.5-.5,1-1,1.5-1.4,6.2,5.7,7.1,16.5,0,23.4-.5-.5-1-1-1.4-1.5,6.2-6.6,5-15.4,0-20.5h0Z"/>
      <path class="st0" d="M42.4,26.8c3-3.2,3.1-8.2-.2-11.8.5-.5.9-1,1.4-1.4,4.1,3.8,4.3,10.7.2,14.8-.5-.5-.9-1-1.4-1.5Z"/>
      <path class="st0" d="M39.4,17.9c1.7,1.6,1.7,4.5,0,6-.5-.5-.9-1-1.4-1.5.8-1,.7-2-.1-3.1.5-.5,1-.9,1.5-1.4h0Z"/>
      <path class="st0" d="M28.1,20.9c0,5.7-4.7,10.4-10.4,10.4-5.8,0-10.5-4.6-10.5-10.3,0-5.7,4.6-10.4,10.4-10.4,5.8,0,10.5,4.6,10.5,10.3h0ZM21.3,20.9c0-2-1.6-3.6-3.6-3.6s-3.7,1.6-3.7,3.6,1.6,3.6,3.6,3.6c2,0,3.6-1.6,3.7-3.6h0Z"/>
    </g>
  </g>
</svg>