<?xml version="1.0" encoding="UTF-8"?>
<svg xmlns="http://www.w3.org/2000/svg" version="1.1" viewBox="0 0 590.6 590.6">
  <!-- Generator: Adobe Illustrator 28.7.1, SVG Export Plug-In . SVG Version: 1.2.0 Build 142)  -->
  <g>
    <g id="Layer_1">
      <g>
        <path d="M11.9,83.9c4.3-9.4,11.8-12.2,21.8-12.2,174.9.2,349.8.1,524.7.1,11.2,0,17.5,3.9,19.7,12.3.4,1.6.6,3.3.6,4.9,0,29.7,0,59.4,0,89.1,0,.7-.2,1.4-.4,2.9h-7.6c-183.8,0-367.5,0-551.3,0-2.6,0-5.1.2-7.7.3,0-32.5,0-65,0-97.4ZM480.7,159.1c3.9,0,7.8.2,11.6,0,8.8-.6,15.3-7.3,15.6-15.7.3-8.4-5.7-15.9-14.5-16.5-8.4-.7-17-.7-25.4,0-9,.7-14.6,7.8-14.4,16.6.2,8.5,6.7,15.1,15.5,15.7,3.9.3,7.7,0,11.6,0ZM415.2,159.1s0,0,0,0c3.9,0,7.8.2,11.6,0,8.7-.6,15.3-7.3,15.7-15.7.4-8.3-5.7-15.9-14.5-16.6-8.4-.7-17-.7-25.4,0-9.2.7-14.9,8-14.4,17,.4,8.4,7,14.8,15.9,15.3,3.7.2,7.4,0,11.1,0Z"/>
        <path d="M61,213.8h468.3c.2,1.1.5,1.9.5,2.8-.2,28,.7,56.2-1,84.1-3.9,63.4-30.6,116.3-77.6,158.7-34.7,31.4-75.6,50.4-121.9,57-126.6,18.1-238.4-65.9-263-182.9-2.9-14-4.6-28.5-5-42.8-.8-25.4-.2-50.9-.2-77ZM398.8,350.4c.9-56.2-45.2-103-102.5-103.9-56.9-1-103.8,45.2-104.6,102.9-.8,56.4,45.7,103.4,103,104.1,56.5.7,103.1-45.5,104-103.1Z"/>
        <path d="M295.1,420.7c-39-.1-70.7-31.8-70.6-70.8,0-38.8,31.9-70.8,70.8-70.9,39,0,71.1,32.2,70.9,71.3-.2,39-32,70.5-71.1,70.4ZM295.7,316.3c-18.7-.2-33.9,14.7-34.1,33.4-.2,18.4,15.1,33.9,33.6,34,18.4.1,33.8-15.3,33.8-33.8,0-18.4-14.9-33.4-33.3-33.6Z"/>
      </g>
    </g>
  </g>
</svg>