<?xml version="1.0" encoding="UTF-8"?>
<svg xmlns="http://www.w3.org/2000/svg" version="1.1" viewBox="0 0 590.6 590.6">
  <!-- Generator: Adobe Illustrator 28.7.1, SVG Export Plug-In . SVG Version: 1.2.0 Build 142)  -->
  <g>
    <g id="Layer_1">
      <g>
        <path d="M297.5,122.4c75.6,0,151.1,0,226.7,0,26.1,0,41.9,15.7,41.9,41.7,0,93.8,0,187.5,0,281.3,0,26-15.8,41.8-41.9,41.8-151.3,0-302.6,0-453.9,0-25.7,0-41.6-15.9-41.6-41.4,0-94,0-187.9,0-281.9,0-25.6,15.9-41.5,41.5-41.5,75.8,0,151.5,0,227.3,0ZM230.4,391.2c47,0,94,0,140.9,0,14.7,0,22-7.4,22.1-22.2,0-62,0-124,0-185.9,0-14.7-7.4-22.2-22.1-22.2-94,0-187.9,0-281.9,0-15.1,0-22.3,7.3-22.3,22.5,0,61.8,0,123.6,0,185.3,0,15.1,7.3,22.5,22.3,22.5,47,0,94,0,140.9,0ZM527.7,401.2c.2-26.5-21.3-48.3-47.7-48.3-26.2,0-47.9,21.2-48.2,47.3-.3,26.5,21.1,48.4,47.4,48.7,26.5.2,48.3-21.2,48.5-47.6ZM451.2,199.2c10.4-.1,19-8.9,18.9-19.3,0-10.4-8.7-19-19.1-19.1-10.7,0-19.4,8.9-19.2,19.6.2,10.4,9,18.9,19.4,18.8ZM508.7,199.2c10.4-.1,19-8.8,19-19.2,0-10.4-8.7-19.1-19.1-19.1-10.7,0-19.5,8.8-19.3,19.5.2,10.4,9,18.9,19.4,18.8ZM470.1,237.3c-.2-10.4-8.9-19-19.3-18.9-10.4,0-19,8.7-19,19.2,0,10.6,9,19.4,19.6,19.2,10.4-.2,18.9-9.1,18.7-19.5ZM508.7,256.8c10.4,0,19-8.8,19-19.2,0-10.4-8.6-19.1-19-19.2-10.7,0-19.5,8.8-19.3,19.5.2,10.4,8.9,19,19.3,18.9ZM450.9,276c-10.4,0-19.1,8.7-19.1,19.1,0,10.4,8.5,19.1,18.9,19.3,10.6.1,19.5-8.7,19.4-19.4-.1-10.4-8.8-19-19.2-19ZM527.7,295c0-10.4-8.8-19-19.2-19-10.4,0-19.1,8.6-19.1,19.1,0,10.7,8.8,19.5,19.5,19.3,10.4-.2,18.9-8.9,18.8-19.4ZM134.2,448.8c6.2,0,12.4.1,18.6,0,6.1-.2,10.2-4.1,10.1-9.6,0-5.5-4-9.5-10.2-9.5-12.4-.2-24.8-.2-37.2,0-6.1,0-10.1,4.1-10.1,9.5,0,5.4,4,9.4,10.2,9.5,6.2.2,12.4,0,18.6,0ZM230.2,448.8c6.2,0,12.4.1,18.6,0,6.1-.2,10.2-4.1,10.2-9.6,0-5.5-4-9.5-10.2-9.5-12.4-.2-24.8-.2-37.2,0-6.1,0-10.1,4.1-10.1,9.5,0,5.4,4,9.4,10.1,9.6,6.2.2,12.4,0,18.6,0ZM326.2,429.6c-6.2,0-12.4-.1-18.6,0-6.2.2-10.2,4-10.2,9.5,0,5.4,4,9.5,10.1,9.6,12.4.2,24.8.2,37.2,0,6.1,0,10.2-4.1,10.2-9.5,0-5.4-4-9.4-10.1-9.6-6.2-.2-12.4,0-18.6,0Z"/>
        <path d="M373.9,180.4v191.2H86.7v-191.2h287.1ZM239.8,294.8c26.5-8.8,41.1-28.9,38.2-52.8-2.9-23.4-21.7-41.4-44.7-42.7-23.2-1.3-44.1,13.9-49.6,36.1-3.3,13.3-1.3,25.8,6,37.4,7.3,11.6,18,18.4,31.2,22.1-16.5.3-33.2-1.8-46.4,11.3-13.4,13.3-11.8,29.8-11.1,46.3h133.4c5.1-35.8-10.2-63.8-57-57.7Z"/>
        <path d="M480,429.6c-16,.1-29-12.9-29-28.8,0-15.7,12.8-28.6,28.5-28.7,16-.1,29,12.9,29,28.8,0,15.7-12.8,28.6-28.5,28.7Z"/>
      </g>
    </g>
  </g>
</svg>