<?xml version="1.0" encoding="UTF-8"?>
<svg id="Layer_1" xmlns="http://www.w3.org/2000/svg" version="1.1" viewBox="0 0 60 60">
  <!-- Generator: Adobe Illustrator 29.1.0, SVG Export Plug-In . SVG Version: 2.1.0 Build 142)  -->
  <defs>
    <style>
      .st0 {
        fill: #606060;
      }
    </style>
  </defs>
  <g id="Layer_11" data-name="Layer_1">
    <g>
      <path class="st0" d="M5.7,1.2h37.8v7.9c0,1.1-.9,2-2,2H7.6c-1.1,0-2-.9-2-2V1.2h0Z"/>
      <path class="st0" d="M21.6,13.1h6v4h-6v-4Z"/>
      <path class="st0" d="M30.5,15.1h-11.9c-.5,0-1,.4-1,1v21.9c0,3.8,3.1,7,7,7s7-3.1,7-7v-21.9c0-.5-.4-1-1-1h-.1ZM24.5,41.9c-2.2,0-4-1.8-4-4s1.8-4,4-4,4,1.8,4,4-1.8,4-4,4Z"/>
      <path class="st0" d="M26.5,37.9c0,1.1-.9,2-2,2s-2-.9-2-2,.9-2,2-2,2,.9,2,2Z"/>
      <path class="st0" d="M39.5,25.7l-9.3,28.3-15.1-5c-2.5-.8-4.6-2.6-5.8-5s-1.4-5.1-.6-7.6l3.1-9.4c.7-2,2-3.8,3.7-5v15.9c0,4.9,4,8.9,8.9,8.9s8.9-4,8.9-8.9v-14.3l6.1,2h.1Z"/>
      <path class="st0" d="M55.6,34.1l-7.5,22.7c-.5,1.6-2.2,2.4-3.8,1.9l-12.3-4,9.3-28.3,12.3,4c.8.2,1.4.8,1.7,1.5.4.7.4,1.5.2,2.3h0Z"/>
      <path class="st0" d="M59.3,38.3c0,.4,0,.8-.2,1.2l-5,15.1c-.6,1.7-2.2,2.8-3.9,2.7l7.3-22.1v-.3c1.1.7,1.8,2,1.8,3.3h0Z"/>
      <path class="st0" d="M4.7,23c0,3,2.4,4.9,4.5,5.9l-1.3,3.8c-3.1-1.4-7.2-4.3-7.2-9.7s3.5-6.5,6.1-7.7c1.2-.5,2.4-1.2,3.3-2.2h4.3c-.8,3.3-3.7,4.7-5.8,5.8-2.5,1.3-3.9,2-3.9,4.2h0Z"/>
    </g>
  </g>
</svg>