<?xml version="1.0" encoding="UTF-8"?>
<svg xmlns="http://www.w3.org/2000/svg" version="1.1" viewBox="0 0 590.6 590.6">
  <!-- Generator: Adobe Illustrator 28.7.1, SVG Export Plug-In . SVG Version: 1.2.0 Build 142)  -->
  <g>
    <g id="Layer_1">
      <g>
        <path d="M36.4,396.2V79.8c5.2-18.9,18.8-25.9,37.7-25.9,151.3.4,302.6.2,453.9.2,21.9,0,34.3,12.4,34.3,34.4,0,99.8,0,199.6,0,299.3,0,21.3-12.6,33.9-33.7,33.9-47.4,0-94.8,0-142.2,0-105.4,0-210.9,0-316.3,0-8.2,0-15.5-1.8-22.1-6.8-6.3-4.9-9.3-11.6-11.6-18.9Z"/>
        <path d="M218.2,497.8v-44.9h162.1v44.9c2.2,0,4,0,5.8,0,25.5,0,51,0,76.5,0,11.8,0,19.4,10.5,15.3,20.9-2.3,6-6.9,9.1-13.2,9.9-1.5.2-3.1,0-4.6,0-107.1,0-214.3,0-321.4,0-2.2,0-4.5.1-6.6-.3-7.8-1.6-13.1-8.8-12.4-16.5.8-8,7.3-13.9,15.7-14,25.5,0,51,0,76.5,0,1.9,0,3.7,0,6.3,0Z"/>
      </g>
    </g>
  </g>
</svg>