<?xml version="1.0" encoding="UTF-8"?>
<svg id="Layer_1" xmlns="http://www.w3.org/2000/svg" version="1.1" viewBox="0 0 60 60">
  <!-- Generator: Adobe Illustrator 29.1.0, SVG Export Plug-In . SVG Version: 2.1.0 Build 142)  -->
  <defs>
    <style>
      .st0 {
        fill: #606060;
      }
    </style>
  </defs>
  <g id="Layer_11" data-name="Layer_1">
    <g>
      <path class="st0" d="M58.4,10.2c-1.4,1.5-2.7,2.9-4.1,4.4-5.2,5.4-10.5,10.9-15.8,16.3-.3.3-.4.5-.3,1,0,.5.2,1.1.2,1.6v11c0,.6-.5.9-1.1.9s-1-.4-1-1v-11.1c0-1.7-.9-2.9-2.4-3.2-1.5-.3-3.1.8-3.4,2.4v20.6h6.9c.8,0,1.2.5,1.2,1.1s-.5,1.1-1.2,1.1H3.4c-.7,0-1.2-.2-1.5-.8V14.9h0c.3-2.7,2.7-5.3,6.3-5.3h15.8c.5,0,1.1,0,1.6.2,2.9.7,4.7,3.1,4.7,6.2v11.4h.2c.1-.2.2-.4.4-.5,7.1-7.3,14.1-14.6,21.2-21.9.7-.8,1.3-.8,2,0,1.2,1.2,2.4,2.4,3.7,3.5.2.2.4.5.7.8v.9ZM23.6,35.3v-18.9h-15.3v18.9h15.3ZM3.9,53.1h24.2v-15.6H3.9v15.6ZM28,35.3v-19.3c0-2.5-1.6-4.1-4.2-4.1H8c-2.6,0-4.2,1.6-4.2,4.2v19.1h2.2V15.4c0-.9.4-1.4,1.2-1.4h17.3c.8,0,1.2.4,1.2,1.1v20h2.2v.2ZM44,17.1c-1,.9-2.2,2-3.4,3.1-.3.2-.5.6-.5,1-.4,1.8-.8,3.6-1.2,5.5v.5c1.3-1.2,2.5-2.4,3.7-3.7,0,0,0-.2.2-.3.5-2.1.9-4.2,1.3-6h0ZM55.5,10c-.8-.9-1.6-1.8-2.5-2.8-.2.5-.5.9-.6,1.3-.2.8-.4,1.5-.5,2.3-.3,1.2-.5,2.5-.8,3.7h0c1.5-1.5,3-3.1,4.4-4.5ZM49.5,11.1c-1.6,1.3-2.9,2.7-3,4.9v.4c-.3,1.2-.5,2.5-.8,3.7.5-.5,1.1-1,1.6-1.5.6-.5,1-1.2,1.1-2,.3-1.8.8-3.6,1.2-5.5h0ZM36.2,28.7c.4-1.6.7-3.3,1.1-4.9-.7.6-1.3,1.3-2,1.8-.7.6-.7,1.5-.9,2.3.6.3,1.2.5,1.8.8Z"/>
      <path class="st0" d="M32.1,35.1v-.9c0-.6.5-1.1,1.1-1.1s1.1.4,1.1,1v2c0,.6-.5,1-1.1,1s-1-.4-1.1-1v-1h0Z"/>
      <path class="st0" d="M38.4,49.4c0,.6-.5,1.1-1.1,1.1s-1.1-.6-1-1.2c0-.6.6-1.1,1.2-1,.6,0,1.1.5,1,1.2h-.1Z"/>
      <path class="st0" d="M16,41.4h7.9c1,0,1.4.4,1.4,1.4v5.2c0,1-.4,1.4-1.4,1.4h-15.9c-1,0-1.4-.4-1.4-1.4v-5.2c0-1,.4-1.4,1.4-1.4h8ZM23.1,47.1v-3.5h-14.2v3.5h14.2Z"/>
    </g>
  </g>
</svg>