<?xml version="1.0" encoding="UTF-8"?>
<svg xmlns="http://www.w3.org/2000/svg" version="1.1" viewBox="0 0 590.6 590.6">
  <!-- Generator: Adobe Illustrator 28.7.1, SVG Export Plug-In . SVG Version: 1.2.0 Build 142)  -->
  <g>
    <g id="Layer_1">
      <g>
        <path d="M521.5,487c0,5.6.1,10.3,0,15-.3,7.4-4.2,11.6-11.5,11.7-11.5.2-23.1.2-34.6,0-7-.2-10.9-4.4-11.2-11.4-.2-4.7,0-9.4,0-14.7H121c0,4.8.1,9.4,0,14.1-.2,7.7-4.3,11.8-11.9,12-11.1.2-22.2.2-33.4,0-7.7-.1-11.8-4.2-12-11.8-.2-4.7,0-9.4,0-15-5.9,0-11.2,0-16.5,0-13.2-.3-20.3-7.6-20.3-21.1,0-35.6,0-71.3,0-106.9,0-14.5,7.1-21.6,21.6-21.6,77.9,0,155.7,0,233.6,0,84,0,168.1,0,252.1,0,17.8,0,24.1,6.3,24.1,24.2,0,34.6,0,69.2,0,103.8,0,14.6-7,21.6-21.5,21.8-4.7,0-9.4,0-15.3,0ZM474.7,436.9c13.6,0,24.8-11,24.9-24.6.2-13.5-11-24.8-24.6-25-14-.1-25.4,11.1-25.3,24.9,0,13.5,11.3,24.7,24.9,24.7ZM390.4,387.3c-13.7,0-24.8,11.2-24.8,24.8,0,13.8,11.5,25,25.4,24.8,13.6-.2,24.5-11.4,24.4-25.1-.2-13.7-11.2-24.5-25-24.5ZM88.2,421h19.8v-17.8h-19.8v17.8ZM224.9,403.1v17.7h19.7v-17.7h-19.7ZM153.6,403.4h-19.7v17.6h19.7v-17.6ZM179.3,403.2v17.6h19.9v-17.6h-19.9Z"/>
        <path d="M147.9,318.3h-66.2c0-6.4,0-12.5,0-18.7,0-11.7,0-23.5,0-35.2,0-5.9,1.7-10.7,6.8-14.3,1.6-1.1,2.3-4.5,2.4-6.8.1-53.3,0-106.6.1-159.9,0-3.3,0-6.7.8-9.8,3-11.4,13-18.3,25-17.6,11.1.7,20.1,9.1,21.8,20.8.4,2.6.3,5.3.3,8,0,52.5,0,104.9,0,157.4,0,3.9-.1,7.3,4.2,9.9,2.4,1.4,4.4,5.4,4.5,8.2.4,19.1.2,38.2.2,57.9Z"/>
        <path d="M224.1,141.9c-5.5-5.7-11-11.4-16.6-17.2,75.7-79.9,216.6-86.5,301.5.1-5.7,5.5-11.4,11-17.1,16.6-72.8-74.1-196.8-71.1-267.8.5Z"/>
        <path d="M270.3,188.5c-6-5.9-11.5-11.4-17.1-16.9,53.2-57.2,153.3-59.6,209.6,0-5.6,5.4-11.2,10.7-17.3,16.6-24-22.9-53.1-35.5-87.2-35.6-34.1,0-63.3,12.3-88.1,35.9Z"/>
        <path d="M416.5,217.9c-5.9,5.6-11.6,11-17.6,16.7-11.2-10.3-24.9-16.5-41.1-16.4-15.9,0-29.6,6-40.5,16.2-5.9-5.8-11.6-11.4-17.2-17,27.1-31.8,86.2-31.9,116.4.5Z"/>
        <path d="M357.9,303.7c-15,0-27.1-12.2-27-27.1.1-15,12.3-26.7,27.5-26.6,14.8.2,26.6,12,26.7,26.8,0,14.9-12.1,27-27.2,26.9Z"/>
      </g>
    </g>
  </g>
</svg>