<?xml version="1.0" encoding="UTF-8"?>
<svg xmlns="http://www.w3.org/2000/svg" version="1.1" viewBox="0 0 50 50">
  <!-- Generator: Adobe Illustrator 28.7.1, SVG Export Plug-In . SVG Version: 1.2.0 Build 142)  -->
  <g>
    <g id="Icons">
      <path d="M111.8,25.9h-3.3c-.7,0-1-1.9-1.3-3.2-.3-1.8-.6-3.5-2.1-3.5s-1.8,2.1-2.4,6c0,.2,0,.4-.1.7h-2.9c-.6-2.3-1.3-4.2-2.9-4.2s-2.1,1.8-2.5,4.2h-2.7c-.4-3.6-.9-6.7-3.1-6.7s-2.4,2.7-2.7,6.7h-3.2c-.6-9.4-1.1-13.3-3.3-13.3s-2.4,3.5-3.3,10.3c-.1.9-.3,2-.4,3h-2.7c-.5-2.8-1-5-2.7-5s-2.1,1.1-2.8,3.3c-.3,1-1.2,1.7-2.2,1.7h-1.7c-.5,0-.8.4-.8.8s.4.8.8.8h8c.5,3.2,1,5.8,2.9,5.8s2.1-2,2.7-5.8h4c.6,9.4,1.1,13.3,3.3,13.3s2.7-4.8,2.9-10.8c0-.7,0-1.6.1-2.5h2.7c0,.1,0,.3,0,.4.4,4.1.6,7.1,2.5,7.1s2.4-3,2.9-6.5c0-.3,0-.6.1-1h2.7c0,.4.1.7.2.9.6,3,1,4.9,2.4,4.9s2.4-2.5,3-5.8h7.8c.5,0,.8-.4.8-.8s-.4-.8-.8-.8h0Z"/>
      <g id="_x30_3_Security_Camera">
        <g>
          <path d="M-17,23.9l-24.4-14c.2-.6.3-1.2.3-1.8,0-3.5-2.9-6.4-6.4-6.4s-6.4,2.9-6.4,6.4.2,1.6.4,2.3c-1.1,1.9-4.8,8.2-6,10.2-.2.3,0,.6.2.8l10,5.8v7.9c-1.6.6-2.9,1.9-3.6,3.5h-5.1v-4.1c0-1.3-1.1-2.4-2.4-2.4h-4.2v-4.2c0-.3-.3-.6-.6-.6s-.6.2-.6.6v19.5c0,1.3,1,2.3,2.3,2.3h4.9c.3,0,.6-.2.6-.6v-5.9h5.1c.9,2.3,3.2,4,5.8,4s6.2-2.8,6.2-6.2-1.7-4.9-4-5.8v-5.3l13.3,7.7c1.3.8,3,.3,3.8-1l.5-.9c4.3,1.5,7.3-4.1,4-6.9l1.2-2.1,2.4,1.4c.3.1.6,0,.8-.2l1.9-3c.2-.3,0-.6-.2-.8h0ZM-59,48.5h-4.3c-.6,0-1.2-.5-1.2-1.1v-14.1h4.2c.7,0,1.3.6,1.3,1.3v14ZM-53.1,42h-4.8v-2.3h4.8c-.1.8-.1,1.5,0,2.3ZM-50.8,6.1c1.8-1.8,4.8-1.8,6.6,0,.5.5-.3,1.3-.8.8-1.4-1.4-3.7-1.4-5.1,0-.5.5-1.3-.3-.8-.8ZM-48.8,8.5c-.5.5-1.3-.3-.8-.8,1.2-1.2,3.1-1.2,4.2,0,.5.5-.3,1.3-.8.8-.7-.7-1.9-.7-2.7,0ZM-46.3,10.3c0,.3-.1.6-.3.8-.5.5-1.2.4-1.6,0s-.5-1.2,0-1.6,1.2-.5,1.6,0c.2.2.3.5.3.8ZM-52.8,11.6c1.1,1.7,3.1,2.9,5.3,2.9s2.3-.3,3.2-.9c.2.1,16.5,9.5,16.5,9.5l-7.5,1.9-19.1-11c0,0,1.3-2.3,1.4-2.4h0ZM-41.8,40.8c0,2.8-2.3,5.1-5.1,5.1s-5.1-2.3-5.1-5.1,2.3-5.1,5.1-5.1,5.1,2.3,5.1,5.1ZM-48.1,34.7v-7c0,0,2.1,1.2,2.3,1.3v5.6c-.8-.1-1.5-.1-2.3,0h0ZM-28.5,35.8c-.5.8-1.5,1.1-2.3.6-1.4-.8-26.5-15.4-27.3-15.8l3.3-5.6,19.3,11.2c.1,0,.3,0,.4,0l8.8-2.3c0,0,3.3,1.9,3.5,2,0,0-4.4,7.7-5.7,9.9ZM-19.3,26.7c-7.5-4.3-14.5-8.3-23.9-13.8.6-.5,1.1-1.2,1.5-1.9l23.7,13.7-1.3,2.1Z"/>
          <path d="M-44.1,40.8c0,1.6-1.3,2.9-2.9,2.9s-2.9-1.3-2.9-2.9,1.3-2.9,2.9-2.9,2.9,1.3,2.9,2.9h0Z"/>
          <path d="M-53.7,17.5c-.3-.2-.6,0-.8.2l-1.2,2c-.2.3,0,.6.2.8.3.2.6,0,.8-.2l1.2-2c.2-.3,0-.6-.2-.8Z"/>
          <path d="M-51.6,18.6c-.3-.2-.6,0-.8.2l-1.2,2c-.2.3,0,.6.2.8.3.2.6,0,.8-.2l1.2-2c.2-.3,0-.6-.2-.8h0Z"/>
          <path d="M-49.6,19.8c-.3-.2-.6,0-.8.2l-1.2,2c-.2.3,0,.6.2.8.3.2.6,0,.8-.2l1.2-2c.2-.3,0-.6-.2-.8Z"/>
          <path d="M-47.4,21.7c.2-.3,0-.6-.2-.8-.3-.2-.6,0-.8.2l-1.2,2c-.2.3,0,.6.2.8.3.2.6,0,.8-.2l1.2-2Z"/>
          <path d="M-47.3,25.1c.3.2.6,0,.8-.2l1.2-2c.2-.3,0-.6-.2-.8-.3-.2-.6,0-.8.2l-1.2,2c-.2.3,0,.6.2.8Z"/>
          <path d="M-60.2,43.1v-1c0-.7-1.1-.7-1.1,0v1c0,.7,1.1.7,1.1,0Z"/>
          <path d="M-60.2,40v-4.8c0-.7-1.1-.7-1.1,0v4.8c0,.7,1.1.7,1.1,0Z"/>
        </g>
      </g>
      <g>
        <path d="M.8,16.8c0,.4.2.7.6.8l22,7.7c.2,0,.4,0,.6,0l21.1-8.5c.2,0,.4-.2.5-.5,0-.2,0-.4,0-.6l-5.8-14.3c-.2-.4-.7-.6-1.1-.5L1.3,16c-.3.1-.5.5-.5.8h0Z"/>
        <path d="M5.2,25.5c-.2-.4-.7-.6-1.1-.5l-1.6.6c-.4.2-.6.7-.5,1.1l3.2,7.9c.2.4.7.6,1.1.5l1.6-.6c.4-.2.6-.7.5-1.1l-3.2-7.9Z"/>
        <path d="M44.9,33.6v13.8c0,1,.8,1.7,1.7,1.7h2.6v-17.3h-2.6c-1,0-1.7.8-1.7,1.7Z"/>
        <path d="M7.1,25.7l1.6-.6,2.6,6.3-1.6.6-2.6-6.3Z"/>
        <path d="M24.9,32.3c1.4,2.2,4.4,2.8,6.6,1.4,1.3-.9,2.1-2.4,2.1-4,0-.3,0-.6,0-.9l-8.7,3.5Z"/>
        <path d="M29.7,36.1l1.7,3.6c.7,1.5,2.2,2.5,3.9,2.5h7.9v-3.5h-7.9c-.3,0-.6-.2-.8-.5l-1.6-3.5c-.9.7-2,1.2-3.2,1.3Z"/>
        <path d="M24.7,26.9c-.6.2-1.2.2-1.8,0l-13.4-4.7,4.4,10.9c.4.9,1.3,1.3,2.2.9,0,0,0,0,0,0l28.6-11.6c.9-.4,1.3-1.3.9-2.2l-.6-1.6-20.3,8.2Z"/>
      </g>
    </g>
  </g>
</svg>