<?xml version="1.0" encoding="UTF-8"?>
<svg xmlns="http://www.w3.org/2000/svg" version="1.1" viewBox="0 0 590.6 590.6">
  <defs>
    <style>
      .cls-1 {
        fill: #050506;
      }

      .cls-2 {
        fill: #030404;
      }

      .cls-3 {
        fill: #020202;
      }
    </style>
  </defs>
  <!-- Generator: Adobe Illustrator 28.7.1, SVG Export Plug-In . SVG Version: 1.2.0 Build 142)  -->
  <g>
    <g id="Layer_1">
      <g>
        <path class="cls-3" d="M23.6,123.5c2.4-3.9,5.7-5.4,10.4-5.4,38.7.2,77.3,0,116,0,7.7,0,10.2,2.5,10.2,10.4,0,10.8,0,21.6,0,32.9,9.6-4,19.2-4.9,27.4.9,5.5,3.9,8.7,3.8,14.3,0,10-6.8,22.8-5.2,32.6,2.8,2.2,1.8,3.2,1.8,5.4,0,11.5-9.3,25.7-9.2,37.4.3,2,1.6,2.8,1.4,4.6,0,12.4-9.6,25.3-9.6,37.9,0,1.9,1.5,2.7,1.5,4.6,0,9.5-7.8,20.2-9.5,31.3-4.2,11.1,5.3,16.6,14.5,16.6,26.9,0,5.1.3,10.1,0,15.2-.2,3.8.7,5.1,4.8,5,9.4-.3,18.9-.2,28.3,0,6.6,0,9.4,2.6,9.5,9.1.1,10.5.2,21,0,31.4,0,6.2-3,8.9-9.1,8.9-9.6,0-19.2.2-28.9,0-3.7-.1-4.6,1-4.6,4.6.2,27.8,0,55.6.2,83.3,0,5.8-1.9,9.4-7.7,10.6-6.8-2-8.1-3.8-8.1-11.3,0-51,0-102.1,0-153.1,0-1.9,0-3.9-.1-5.8-.8-8-8.3-13.3-16.2-11.4-7,1.7-10.2,6.5-10.2,15.5,0,94.7,0,189.4,0,284.1,0,9.6.2,19.2-.1,28.8-.2,4.3,1.4,5.4,5.4,5.1,5.1-.3,10.2-.4,15.2,0,4.8.4,6.1-1.1,6.1-6-.2-38.3-.1-76.5-.1-114.8,0-6.9,1.9-9.3,8.3-10.5,5.5.8,7.6,4.1,7.5,9.5-.1,11,.1,22-.1,33,0,3.8.7,5.1,4.8,5,9.4-.3,18.9-.2,28.3,0,6.5,0,9.4,2.7,9.5,9.1.1,10.5.2,21,0,31.4,0,6.2-3,8.9-9.1,8.9-9.8,0-19.6.2-29.4,0-3.3,0-4.2.9-4.1,4.1.2,8.7.2,17.5,0,26.2,0,2.7.4,4.1,3.6,4,27.1-.1,54.2,0,81.3,0,2.5,0,3.6-.7,3.3-3.2-.1-1.2,0-2.4,0-3.7,0-100.3,0-200.6,0-300.9,0-7.5,1.6-9.6,8.2-11.1,6.4,2,7.5,3.6,7.5,11.2,0,100.3,0,200.6,0,301,0,1.2,0,2.5,0,3.7-.2,2.3.8,3,3,3,16.8-.1,33.6-.2,50.4-.3,3.3,0,6.7-.1,9.9.3,4.8.6,6-1.1,6-5.9-.1-117.9,0-235.8-.2-353.7,0-4.8,2.2-11.6-1-13.9-3.3-2.4-9.7-.6-14.7-.6-16.7,0-33.5,0-50.2-.2-2.5,0-3.3.7-3.2,3.3.1,7.1-.1,14.3.1,21.4.2,5.6-2.1,9-7.6,10.1-6.5-1.7-8.2-3.7-8.2-10.1,0-10.1,0-20.2,0-30.4,0-7.4,2.7-10.1,10.1-10.1,26.7,0,53.4,0,80.2,0,4.7,0,8,1.5,10.4,5.4v429c-2.5,4.2-6.2,5.3-11,5.3-171.9-.1-343.8,0-515.7,0-4.8,0-8.5-1.2-11-5.3v-261.2c2-3.1,4.4-5.5,8.4-5.5,6,1.2,7.5,5.2,7.5,10.8,0,68.3,0,136.5,0,204.8,0,1.2.1,2.5,0,3.7-.3,2.6.8,3.2,3.3,3.2,28.7-.2,57.3-.2,86-.3,3.1,0,6.3-.1,9.4.3,5.2.7,6.6-1,6.6-6.4-.2-117.6-.1-235.2-.2-352.7,0-4.9,1.7-11.6-.8-14.1-3.2-3.1-9.9-.9-15.1-.9-27.8,0-55.6,0-83.4-.3-4.5,0-6.1.8-6,5.8.2,38.2,0,76.5.2,114.7,0,5.7-1.8,9.4-7.5,10.9-3.7-.3-6.3-2.5-8.4-5.3V123.5ZM529.8,524.1c-2.4,0-4.9-.2-7.3-.2-157.1,0-314.2,0-471.3,0s-11.4,0-11.9,11.6c-.2,5.4,1.4,6.5,6.6,6.5,159.4-.1,318.8-.1,478.1-.1,1.9,0,3.8,0,5.8-.2,4.2,0,8.3,0,12.5.2,2.4,0,3.2-.8,3.4-3.3,1-14.9,1.1-14.9-13.7-14.7-.7,0-1.4,0-2.1.1ZM160.2,345.8c0,31.3,0,62.6,0,93.8,0,21.3,0,42.6,0,64,0,3.7,1,4.9,4.7,4.7,5.2-.3,10.5-.5,15.7,0,5.4.5,6.7-1.3,6.7-6.6-.2-103.3-.1-206.5-.1-309.8,0-2.1-.1-4.2-.5-6.2-1.2-7-7-11.8-13.5-11.5-6.8.3-12.3,5.8-12.9,12.9-.1,1.7,0,3.5,0,5.2,0,51.2,0,102.4,0,153.6ZM314.4,346.4c0-51.5,0-103.1,0-154.6,0-1.7.1-3.5,0-5.2-1-9.1-10.3-14.9-18.4-11.3-7,3-8.5,9.1-8.5,16,0,103.6,0,207.2,0,310.8,0,.3,0,.7,0,1-.5,3.8.9,5.4,4.9,5.2,5.1-.3,10.1,0,15.2,0q6.9,0,6.9-6.6c0-51.7,0-103.4,0-155.2ZM202.9,345.3c0,5.8,0,11.5,0,17.3,0,46.5,0,93-.1,139.5,0,5.2,1.5,6.7,6.5,6.2,4.5-.4,9.1-.5,13.6,0,5.3.6,6.6-1.2,6.6-6.5-.2-103.5-.1-206.9-.1-310.4,0-1.7,0-3.5-.1-5.2-1.1-8.9-9.9-14.2-18.2-11-5.5,2.1-8.1,6.7-8.1,14.4,0,51.9,0,103.8,0,155.7ZM271.7,345.3c0-51,0-102.1,0-153.1,0-1.9,0-3.9,0-5.8-.5-6.6-5-11.2-11.7-12.1-5.9-.8-11.7,3-13.9,8.9-1,2.6-.8,5.2-.8,7.8,0,103.6,0,207.3,0,310.9,0,.9,0,1.8,0,2.6-.4,3.1,1,3.9,3.9,3.8,5.4-.2,10.9-.4,16.3,0,5,.4,6.5-1.1,6.5-6.2-.2-52.3-.1-104.5-.1-156.8ZM385.4,242.3c14.2-.2,14.1-.2,13.9-14.3,0-3.4-1.2-4.1-4.3-4-5.9.2-11.9.3-17.8,0-3.9-.2-5.5.8-4.9,4.8.6,4.3-1.8,10,1,12.5,2.4,2.2,7.9.8,12.1,1ZM384.8,440.1c-3.2.4-8.8-1.9-11.5.8-2.7,2.7-.4,8.3-.9,12.6-.4,3.5.6,5,4.5,4.7,5.9-.3,11.9-.3,17.8,0,3.6.2,4.7-.9,4.7-4.6,0-13.5,0-13.5-14.5-13.5Z"/>
        <path class="cls-2" d="M422.7,20.7c7.3,7.6,5.8,13.1-4.3,16.4-21.8,7.1-36.1,21.7-42.8,43.6-1.3,4.2-3.3,7.4-8,7.6-5.8.3-9.2-5-7.3-11.5,7.9-26.5,25-44.5,51-54.1,1.7-.6,3.8-.5,5.2-2.1h6.3Z"/>
        <path class="cls-1" d="M440.6,61.3c-.2,3.3-2.3,6-6.5,6.8-15.6,2.8-24.6,11.9-27.3,27.6-.8,4.5-4.6,6.7-9,6-4.1-.7-6.8-4.3-6.5-8.7,1.5-19.7,20.5-38.6,40.2-40.2,5.3-.4,9.1,2.8,9.1,8.6Z"/>
        <path class="cls-1" d="M437,109.9c-6.5,0-11.4-5.2-11.4-11.8,0-6.4,5.3-11.5,11.8-11.4,6.4.1,11.6,5.5,11.5,11.8-.1,6.4-5.4,11.5-11.9,11.4Z"/>
        <path class="cls-2" d="M126.4,197c0,11.7,0,23.4,0,35.1,0,7-2.9,9.9-9.9,9.9-16.4,0-32.9,0-49.3,0-6.7,0-9.7-2.8-9.7-9.5,0-23.6,0-47.2,0-70.8,0-6.7,2.9-9.6,9.6-9.7,16.4,0,32.9,0,49.3,0,7,0,9.9,2.9,10,9.8,0,11.7,0,23.4,0,35.1ZM110.7,197.1c0-8.4,0-16.8,0-25.1,0-3-.6-4.4-4-4.3-9.8.2-19.6.2-29.4,0-3.7,0-4.3,1.6-4.3,4.7.1,16.6.1,33.2,0,49.7,0,3.1.8,4.3,4.1,4.2,9.8-.2,19.6-.2,29.4,0,3.1,0,4.3-.8,4.2-4.1-.2-8.4,0-16.8,0-25.1Z"/>
        <path class="cls-1" d="M92.2,260c8,0,16.1,0,24.1,0,7.3,0,10.1,2.9,10.1,10.3,0,9.9,0,19.9,0,29.8,0,6.7-2.9,9.7-9.5,9.7-16.6,0-33.2,0-49.8,0-6.7,0-9.5-2.9-9.6-9.7,0-10.1,0-20.2,0-30.4,0-6.9,3-9.7,10.1-9.8,8.2,0,16.4,0,24.6,0ZM92.2,294.1c1.6,0,3.1,0,4.7,0,15.1,0,15,0,13.9-15.3-.2-2.6-1.2-3.2-3.5-3.2-10.1,0-20.3.1-30.4,0-3.2,0-3.8,1.3-3.7,4,.2,3.3.2,6.6,0,9.9-.3,3.4.8,4.7,4.3,4.5,4.9-.3,9.8,0,14.7,0Z"/>
        <path class="cls-1" d="M92,489.8c-5.6,0-11.2.1-16.7,0-5-.1-8.1-3.3-8.2-7.7,0-4.1,2.9-7.8,7.5-7.9,11.5-.3,23-.3,34.5,0,4.8.1,8,4,7.7,8.2-.3,4.3-3.6,7.2-8.6,7.3-5.4.1-10.8,0-16.2,0Z"/>
        <path class="cls-2" d="M91.9,456c-5.2,0-10.5,0-15.7,0-5.6,0-9.1-3.2-9.1-7.9,0-4.5,3.5-7.7,8.7-7.8,10.8-.1,21.6-.1,32.4,0,5.2,0,8.6,3.5,8.6,7.9,0,4.5-3.6,7.7-8.7,7.7-5.4,0-10.8,0-16.2,0Z"/>
      </g>
    </g>
  </g>
</svg>