<?xml version="1.0" encoding="UTF-8"?>
<svg xmlns="http://www.w3.org/2000/svg" version="1.1" viewBox="0 0 590.6 590.6">
  <defs>
    <style>
      .cls-1 {
        fill: #040505;
      }

      .cls-2 {
        fill: #010303;
      }

      .cls-3 {
        fill: #fdfdfd;
      }
    </style>
  </defs>
  <!-- Generator: Adobe Illustrator 28.7.1, SVG Export Plug-In . SVG Version: 1.2.0 Build 142)  -->
  <g>
    <g id="Layer_1">
      <g>
        <path class="cls-3" d="M528,19.6c13.4,0,26.9,0,40.3,0,2.3,0,3.2.4,2.7,2.7-.2.9,0,1.8,0,2.7,0,180.4,0,360.7.1,541.1,0,4.5-1.1,5.1-5.3,5.1-180.5-.1-361-.1-541.6,0-3.6,0-4.8-.5-4.8-4.6.1-180.9.1-361.8,0-542.7,0-3.7.8-4.5,4.4-4.4,12.5.3,25.1.1,37.6.1-17.1,7.2-21.2,13.5-21.2,32.7,0,164.3,0,328.6,0,492.8,0,2.7,0,5.4.5,8,1.5,9.6,9.2,16.7,18.8,16.7,32.1.2,64.1.2,96.2,0,8.5,0,16.1-6.1,18.2-14.2.8-3.1.8-6.4.8-9.6,0-49.8,0-99.6,0-149.4,0-4.1.9-5.5,5.2-5.3,7.9.4,15.8.3,23.6,0,31.7-1.4,57.5-14.5,77.4-39.1,5.5-6.8,9.6-14.4,13.8-22.7.9,1.5,1.4,2.4,1.8,3.3,13.8,28.1,35.8,46.3,65.8,55,15.2,4.4,30.9,3.7,46.4,3.4,4.9,0,6.1,1.3,6,6.1-.2,50.2-.1,100.3,0,150.5,0,14.1,8,22,21.9,22,30.3,0,60.5,0,90.8,0,13,0,21.6-8,21.6-20.8.1-54.6,0-109.3,0-163.9,0-5.6-2.3-9.3-8.2-10,0-7.1,0-14.1,0-21.2,6.6-1.9,8.1-3.9,8.2-10.6,0-9.7,0-19.3,0-29,0-88.5,0-176.9,0-265.4,0-7.8-1.6-14.8-6.9-20.9-3.9-4.4-9.2-6.4-14.3-8.6Z"/>
        <path class="cls-1" d="M541,375.2c5.9.8,8.2,4.4,8.2,10,0,54.6,0,109.3,0,163.9,0,12.8-8.6,20.8-21.6,20.8-30.3,0-60.5,0-90.8,0-13.9,0-21.9-7.9-21.9-22,0-50.2,0-100.3,0-150.5,0-4.8-1.1-6.2-6-6.1-15.5.3-31.2.9-46.4-3.4-30-8.7-52-26.9-65.8-55-.4-.9-1-1.8-1.8-3.3-4.2,8.3-8.3,15.9-13.8,22.7-19.9,24.6-45.8,37.7-77.4,39.1-7.9.3-15.8.4-23.6,0-4.3-.2-5.2,1.2-5.2,5.3.1,49.8.1,99.6,0,149.4,0,3.2,0,6.5-.8,9.6-2.1,8.1-9.7,14.2-18.2,14.2-32.1.2-64.1.2-96.2,0-9.6,0-17.2-7.2-18.8-16.7-.4-2.6-.5-5.3-.5-8,0-164.3,0-328.6,0-492.8,0-19.2,4.1-25.5,21.2-32.7,30.8,0,61.6,0,92.4,0,.4.3.7.8,1.1.9,12.3,3.6,19.2,12.2,19.7,24.9.2,6.1,0,12.2,0,18.3.2,14.7-.6,29.3.4,44-.1,1.9-.4,3.9-.4,5.8,0,34.4,0,68.8,0,103.1,0,51.2,0,102.4,0,153.6,0,3.8.7,5.3,4.9,5.1,8-.4,16.1,0,24.2-.2,43.2-1.2,81-36.4,82.2-79.6,1.4-52.4.7-104.9.5-157.4,0-13.5-10.4-22.8-24.1-22.9-16.6-.1-33.3-.2-50,0-5.9,0-9.6-2-11-7.8,2.1-7,4-8.4,11.5-8.4,15.4,0,30.8.2,46.2,0,13.2-.2,24.7,3.5,33.6,13.6,1.6,1.8,2.5,1.8,4.1,0,8.9-10.1,20.4-13.7,33.6-13.6,26.3.2,52.6,0,78.9.2,4.7,0,5.5-1.4,5.4-5.7-.3-15.6-.1-31.1-.1-46.7,0-12.7,6-21.3,17.7-26.1.8-.3,1.8-.2,2.1-1.3h93.5c5.2,2.2,10.5,4.1,14.3,8.6,5.3,6,6.9,13.1,6.9,20.9,0,88.5,0,176.9,0,265.4,0,9.7,0,19.3,0,29,0,6.7-1.6,8.7-8.2,10.6-6.7-2-7.9-3.6-7.9-10.7,0-13.7-.1-27.5,0-41.2,0-3.2-.8-4.4-4.2-4.3-6.8.3-13.6.2-20.3.3-24,0-48,0-72-.3-4.6,0-6,.9-5.9,5.8.2,50.1.1,100.3.1,150.4,0,8.6-1.1,7.2,7.4,7.3,14.3,0,28.6,0,43,0,3.8,0,6.6,1.5,8,5.1,1.3,3.3.5,6.4-2,8.8-2.1,2-4.7,2.3-7.5,2.3-14.9,0-29.7,0-44.6,0-2,0-4.4-.9-4.4,2.8.2,16.6.3,33.3.4,49.9,0,6.3-.2,12.5-.3,18.8,0,3.3,1.6,4.9,4.9,4.9,30.6,0,61.2,0,91.8,0,3.6,0,5.3-1.7,5.3-5.2,0-10.7,0-21.5,0-32.2,0-2.6-.9-3.4-3.5-3.4-7,.2-14,.2-20.9.2-8.4,0-16.8-.1-25.2-.2-6,0-9.4-2.9-9.5-7.8-.1-5.1,3.4-8.3,9.5-8.4,8.4-.1,16.8-.1,25.2-.2,7,0,13.9,0,20.9.3,2.9,0,3.6-1.1,3.6-3.8,0-15.9,0-31.8,0-47.7,0-2.6-.6-4-3.5-3.9-7,.2-13.9.2-20.9.3-8.4,0-16.8-.1-25.2-.3-6.3-.1-9.7-3.2-9.6-8.4.1-4.9,3.4-7.6,9.5-7.7,8.4-.2,16.8-.2,25.1-.4,6.6.1,13.2,0,19.8.4,3.9.2,4.8-1.3,4.7-4.9-.2-11.8-.1-23.6,0-35.4,0-6.6,1.5-8.4,7.9-10.1ZM508.5,64.3c6.8.1,13.6.1,20.3.3,2.8,0,3.8-1,3.8-3.8-.1-5,0-10,0-15-.1-6.1-3.9-10-10-10.1-5.3-.1-10.7,0-16.1.2-21.6,0-43.2-.2-64.9-.1-6.6,0-10.3,3.9-10.5,10.3-.1,4.8.1,9.7,0,14.5-.1,3.1,1.1,4,4.1,4,24.5-.2,49-.2,73.4-.3ZM508.8,247.3c-24.6-1.4-49.3-.3-73.9-.6-3,0-3.9,1.5-3.9,4.4.1,8.9.2,17.9,0,26.8,0,3.2,1.3,3.9,4.1,3.9,24.5-.1,49-.1,73.4-.2,6.8,0,13.6,0,20.4.2,3.3,0,4.4-1.2,4.4-4.4-.1-8.6-.2-17.2,0-25.7,0-3.7-1.4-4.6-4.7-4.5-6.6.2-13.2,0-19.8.1ZM508.7,80.9c-24.9,0-49.8-.1-74.7-.3-3.4,0-3.1,2-3.1,4.2,0,15.4,0,30.8,0,46.2,0,31.5,0,63.1,0,94.6,0,2.2-1.3,5.3,3.1,5.2,24.9-.2,49.8-.2,74.7-.3,7,0,13.9,0,20.9.3,3,.1,3.5-1.4,3.5-3.9,0-47.4,0-94.9,0-142.3,0-2.6-.5-4-3.5-3.9-7,.2-13.9.2-20.9.3ZM389.3,375.2c6.4,0,12.9-.2,19.3.3,4.8.3,6.2-1,6.2-6-.2-82.7-.1-165.4-.1-248,0-.9,0-1.8,0-2.7.3-2.6-.9-3.4-3.4-3.3-7.3.2-14.7.2-22,.3-19.9,0-39.7-.2-59.6-.2-17.5,0-26.9,9.3-26.9,26.7,0,48.3,0,96.6,0,144.9,0,6.3.4,12.5,1.5,18.7,7.1,39.7,45.3,71,84.9,69.4ZM158.7,379.5c0-25.4,0-50.9,0-76.3,0-4-.8-5.4-5.2-5.4-30.6.2-61.3.2-91.9,0-4.3,0-5.3,1.2-5.3,5.3.2,36.7,0,73.4,0,110.2q0,12.2,12.4,12.2c12.9,0,25.8,0,38.7.1,4.9,0,7.8,3.2,8,7.7.1,4.5-2.6,7.6-7.5,8.3-1.6.2-3.2.2-4.8.2-14,0-27.9.1-41.9,0-3.6,0-5,.7-4.9,4.7.2,15.4.2,30.8,0,46.2,0,3.5.9,4.6,4.4,4.5,14.9-.2,29.7-.1,44.6,0,6.4,0,10,2.8,10.1,7.8.1,5.3-3.4,8.3-10.1,8.3-14.5,0-29,.1-43.5,0-4,0-5.7.7-5.5,5.2.4,9.5,0,19,.1,28.5,0,6.3.8,7.2,7.1,7.2,29.4,0,58.7,0,88.1,0,6.3,0,6.9-.6,6.9-7.2,0-21.5,0-43,0-64.5,0-3.7-.9-4.9-4.7-4.8-14.9.2-29.7.1-44.6,0-6.1,0-9.9-3.3-9.9-8.2,0-5,3.7-7.9,10-7.9,14.7,0,29.4-.2,44.1,0,4,0,5.1-1,5.1-5-.2-25.6,0-51.2,0-76.8ZM56.5,155.2c0,23.5,0,46.9,0,70.4,0,3.9.8,5.2,5,5.2,30.8-.2,61.6-.2,92.4,0,4.2,0,4.9-1.4,4.9-5.2-.1-46.7-.1-93.5,0-140.2,0-3.6-.7-4.9-4.6-4.9-31,.2-62,.2-92.9,0-3.8,0-4.8,1.2-4.7,4.8.2,23.3,0,46.6,0,69.8ZM107.2,281.8c15.6,0,31.1,0,46.7,0,3.4,0,4.8-.7,4.7-4.4-.2-8.6-.2-17.2,0-25.8,0-3.5-1.2-4.6-4.6-4.6-31,.1-61.9.1-92.9,0-3.9,0-4.8,1.4-4.8,5,.2,8.2.3,16.5,0,24.7-.1,4.1,1.3,5.2,5.2,5.1,15.2-.2,30.4,0,45.6,0ZM107.1,64.5c15.4,0,30.8-.2,46.1.1,4.4,0,5.6-1.4,5.3-5.5-.3-4.4,0-8.9-.1-13.4-.2-5.9-3.9-9.9-9.8-9.9-27.4-.1-54.7-.1-82.1,0-5.8,0-9.5,4-9.7,9.9-.2,4.5.2,9-.1,13.4-.3,4.1,1,5.6,5.3,5.5,15-.2,30,0,45.1,0Z"/>
        <path class="cls-3" d="M175.2,107.7c-1-14.7-.2-29.3-.4-44,0-6.1.1-12.2,0-18.3-.5-12.7-7.4-21.3-19.7-24.9-.4-.1-.7-.6-1.1-.9,93.5,0,187,0,280.5,0-.3,1.1-1.3,1-2.1,1.3-11.7,4.7-17.7,13.4-17.7,26.1,0,15.6-.2,31.1.1,46.7,0,4.3-.8,5.7-5.4,5.7-26.3-.3-52.6,0-78.9-.2-13.2-.1-24.7,3.5-33.6,13.6-1.6,1.8-2.5,1.9-4.1,0-8.9-10.1-20.4-13.8-33.6-13.6-15.4.2-30.8,0-46.2,0-7.5,0-9.4,1.4-11.5,8.4-8.7,0-17.5,0-26.2,0Z"/>
        <path class="cls-2" d="M133.7,153.4c0,7.3.1,14.7,0,22-.2,9.5-6.9,16.1-16.4,16.2-6.6.1-13.3.1-19.9,0-8.7-.2-15.6-6.5-15.8-15.1-.3-15.6-.3-31.2,0-46.7.2-8.7,6.9-15.2,15.5-15.5,7-.3,14-.3,20.9,0,8.8.4,15.4,7.1,15.6,16,.2,7.7,0,15.4,0,23.1ZM97.8,152.7c0,2.7,0,5.4,0,8.1,0,15.4,0,15.3,15.7,14.9,2.9,0,4.2-.7,4.1-3.9-.1-12.5-.1-25.1,0-37.6,0-2.7-.7-3.9-3.6-3.8-4.1.2-8.2.2-12.4,0-3.2-.2-3.9,1.2-3.9,4.1.2,6.1,0,12.2,0,18.3Z"/>
        <path class="cls-2" d="M507.8,127.1c0,17.2,0,34.4,0,51.6-3.4,9.5-8.1,13-17.9,13-6.1,0-12.2.1-18.3,0-8.9-.2-15.7-6.8-15.8-15.7-.2-15.2-.2-30.4,0-45.7.1-8.9,6.7-15.7,15.5-16,7-.3,14-.4,20.9,0,8.1.4,13.1,5.1,15.4,12.7ZM491.7,153.4c0-6.4,0-12.9,0-19.3,0-2.8-.9-3.8-3.7-3.7-3.9.2-7.9.2-11.8,0-3.3-.2-4.4.9-4.3,4.2.2,8.8,0,17.6,0,26.3,0,15.1,0,15,15.2,14.8,3.4,0,4.8-.9,4.6-4.5-.3-5.9,0-11.8,0-17.7Z"/>
      </g>
    </g>
  </g>
</svg>