<?xml version="1.0" encoding="UTF-8"?>
<svg xmlns="http://www.w3.org/2000/svg" version="1.1" viewBox="0 0 590.6 590.6">
  <!-- Generator: Adobe Illustrator 28.7.1, SVG Export Plug-In . SVG Version: 1.2.0 Build 142)  -->
  <g>
    <g id="Layer_1">
      <g>
        <path d="M36.6,356.5c2.2-3.9,5.1-6.3,9.9-5,3.9,1.1,4.5,2.6,5.7,16.7,2.2,0,4.4,0,6.7,0,130.8,0,261.5,0,392.3,0,1.9,0,3.7,0,5.6,0,5.7.3,8.8,3,8.7,7.7,0,4.6-3.1,7.2-9,7.5-1.9,0-3.7,0-5.6,0-119.1,0-238.2,0-357.3,0h-7.4v14.8h419.9v-14.9c-4.9,0-10.1.2-15.2,0-3.8-.1-6.9-2.3-6.9-6.1,0-2.6,1.6-5.7,3.5-7.6,1.4-1.3,4.4-1.3,6.7-1.3,13.3-.1,26.7,0,40,0,1.8,0,3.7,0,5.9,0v-149c-2.5,0-4.9,0-7.2,0-131.1,0-262.2,0-393.3,0-2.4,0-4.7,0-7.1-.4-3.9-.6-5.9-3.2-6-7,0-4.1,2-6.8,6.1-7.4,2.3-.4,4.7-.4,7.1-.4,119.6,0,239.2,0,358.9,0,2.3,0,4.7,0,7.4,0v-14.7H86.2v14.8c4.5,0,8.8-.1,13.2,0,5.9.2,9.3,3.1,9.1,7.8-.2,4.5-3.4,7.3-9.2,7.3-13.7.1-27.4,0-41.1,0-2,0-4,0-6.6,0,0,2.4,0,4.4,0,6.4,0,32.8,0,65.6,0,98.3,0,7.1-4.3,11.2-9.8,9.2-2.1-.8-3.6-3.2-5.4-4.9,0-39.5,0-79.1,0-118.6,2.1-4.4,5.8-5.7,10.4-5.6,7.6.1,15.1,0,23.6,0,0-6.6,0-12.8,0-18.9,0-9.3,2.1-11.5,11.3-11.5,142.9,0,285.8,0,428.8,0,8.9,0,11.1,2.2,11.2,11.1,0,6.2,0,12.4,0,19.3,7.9,0,15.3,0,22.7,0,9.1,0,11.3,2.3,11.3,11.4,0,52.2,0,104.4,0,156.6,0,9.2-2.2,11.4-11.3,11.4-6.8,0-13.5,0-20.3,0-.5,0-1,.2-2.4.4,0,5.7,0,11.5,0,17.3,0,10.9-1.7,12.6-12.7,12.6-141.9,0-283.8,0-425.7,0-11.2,0-12.8-1.6-12.8-13,0-5.5,0-11.1,0-17.4-8.2,0-15.9,0-23.6,0-4.6,0-8.3-1.2-10.4-5.6v-21.3Z"/>
        <path d="M229.6,316c0,3.7.2,7.1,0,10.4-.3,4.3-2.8,7-7.1,7.1-14.2.2-28.4.2-42.5,0-4.8,0-7.2-3.3-7.4-8-.1-3.2,0-6.3,0-9.4q-13.4-2.5-13.4-16.3c0-12.2,0-24.3,0-36.5,0-6.9,2.5-9.6,9.4-9.6,21.6-.1,43.2,0,64.8,0,7.1,0,9.8,2.8,9.8,9.9,0,13.5,0,27,0,40.5,0,8.9-1.8,10.7-10.9,11.4-.7,0-1.3.2-2.8.5ZM214,318.2q1.9-15.6,14-19c0-8.6-.1-17.4,0-26.2,0-3.4-1.1-4.4-4.4-4.3-12.5.1-25,0-37.5,0-3.8,0-7.7,0-11.7,0v29.2c4.6,2.5,9.8,3.6,11.8,6.7,2.2,3.4,1.4,8.7,1.9,13.4h25.8Z"/>
        <path d="M266.6,316.4c-.6-.4-.7-.6-.9-.6q-12.6-2.2-12.6-15.5c0-12,0-24,0-36,0-8.3,2.3-10.7,10.4-10.7,21.1,0,42.2,0,63.3,0,7.8,0,10.3,2.5,10.4,10.3,0,12.2,0,24.3,0,36.5,0,13.3-.2,13.6-13.6,15.5,0,3,.1,6.1,0,9.2-.2,5.5-2.6,8.3-8,8.4-13.7.2-27.4.2-41,0-5.3,0-7.8-3-8-8.5-.1-3,0-6,0-8.7ZM321.8,269.3h-53.1v31.1c15.7-2.4,12.8,9.1,13.2,17.7h26.1q2.4-16.2,13.8-18.7v-30.2Z"/>
        <path d="M360.6,316.2q-13.6-2.6-13.6-16.5c0-11.8,0-23.6,0-35.5,0-7.8,2.6-10.5,10.2-10.5,21.3,0,42.6,0,63.8,0,7.6,0,10,2.5,10,10,0,13.3,0,26.7,0,40,0,9.6-1.4,11.1-10.9,11.7-.7,0-1.3.2-2.5.4,0,3.2.1,6.4,0,9.5-.2,5.1-2.7,8.1-7.8,8.2-13.8.2-27.7.2-41.5,0-5.1,0-7.5-2.9-7.8-8.1-.2-3,0-6.1,0-9.3ZM362.6,269.2v31.1c15.3-2.4,13.2,8.6,13.3,17.7h26.4q1.5-16.6,13.3-18.3v-30.5h-53Z"/>
        <path d="M454.5,316.1q-13.4-2.4-13.4-16c0-12.2,0-24.3,0-36.5,0-7.2,2.5-9.9,9.7-10,21.6,0,43.2,0,64.8,0,7.1,0,9.6,2.8,9.7,10,0,13.3,0,26.7,0,40,0,9.5-1.5,11.1-10.9,11.8-.7,0-1.3.2-2.5.5,0,2.9,0,5.7,0,8.5-.2,6.3-2.8,9.1-9,9.2-13.2.2-26.3.2-39.5,0-6.2,0-8.7-2.9-9-9.2-.1-2.8,0-5.7,0-8.4ZM509.9,269.3h-53.3v28.8c4.7,2.5,9.9,3.7,11.9,6.8,2.1,3.4,1.3,8.7,1.7,13.2h26.1q1.9-15.8,13.7-18.6v-30.2Z"/>
        <path d="M107.3,255.1c8.9,0,17.9,0,26.8,0,5.9,0,9.3,3,9.2,7.7,0,4.5-3.4,7.4-9,7.4-18,0-36.1,0-54.1,0-5.9,0-9.3-3-9.2-7.8,0-4.7,3.5-7.4,9.5-7.4,8.9,0,17.9,0,26.8,0Z"/>
        <path d="M107.2,290.9c-9.1,0-18.2,0-27.3,0-5.7,0-8.9-2.8-8.9-7.4,0-4.6,3.1-7.6,8.8-7.7,18.2-.1,36.4-.1,54.6,0,5.7,0,8.8,3,8.9,7.6,0,4.8-3.2,7.5-9.3,7.6-8.9,0-17.9,0-26.8,0Z"/>
        <path d="M107.6,296.5c8.9,0,17.9,0,26.8,0,5.8,0,8.8,2.8,8.9,7.4,0,4.6-3.1,7.6-8.7,7.7-18.2.1-36.4.1-54.6,0-5.7,0-8.9-3-8.9-7.6,0-4.7,3.3-7.5,9.3-7.6,9.1,0,18.2,0,27.3,0Z"/>
        <path d="M106.5,332.2c-8.6,0-17.2,0-25.8,0-6.3,0-9.8-2.8-9.8-7.7,0-4.7,3.5-7.5,9.4-7.5,17.9,0,35.7,0,53.6,0,5.9,0,9.3,2.9,9.2,7.7,0,4.7-3.4,7.4-9.4,7.5-9.1,0-18.2,0-27.3,0Z"/>
      </g>
    </g>
  </g>
</svg>