<?xml version="1.0" encoding="UTF-8"?>
<svg xmlns="http://www.w3.org/2000/svg" version="1.1" viewBox="0 0 590.6 590.6">
  <!-- Generator: Adobe Illustrator 28.7.1, SVG Export Plug-In . SVG Version: 1.2.0 Build 142)  -->
  <g>
    <g id="Layer_1">
      <g>
        <path d="M72.2,45.7h333.7c11.4,3.9,15.7,11.9,15.7,23.8-.2,137.5-.1,275-.1,412.5,0,15.6-7.4,22.9-22.9,22.9-106.2,0-212.4,0-318.6,0-16.2,0-23.4-7.2-23.4-23.4,0-137.3,0-274.7-.1-412,0-11.9,4.3-19.9,15.7-23.8ZM95.5,322.1c0,38.4,0,76.8,0,115.3,0,17.4,11.2,28.7,28.5,28.7,76.7,0,153.4,0,230.1,0,17.3,0,28.5-11.3,28.5-28.7,0-76.5,0-153,0-229.6,0-17.6-11.2-28.7-29-28.7-76.4,0-152.7,0-229.1,0-18,0-29,11.1-29,29.2,0,37.9,0,75.9,0,113.8ZM238.5,154.7c38.4,0,76.8,0,115.3,0,17.6,0,28.7-11.2,28.8-28.9,0-3.9,0-7.8,0-11.7,0-18.4-10.9-29.4-29.2-29.4-10.7,0-21.4,0-32.1,0-65.5,0-131,0-196.5,0-18.3,0-29.2,11-29.3,29.4,0,3.7,0,7.5,0,11.2,0,18.6,10.9,29.5,29.7,29.5,37.8,0,75.5,0,113.3,0Z"/>
        <path d="M554.8,286.1c-3.6,5.3-7.3,10.6-10.8,16.1-1.5,2.4-3.2,3.5-6.2,3.5-19.6-.2-39.2,0-58.8-.2-1.8,0-3.6-1.8-5.4-2.8-.1,0-.2-.3-.3-.4-9.1-10.2-12.3-22-11.2-35.7,1-12.4.2-24.9.3-37.4,0-.3.2-.6.4-1.5h91.9v58.4ZM508.5,271.5c3.9,0,7.8.1,11.6,0,4.8-.2,7.8-3.2,7.7-7.5-.1-4.1-3-7-7.7-7-7.8-.1-15.5-.1-23.3,0-4.8,0-7.8,3.2-7.7,7.5.1,4.1,3,6.9,7.7,7.1,3.9.1,7.8,0,11.6,0Z"/>
        <path d="M465.3,400.1c1-.3,1.3-.4,1.6-.4,15.1-.9,16.4.3,16.4,15.4,0,33.6,0,67.1,0,100.7,0,1.9,0,3.9.2,5.8.6,4.5,4.2,7.7,8.6,7.8,4.5,0,8.4-3.2,9-7.9.2-1.8.1-3.6.1-5.3,0-53.5,0-107,0-160.5v-6h14.2c.1.9.4,1.9.4,3,0,55.8,0,111.5,0,167.3,0,18.8-19.7,30.1-35.5,20.7-6.7-4-10.6-9.9-11.3-17.7-.3-3.5-.3-7.1-.3-10.7,0-31,0-61.9,0-92.9,0-2,1.1-4.7-2.4-5.5-.5,0-.9-1.6-.9-2.5,0-3.7,0-7.4,0-11.3Z"/>
        <path d="M95.6,519.8h121.2c-3.7,7.3-6.9,14.3-10.9,20.9-1.1,1.8-4.3,3.1-6.6,3.1-31.9.2-63.9.2-95.8.1-4.6,0-7.6-2.6-7.8-6.9-.2-5.6,0-11.3,0-17.1Z"/>
        <path d="M261.5,519.8h121c0,5.9.2,11.7,0,17.5-.2,4.3-3.4,6.6-8.6,6.6-11.7,0-23.3,0-35,0-19.3,0-38.6-.1-57.9,0-5.5,0-8.8-2-11-6.9-2.5-5.7-5.5-11.2-8.5-17.3Z"/>
        <path d="M436.4,373.9h14v72.4h-14v-72.4Z"/>
        <path d="M481.9,334.4v-13.9h53.1v13.9h-53.1Z"/>
        <path d="M491.5,212.9h-14.5c0-10.8-.2-21.4,0-32,.1-4.1,2.9-6.4,7-6.7,3.8-.2,7.3,2.7,7.4,6.8.2,10.5,0,20.9,0,31.8Z"/>
        <path d="M540.1,212.9h-14.5c0-10.8-.2-21.4,0-32,.1-4.1,2.9-6.4,7-6.7,3.8-.2,7.3,2.7,7.4,6.8.2,10.5,0,20.9,0,31.8Z"/>
        <path d="M239.1,451.5c-37.9,0-75.9,0-113.8,0-10.6,0-15.1-4.4-15.1-15,0-76,0-152.1,0-228.1,0-10.2,4.5-14.8,14.8-14.8,76,0,152.1,0,228.1,0,10.3,0,14.9,4.5,14.9,14.7,0,76.2,0,152.4,0,228.6,0,9.9-4.6,14.5-14.6,14.5-38.1,0-76.2,0-114.3,0ZM214.9,341.7c.2,1.3.3,2.1.4,2.9.7,14.4,1.4,28.8,2.1,43.2.3,7.3.7,14.6,1.1,21.8.2,3.8,1.9,6.6,5.7,7.6,3.8,1,6.5-.9,8.5-4.1.4-.7.8-1.4,1.2-2.1,19.6-33,39.1-66,58.6-99,5.1-8.7,2.3-13.7-7.7-13.7-5.9,0-11.9,0-18.3,0,.4-2,.6-3.2,1-4.5,4.9-18.3,9.9-36.5,14.8-54.8,2-7.4-1-11.2-8.7-11.2-19.1,0-38.2,0-57.4,0-6.3,0-8.2,1.6-9.7,7.8-7.6,31.8-15.1,63.6-22.7,95.4-1.7,7,1.1,10.6,8.2,10.7,7.4,0,14.9,0,22.9,0ZM136.9,208.3c-1.9,0-3.9-.3-5.8,0-3.8.6-6.1,3-6.3,6.9-.1,4.1,2.2,6.9,6.3,7.4,3.8.4,7.8.4,11.6,0,4-.5,6.4-3.2,6.3-7.3-.1-3.9-2.5-6.3-6.3-6.9-1.9-.3-3.9,0-5.8,0ZM340.9,222.8s0,0,0,0c1.6,0,3.2,0,4.9,0,4.5-.3,7.5-3.2,7.6-7.2,0-4-3-7.1-7.5-7.3-3.4-.2-6.8-.3-10.2,0-4.1.4-6.5,3-6.6,7.1,0,4.1,2.4,6.6,6.4,7.2,1.7.3,3.5,0,5.3,0ZM137.1,422.4h0c-1.6,0-3.2-.1-4.9,0-4.5.3-7.5,3.3-7.5,7.3,0,4,3,7,7.5,7.2,3.4.1,6.8.3,10.2,0,4.1-.4,6.5-3.1,6.5-7.2,0-4.1-2.5-6.6-6.5-7.2-1.7-.3-3.6,0-5.3,0ZM340.9,436.8s0,0,0,0c1.6,0,3.2,0,4.9,0,4.5-.3,7.5-3.2,7.6-7.2,0-4-3-7.1-7.5-7.3-3.4-.1-6.8-.3-10.2,0-4.1.4-6.5,3-6.5,7.1,0,4.1,2.4,6.6,6.5,7.2,1.7.3,3.6,0,5.3,0Z"/>
        <path d="M239.1,140.1c-37.9,0-75.9,0-113.8,0-10.6,0-15.1-4.4-15.1-15,0-4.4,0-8.8,0-13.1.2-7.8,5.1-12.7,12.9-12.7,12.8-.1,25.6,0,38.4,0,63.5,0,127.1,0,190.6,0,11.7,0,15.9,4.2,15.9,15.7,0,3.9,0,7.8,0,11.7-.1,8.7-4.9,13.5-13.7,13.5-32.3,0-64.5,0-96.8,0-6.2,0-12.3,0-18.5,0ZM161.4,112.5c-6.1,0-12.3,0-18.4,0-5.3,0-8.5,2.9-8.4,7.3,0,4.2,3.1,7.1,8.1,7.2,12.5.2,24.9.2,37.4,0,5,0,8-3.1,8-7.3,0-4.2-3.1-7-8.1-7.1-6.1-.1-12.3,0-18.4,0ZM239,112.5c-6,0-12,0-18,0-5.5,0-8.6,2.7-8.8,7-.1,4.3,3,7.5,8.3,7.5,12.3.2,24.6.1,36.9,0,5.2,0,8.4-3.2,8.3-7.5-.1-4.3-3.3-6.9-8.8-7-6,0-12,0-18,0ZM316.9,112.5c-6,0-12,0-18,0-5.5,0-8.6,2.7-8.7,7-.1,4.3,3,7.5,8.3,7.5,12.3.1,24.6.1,36.9,0,5.2,0,8.4-3.2,8.3-7.5-.1-4.2-3.2-6.9-8.3-7-6.1-.1-12.3,0-18.4,0Z"/>
        <path d="M266.1,242.6c-4.9,18.1-9.6,35.7-14.4,53.4-.6,2.2-1.2,4.4-1.7,6.6-1.5,6.3,1.3,10,7.8,10.2,5.3.1,10.6,0,17,0-14.3,24.2-28.2,47.7-42.6,72-.3-2.1-.6-3.3-.6-4.4-.7-14.1-1.4-28.1-2.1-42.2-.5-9.2-2.3-11-11.4-11.1-5.7,0-11.3,0-17,0-.3,0-.6-.2-1.4-.4,6.6-27.9,13.3-55.8,20-84h46.4Z"/>
      </g>
    </g>
  </g>
</svg>