<?xml version="1.0" encoding="UTF-8"?>
<svg xmlns="http://www.w3.org/2000/svg" version="1.1" viewBox="0 0 590.6 590.6">
  <!-- Generator: Adobe Illustrator 28.7.1, SVG Export Plug-In . SVG Version: 1.2.0 Build 142)  -->
  <g>
    <g id="Layer_1">
      <g>
        <path d="M181,58.9c91,.4,164,73.4,163.5,163.6-.5,90.7-73.5,163-164.4,162.7-90.8-.3-163.8-73.6-163.2-163.9.6-90.4,73.7-162.8,164-162.4ZM180.6,334.1c61.9.2,112.8-49.9,113-111.3.2-62.1-49.8-112.3-112.3-112.6-62.4-.3-113.3,49.7-113.4,111.5-.1,61.9,50.2,112.2,112.6,112.4Z"/>
        <path d="M44.1,508.3c24-41.5,47.4-82.2,71.1-123.2,21.5,8.3,43.4,12.5,66.1,12.4,22.7,0,44.7-4,66.7-12.8,23.7,41,47.4,81.9,71.6,123.6H44.1ZM197.6,461.2v-11.9h-32.1v11.9h32.1Z"/>
        <path d="M46.7,521.6h269.8c-10.3,12.4-19.8,24-29.6,35.3-1.1,1.3-3.9,1.6-5.9,1.7-66.3,0-132.6,0-198.9,0-2.3,0-5.2-1.1-6.6-2.7-9.5-10.9-18.6-22.1-28.7-34.2Z"/>
        <path d="M514.9,375.4c-4.4-4.6-8.9-9.2-13.8-14.3,37.4-38.4,55.4-85.1,55.8-138.8.4-54-18.7-100.3-56-139.5,4.9-4.5,9.5-8.9,14.2-13.3,83.9,75.5,84.4,227.2-.2,305.9Z"/>
        <path d="M457.2,123.8c4.8-4.8,9.4-9.3,13.9-13.8,59.1,54.6,68.1,158.6.4,224.4-4.6-4.7-9.2-9.4-13.8-14.2,59.7-63.7,48.1-147.2-.6-196.5Z"/>
        <path d="M418.4,278.8c28.9-31,29.4-79-1.8-113.3,4.5-4.6,9-9.2,13.4-13.8,39,36.5,41.6,102.5,1.8,141.5-4.5-4.8-8.9-9.6-13.4-14.4Z"/>
        <path d="M389.6,193.9c16.2,15.5,16.3,42.7.5,57.5-4.4-4.6-8.9-9.2-13.7-14.2,7.4-9.2,6.5-19.5-1.1-29.6,4.8-4.6,9.4-9,14.3-13.7Z"/>
        <path d="M281.1,222.2c.2,54.7-44.6,99.5-99.8,99.7-55.6.2-100.8-44.2-100.9-99.2-.1-54.8,44.5-99.4,99.8-99.6,55.9-.3,100.6,43.7,100.8,99.1ZM215.7,222.2c0-18.9-15.5-34.4-34.8-34.4-19.2,0-35,15.3-35,34.2,0,18.8,15.8,34.5,34.8,34.6,19,0,34.9-15.6,35-34.4Z"/>
      </g>
    </g>
  </g>
</svg>